 <!-- SVG Sprite -->
    <svg width="0" height="0" class="hidden">
  <symbol xmlns="http://www.w3.org/2000/svg" viewBox="0 0 60 60" id="following">
    <path d="M30 27.283c-4.537 0-8.321 3.289-9.093 7.607h18.187c-.773-4.318-4.557-7.607-9.094-7.607zm0-13.041a4.895 4.895 0 0 0-4.89 4.89c0 2.697 2.194 4.89 4.89 4.89s4.89-2.194 4.89-4.89-2.193-4.89-4.89-4.89z"></path>
    <path d="M53.365 5.548H6.635a4.895 4.895 0 0 0-4.89 4.89v30.429a4.895 4.895 0 0 0 4.89 4.89h16.03l6.031 8.042a1.632 1.632 0 0 0 2.608 0l6.031-8.042h16.03a4.895 4.895 0 0 0 4.89-4.89V10.438a4.895 4.895 0 0 0-4.89-4.89zM40.868 38.151H19.133c-.9 0-1.63-.73-1.63-1.63 0-4.964 2.91-9.262 7.113-11.277a8.134 8.134 0 0 1-2.766-6.111c0-4.494 3.656-8.151 8.151-8.151s8.151 3.656 8.151 8.151a8.132 8.132 0 0 1-2.766 6.111c4.203 2.015 7.113 6.312 7.113 11.277-.001.9-.731 1.63-1.631 1.63z"></path>
  </symbol>
  <symbol xmlns="http://www.w3.org/2000/svg" viewBox="0 0 512 512" id="hoodie">
    <path d="M409.651 68.167l-26.944-8.1A56.087 56.087 0 0 0 328 16H184a56.087 56.087 0 0 0-54.707 44.067l-26.944 8.1A71.9 71.9 0 0 0 48 137.97V440a23.943 23.943 0 0 0 8 17.869V488a8 8 0 0 0 8 8h48a8 8 0 0 0 8-8v-30.131a23.945 23.945 0 0 0 7.987-17.343A38.665 38.665 0 0 0 144 447.381V472a8 8 0 0 0 8 8h208a8 8 0 0 0 8-8v-24.619a38.665 38.665 0 0 0 16.013-6.855A23.945 23.945 0 0 0 392 457.869V488a8 8 0 0 0 8 8h48a8 8 0 0 0 8-8v-30.131A23.943 23.943 0 0 0 464 440V137.97a71.9 71.9 0 0 0-54.349-69.803zm-77.116-35.912a40.079 40.079 0 0 1 35.253 35.6l-88.449 58.966zM215.679 64h80.642L256 135.682zm89.642-16h-98.642l-9-16h116.642zM179.465 32.255l53.2 94.571-88.453-58.966a40.079 40.079 0 0 1 35.253-35.605zM104 480H72v-16h32zm248-16H160v-16h192zm9.136-32H150.864A22.89 22.89 0 0 1 128 409.136V192a8 8 0 0 0-16 0v248a8.009 8.009 0 0 1-8 8H72a8.009 8.009 0 0 1-8-8V137.97a55.919 55.919 0 0 1 42.418-54.328c.122-.031.243-.064.363-.1l22.755-6.84a7.984 7.984 0 0 0 2.026 1.954L232 145.615V256a8 8 0 0 0 16 0v-99.719l3.562 2.375a8 8 0 0 0 8.876 0l3.562-2.375V256a8 8 0 0 0 16 0V145.615l100.438-66.959a7.984 7.984 0 0 0 2.026-1.954l22.755 6.84c.12.036.241.069.363.1A55.919 55.919 0 0 1 448 137.97V440a8.009 8.009 0 0 1-8 8h-32a8.009 8.009 0 0 1-8-8V192a8 8 0 0 0-16 0v217.136A22.89 22.89 0 0 1 361.136 432zM440 480h-32v-16h32z"></path>
  </symbol>
  <symbol xmlns="http://www.w3.org/2000/svg" viewBox="0 0 512 512" id="jeans">
    <path d="M409.588 494.481l-25.6-486.4A8.54 8.54 0 0 0 375.463 0H136.529a8.526 8.526 0 0 0-8.516 8.09l-25.6 486.4c-.239 4.548 3.14 8.491 7.671 8.943l85.333 8.533c4.471.384 8.55-2.671 9.267-7.117l51.311-315.204 51.311 315.196A8.547 8.547 0 0 0 315.72 512c.282 0 .563-.017.862-.043l85.333-8.533c4.532-.452 7.903-4.395 7.673-8.943zm-86.725-.307L264.418 135.16a8.533 8.533 0 0 0-16.844.009l-58.445 359.014-69.248-6.929 24.747-470.187h222.737l24.747 470.178-69.249 6.929z"></path>
    <path d="M136.529 34.133h238.933V51.2H136.529z"></path>
    <path d="M247.463 8.533v111.863c-10.752-9.907-17.058-23.919-17.067-39.074V8.533h-17.067v72.789c.017 26.778 14.899 50.859 38.852 62.839a8.467 8.467 0 0 0 3.814.905 8.535 8.535 0 0 0 4.48-1.271 8.546 8.546 0 0 0 4.053-7.262v-128h-17.065zM170.825 41.02l-1.024 5.171c-4.13 20.54-16.964 37.82-35.354 47.676h-6.451v17.067h8.533a8.587 8.587 0 0 0 3.823-.896c24.055-12.058 40.883-34.099 46.191-60.51l1.024-5.205-16.742-3.303zm206.728 52.838c-18.398-9.856-31.232-27.128-35.354-47.642l-1.024-5.205-16.751 3.302 1.033 5.24c5.308 26.377 22.144 48.418 46.182 60.476 1.186.597 2.5.905 3.823.905h8.533V93.858h-6.442z"></path>
  </symbol>
  <symbol xmlns="http://www.w3.org/2000/svg" viewBox="0 0 60 60" id="location">
    <path d="M47.024 11.096c-3.49-6.022-9.688-9.702-16.581-9.842-.294-.006-.59-.006-.885 0-6.893.141-13.091 3.82-16.581 9.842-3.567 6.156-3.665 13.55-.261 19.78l14.259 26.098.019.035A3.433 3.433 0 0 0 30 58.75a3.433 3.433 0 0 0 3.006-1.741l.019-.035 14.259-26.098c3.405-6.23 3.307-13.625-.26-19.78zM30.001 27.304c-4.459 0-8.086-3.627-8.086-8.086s3.627-8.086 8.086-8.086c4.459 0 8.086 3.627 8.086 8.086s-3.627 8.086-8.086 8.086z"></path>
  </symbol>
  <symbol xmlns="http://www.w3.org/2000/svg" viewBox="0 0 60 60" id="my-orders">
    <path d="M9.82 24.334h8.363a1.079 1.079 0 1 0 0-2.158H9.82a1.079 1.079 0 1 0 0 2.158zm0 7.473h8.363a1.079 1.079 0 1 0 0-2.158H9.82a1.079 1.079 0 1 0 0 2.158zm10.359 18.089a1.089 1.089 0 0 0-1.409-.584 1.089 1.089 0 0 0-.583 1.409c.226.543.865.808 1.408.584.544-.223.811-.866.584-1.409z"></path>
    <path d="M57.338 33.197L44.501 19.418l3.93-3.921a3.54 3.54 0 0 0 1.059-2.536c0-.947-.367-1.838-1.032-2.51-1.376-1.39-3.642-1.408-5.05-.04l-.01.01-5.389 5.376h-2.013v-4.145c0-.596-.483-1.079-1.079-1.079h-5.715v-.882a1.079 1.079 0 1 0-2.158 0v.882h-3.942v-.882a1.079 1.079 0 1 0-2.158 0v.882H17v-.882a1.079 1.079 0 1 0-2.158 0v.882h-3.943v-.882a1.079 1.079 0 1 0-2.158 0v.882H3.452c-.596 0-1.079.483-1.079 1.079v38.657c0 .596.483 1.079 1.079 1.079h11.016a1.079 1.079 0 1 0 0-2.158H4.531V12.731h4.21v.979a1.079 1.079 0 1 0 2.158 0v-.979h3.943v.979a1.079 1.079 0 1 0 2.158 0v-.979h3.943v.979a1.079 1.079 0 1 0 2.158 0v-.979h3.942v.979a1.079 1.079 0 1 0 2.157 0v-.979h4.636v3.071a7.8 7.8 0 0 0-5.164 2.264l-7.942 7.942c-.48.48-.391 1.302.177 1.669a7.35 7.35 0 0 0 4.004 1.179h.005l-1.239 1.236c-.09.09-.161.194-.214.307l-3.462 5.2a2.361 2.361 0 0 0-.393 1.522h-9.79a1.079 1.079 0 1 0 0 2.158h12.154c.467 0 .938-.156 1.323-.417l5.262-3.576c.062-.041.122-.089.175-.141l2.441-2.435 2.663 2.657v13.862H23.96a1.079 1.079 0 1 0 0 2.158h10.955c.596 0 1.079-.483 1.079-1.079V37.474a7.568 7.568 0 0 0 4.862 1.751h4.306c.895 0 1.764.371 2.377 1.013l8.223 8.738c.654.695 1.865.216 1.865-.74V33.931a1.08 1.08 0 0 0-.289-.734zM30.2 19.593a5.612 5.612 0 0 1 3.955-1.638h1.691l-6.724 6.708c-.622.597-1.211 1.183-2.008 1.552a5.275 5.275 0 0 1-3.778.242l6.864-6.864zm14.716-7.639a1.434 1.434 0 0 1 2.008.015c.262.265.407.617.407.991 0 .379-.148.735-.421 1.005L35.632 25.218l-.543-.544a4.21 4.21 0 0 0-1.845-1.075l11.672-11.645zM22.084 37.078c-.092.063-.178.056-.259-.024-.119-.118-.059-.209-.026-.258l2.82-4.236 1.666 1.663-4.201 2.855zm5.889-4.221l-2.002-2.002 2.056-2.052a4.246 4.246 0 0 0 1.093 1.859l.527.525-1.674 1.67zM55.47 45.516l-6.363-6.762a5.478 5.478 0 0 0-3.943-1.687h-4.306a5.428 5.428 0 0 1-3.86-1.595l-6.355-6.341c-.917-.688-.712-2.213 0-2.937.801-.779 2.136-.778 2.919.006l5.163 5.163a1.09 1.09 0 0 0 1.526 0 1.08 1.08 0 0 0 0-1.526l-3.093-3.093 5.814-5.801 12.497 13.415.001 11.158z"></path>
  </symbol>
  <symbol xmlns="http://www.w3.org/2000/svg" viewBox="0 0 60 60" id="notification">
    <path d="M53.911 49.851l-4.135-6.892a20.47 20.47 0 0 1-2.919-10.534v-6.038c0-7.622-5.086-14.069-12.041-16.147V5.917A4.822 4.822 0 0 0 29.999 1.1a4.822 4.822 0 0 0-4.817 4.817v4.323c-6.955 2.078-12.041 8.525-12.041 16.147v6.038c0 3.709-1.009 7.35-2.916 10.531L6.09 49.848a1.201 1.201 0 0 0-.014 1.214 1.2 1.2 0 0 0 1.045.612h45.757a1.21 1.21 0 0 0 1.048-.609 1.209 1.209 0 0 0-.015-1.214zm-31.495 4.232C23.774 56.92 26.65 58.9 30 58.9s6.225-1.98 7.584-4.817H22.416z"></path>
  </symbol>
  <symbol viewBox="0 -6 512.003 512" xmlns="http://www.w3.org/2000/svg" id="poncho">
    <path d="M177.492 168.953c4.14 0 7.5-3.36 7.5-7.5v-14.21a7.5 7.5 0 1 0-15 0v14.21a7.5 7.5 0 0 0 7.5 7.5zm157.02 0c4.14 0 7.5-3.36 7.5-7.5v-14.21a7.5 7.5 0 1 0-15 0v14.21a7.5 7.5 0 0 0 7.5 7.5zM256 176.535c9.715 0 18.836-4.058 25.023-11.137a7.497 7.497 0 0 0-.71-10.582 7.497 7.497 0 0 0-10.583.711c-3.335 3.817-8.343 6.008-13.73 6.008s-10.39-2.187-13.73-6.008a7.5 7.5 0 1 0-11.293 9.875c6.187 7.075 15.308 11.133 25.023 11.133zm0 0"></path>
    <path d="M447.98 88.73c-16.52-48.453-46.03-77.425-87.722-86.113-13.598-2.828-28.563-6.469-37.332 7.73-9.598 15.544-30.82 44.81-66.926 69.97-36.105-25.16-57.328-54.422-66.922-69.965-8.766-14.192-23.773-10.555-37.336-7.735-41.691 8.688-71.203 37.66-87.722 86.113L.402 275.29a7.492 7.492 0 0 0 .875 6.605c.489.726 7.598 11.199 21.696 27.257v47.184a7.5 7.5 0 0 0 7.5 7.5c4.144 0 7.5-3.356 7.5-7.5v-30.914a524.893 524.893 0 0 0 25.406 24.582 514.79 514.79 0 0 0 8.695 7.695v32.856c0 4.14 3.36 7.5 7.5 7.5s7.5-3.36 7.5-7.5V370.23a567.859 567.859 0 0 0 34.102 25.41v29.133a7.5 7.5 0 1 0 15 0v-19.148a576.1 576.1 0 0 0 34.101 20.32v33.043a7.5 7.5 0 0 0 7.5 7.5c4.145 0 7.5-3.355 7.5-7.5V433.91a574.676 574.676 0 0 0 34.102 16.05v43.247c0 4.14 3.36 7.5 7.5 7.5s7.5-3.36 7.5-7.5v-37.035a562.134 562.134 0 0 0 19.105 7.21 7.526 7.526 0 0 0 5.036 0 558.786 558.786 0 0 0 19.101-7.21v37.035a7.5 7.5 0 1 0 15 0v-43.246a569.93 569.93 0 0 0 34.102-16.05v25.077a7.5 7.5 0 0 0 7.5 7.5c4.144 0 7.5-3.355 7.5-7.5v-33.043a576.234 576.234 0 0 0 34.105-20.32v19.148a7.5 7.5 0 1 0 15 0v-29.132a567.712 567.712 0 0 0 34.098-25.41v20.324a7.5 7.5 0 1 0 15 0v-32.856a526.702 526.702 0 0 0 34.105-32.277v30.914c0 4.144 3.356 7.5 7.5 7.5a7.5 7.5 0 0 0 7.5-7.5v-47.184c14.098-16.058 21.207-26.53 21.696-27.257a7.49 7.49 0 0 0 .875-6.606zM78.22 93.57c14.894-43.687 39.945-68.632 76.578-76.27 6.262-1.3 17.066-6.273 21.516.93 10.605 17.168 34.515 50.06 75.527 77.403a7.499 7.499 0 0 0 8.32 0c41.012-27.344 64.926-60.23 75.531-77.406 4.266-6.907 15.297-2.22 21.512-.926 36.637 7.633 61.688 32.582 76.582 76.27l13.242 38.824c-.117.125-.226.246-.34.37-46.187 50.403-102.566 91.52-165.066 119.317-4.387 1.953-23.652 11.285-25.621 10.54-72.637-27.536-138.344-72.56-190.71-129.884-.106-.117-.208-.23-.313-.343zm360.336 245.317C402 371.98 340.78 417.676 256 448.352c-84.55-30.594-145.66-76.133-182.156-109.106-32.645-29.492-51.914-54.422-58.004-62.754l7.765-22.777c.09.11.188.222.278.332 22.812 27.77 48.785 52.937 76.836 75.379 39.515 31.61 83.488 57.695 130.34 76.847a516.363 516.363 0 0 0 22.425 8.575 7.478 7.478 0 0 0 5.036 0c61.613-21.95 118.37-55.153 168.695-98.684a7.502 7.502 0 0 0 .77-10.578c-2.645-3.059-7.477-3.453-10.583-.766-30.14 26.07-62.652 48.328-97.172 66.563a506.916 506.916 0 0 1-64.23 28.43c-2.586-.938-5.145-2.02-7.754-2.891-35.246-13.442-68.914-30.895-100.355-51.723-44.536-29.504-85.52-66.031-118.461-108.187-.032-.035-.059-.075-.09-.114l16.078-47.148c.535.527 1.078 1.047 1.617 1.574a562.712 562.712 0 0 0 64.461 54.164c4.414 3.176 10.668 7.598 15.008 1.434 2.34-3.32 1.492-8.125-1.813-10.453-14.652-10.32-29.691-21.117-42.765-33.426a542.435 542.435 0 0 1-31.114-29.125l8.66-25.387c19.653 20.887 41.098 40.043 63.891 57.438 39.48 30.125 83.496 54.332 130.02 71.691a7.497 7.497 0 0 0 5.234 0c26.246-9.765 51.7-21.765 75.957-35.758 42.426-24.46 81.262-54.98 115.106-90.375.949-.996 1.902-1.992 2.847-2.996l8.657 25.39c-.391.395-.778.794-1.168 1.188a542.051 542.051 0 0 1-41.473 37.641c-47.879 39.145-101.219 69.352-158.54 89.77a11.964 11.964 0 0 1-8 .003c-35.933-12.8-70.636-29.617-103.144-49.984-3.507-2.2-8.136-1.133-10.336 2.375a7.497 7.497 0 0 0 2.375 10.336c33.43 20.945 69.118 38.238 106.082 51.406 5.817 2.074 12.235 2.059 18.051-.004 59.14-20.976 114.453-52.59 163.008-92.289a560.13 560.13 0 0 0 38.543-34.613l16.078 47.148c-.238.305-.48.61-.726.918-13.309 16.832-28.606 31.329-42.903 47.215-2.945 2.844-3.02 7.668-.176 10.606 2.77 2.86 7.633 3.05 10.606.172 13.738-13.297 26.785-27.332 38.93-42.102l7.77 22.79c-6.048 8.288-25.114 32.976-57.606 62.39zm0 0"></path>
  </symbol>
  <symbol xmlns="http://www.w3.org/2000/svg" viewBox="0 0 60 60" id="search">
    <path d="M55.923 52.792L40.81 37.679a20.937 20.937 0 0 0 4.69-13.215c0-11.599-9.437-21.036-21.036-21.036S3.428 12.865 3.428 24.464 12.865 45.5 24.464 45.5c5.004 0 9.599-1.763 13.215-4.69l15.113 15.113c.432.432.999.649 1.566.649a2.212 2.212 0 0 0 1.565-3.78zm-31.459-11.72c-9.158 0-16.607-7.449-16.607-16.607S15.306 7.858 24.464 7.858s16.607 7.449 16.607 16.607-7.449 16.607-16.607 16.607z"></path>
  </symbol>
  <symbol xmlns="http://www.w3.org/2000/svg" viewBox="0 0 60 60" id="share-profile">
    <path d="M53.73 11.478a7.524 7.524 0 1 1-15.048 0 7.524 7.524 0 0 1 15.048 0z"></path>
    <path d="M46.206 20.739c-5.107 0-9.26-4.154-9.26-9.261s4.153-9.26 9.26-9.26 9.26 4.154 9.26 9.26c0 5.107-4.153 9.261-9.26 9.261zm0-15.049a5.795 5.795 0 0 0-5.788 5.788c0 3.19 2.595 5.788 5.788 5.788s5.788-2.598 5.788-5.788-2.595-5.788-5.788-5.788zm7.524 42.83a7.524 7.524 0 1 1-15.048 0 7.524 7.524 0 1 1 15.048 0z"></path>
    <path d="M46.206 57.782c-5.107 0-9.26-4.154-9.26-9.26 0-5.107 4.153-9.261 9.26-9.261s9.26 4.154 9.26 9.261c0 5.105-4.153 9.26-9.26 9.26zm0-15.05c-3.193 0-5.788 2.598-5.788 5.788s2.595 5.788 5.788 5.788 5.788-2.598 5.788-5.788-2.595-5.788-5.788-5.788zM21.318 29.999a7.524 7.524 0 1 1-15.048 0 7.524 7.524 0 0 1 15.048 0z"></path>
    <path d="M13.794 39.259c-5.107 0-9.26-4.153-9.26-9.26s4.154-9.26 9.26-9.26c5.107 0 9.261 4.153 9.261 9.26s-4.154 9.26-9.261 9.26zm0-15.048a5.794 5.794 0 0 0-5.788 5.788c0 3.19 2.595 5.788 5.788 5.788s5.788-2.597 5.788-5.788a5.795 5.795 0 0 0-5.788-5.788z"></path>
    <path d="M19.26 28.888a2.31 2.31 0 0 1-2.014-1.169 2.319 2.319 0 0 1 .866-3.158l21.482-12.247a2.31 2.31 0 0 1 3.158.866 2.319 2.319 0 0 1-.866 3.158L20.404 28.585a2.314 2.314 0 0 1-1.144.303zm21.48 19.101c-.389 0-.783-.098-1.144-.304L18.114 35.438a2.318 2.318 0 0 1-.866-3.158 2.312 2.312 0 0 1 3.158-.866l21.482 12.247a2.317 2.317 0 1 1-1.148 4.328z"></path>
  </symbol>
  <symbol xmlns="http://www.w3.org/2000/svg" viewBox="0 0 298.859 298.859" id="suit">
    <path d="M198.971.269l-.008-.002-.035-.012c-.057-.018-.113-.029-.17-.045l-.012-.002c-.078-.022-.156-.047-.236-.065-.029-.008-.059-.014-.088-.021-.072-.016-.145-.025-.217-.037-.078-.014-.154-.029-.23-.039l-.082-.01c-.08-.01-.16-.014-.238-.019-.072-.004-.143-.012-.213-.014-.027-.002-.057-.002-.084-.002-.086 0-.169.002-.253.006-.063.002-.128 0-.192.004l-.094.008c-.086.008-.17.02-.254.031-.059.008-.12.012-.18.022l-.1.019c-.084.014-.164.035-.246.053-.06.014-.119.025-.178.041-.033.01-.066.017-.1.027-.078.023-.154.051-.232.076-.061.022-.125.039-.186.063l-.092.035c-.071.027-.141.061-.211.092-.068.031-.137.061-.203.094-.021.01-.045.018-.066.029-.006.002-.01.006-.014.008-.063.033-.123.07-.185.106-.069.039-.14.078-.208.121l-.037.021-.047.027c-.053.033-.1.072-.151.107-.067.047-.136.094-.2.145-.029.021-.059.041-.086.063-.049.037-.092.08-.138.119-.061.053-.124.105-.183.162-.027.023-.057.047-.084.074-.043.041-.082.088-.125.131-.055.059-.111.115-.164.176l-.078.086c-.039.045-.072.094-.109.141-.05.063-.1.127-.147.193-.023.031-.048.063-.071.096-.033.047-.061.1-.094.148a6.948 6.948 0 0 0-.131.211c-.02.033-.041.065-.059.098-.031.055-.055.111-.083.168a4.205 4.205 0 0 0-.11.223c-.014.029-.029.057-.042.086-.017.041-.03.082-.046.123-.011.025-.02.053-.029.078-.021.053-.045.102-.064.154l-21.439 60.607-4.533-31.318a5.497 5.497 0 0 0 2.661-1.717 5.494 5.494 0 0 0 1.231-4.455l-3.668-22.18A5.498 5.498 0 0 0 160.913 0h-22.961a5.502 5.502 0 0 0-5.428 4.603l-3.668 22.18a5.502 5.502 0 0 0 1.232 4.455 5.5 5.5 0 0 0 2.662 1.717l-4.623 31.98L107.321 3.73c-.021-.059-.047-.111-.068-.168a1.358 1.358 0 0 0-.021-.06c-.025-.061-.044-.123-.07-.184-.008-.02-.02-.039-.028-.061-.034-.076-.073-.148-.11-.223l-.006-.014c-.042-.084-.082-.166-.129-.246-.041-.074-.087-.143-.132-.215l-.006-.008c-.036-.057-.067-.117-.105-.172l-.048-.063c-.049-.07-.104-.137-.156-.205-.041-.053-.08-.109-.124-.162-.017-.018-.034-.035-.05-.055-.057-.063-.115-.123-.174-.186-.064-.066-.127-.135-.195-.199-.063-.059-.129-.115-.193-.172a5.173 5.173 0 0 0-.214-.178c-.072-.057-.147-.107-.222-.16h-.002c-.051-.035-.098-.074-.15-.109-.021-.014-.043-.025-.064-.039a5.938 5.938 0 0 0-.23-.133c-.061-.035-.118-.07-.18-.104a.164.164 0 0 1-.029-.016l-.034-.016c-.073-.037-.149-.068-.226-.102-.068-.031-.135-.065-.205-.092l-.072-.029c-.068-.027-.141-.047-.211-.07-.075-.025-.148-.053-.225-.074-.027-.008-.053-.018-.08-.025-.061-.016-.121-.025-.182-.041a5.184 5.184 0 0 0-.261-.059c-.096-.018-.189-.029-.283-.041a5.413 5.413 0 0 0-.252-.031l-.021-.002c-.084-.006-.168-.008-.252-.01l-.006-.002c-.086-.002-.172-.006-.258-.006h-.004c-.09.002-.178.008-.266.014-.006.002-.011.002-.016.002-.086.006-.17.01-.256.019l-.059.004c-.076.01-.154.027-.23.039-.08.014-.162.025-.242.043l-.063.012c-.074.016-.146.041-.219.06-.012.002-.021.006-.031.008-.063.018-.123.027-.186.047l-.055.018-.004.002C76.68 7.686 56.405 20.246 41.783 36.59 26.557 53.61 18.509 73.619 18.509 94.457v151.666c0 3.039 2.462 5.5 5.5 5.5h33.47l-4.304 41.158a5.5 5.5 0 0 0 5.47 6.072h71.217l.031.002c.174 0 .346-.012.518-.027l.121-.014c.127-.016.252-.035.375-.059.05-.008.1-.018.148-.027.15-.033.299-.07.443-.113.055-.018.107-.037.161-.057.099-.033.196-.068.294-.107.064-.025.129-.055.193-.084.086-.037.17-.078.254-.121a5.148 5.148 0 0 0 .566-.33l.025-.017a6.743 6.743 0 0 0 .455-.349c.1-.086.197-.174.291-.266l.074-.072a5.27 5.27 0 0 0 .311-.342l.02-.022c.107-.131.207-.266.302-.404.018-.025.033-.053.05-.08a5.331 5.331 0 0 0 .41-.746c.029-.068.061-.137.09-.207l.026-.063 14.682-37.736 14.714 37.74.026.059c.028.07.06.139.091.209.039.084.078.17.121.254.029.057.06.113.09.168.063.111.129.219.197.324.018.025.033.053.05.078.095.141.196.275.304.406l.01.012c.102.121.209.238.32.352l.068.068c.096.094.197.184.299.272.027.023.055.047.082.068.121.1.247.193.377.283l.018.012c.129.086.263.166.398.242l.162.084a4.9 4.9 0 0 0 .264.127 3.825 3.825 0 0 0 .488.191c.051.017.1.037.15.053a5.463 5.463 0 0 0 .974.201l.119.014c.171.016.344.027.518.027l.031-.002h71.695a5.499 5.499 0 0 0 5.471-6.072l-4.303-41.158h32.416a5.5 5.5 0 0 0 5.5-5.5V94.461c0-20.775-7.984-40.752-23.09-57.768C242.729 20.324 222.575 7.731 198.971.269zm-8.202 53.077c-.054.053-.099.111-.149.166-.076.082-.156.164-.229.252-.02.023-.035.051-.055.074a5.502 5.502 0 0 0-.271 6.424c.039.061.086.115.129.174.064.092.127.184.198.271.056.066.118.131.179.197.065.072.128.148.199.219l15.981 15.982-57.056 83.521-.965-1.412 24.822-70.174.014-.035 24.623-69.607 8.961 17.562-16.381 16.386zm-82.149 7.779h.002c.32-.32.588-.672.813-1.043a5.488 5.488 0 0 0 .771-2.314l.002-.006a5.484 5.484 0 0 0-1.585-4.416L92.237 36.959l8.859-17.363 41.83 123.043-1.883 5.322-48.408-70.856 15.985-15.98zM142.616 11h13.632l1.849 11.18h-17.329L142.616 11zm1.217 22.18h11.199l7.729 53.391-13.91 39.32-12.925-38.018 7.907-54.693zm-74.78 213.517v-.014l6.061-57.949a5.59 5.59 0 0 0-.008-1.213l-11-93.701a5.502 5.502 0 0 0-10.926 1.282l10.93 93.096-5.483 52.43h-29.12V94.461c0-33.135 23.665-63.088 61.346-78.992L80.661 35.447l-.023.045-.016.029c-.014.029-.024.059-.039.086a6.112 6.112 0 0 0-.178.4c-.023.061-.043.121-.064.184-.037.106-.075.211-.105.318-.025.088-.045.178-.066.266-.018.082-.039.164-.055.246-.019.104-.031.209-.045.314-.008.068-.02.139-.025.207-.01.107-.012.217-.016.326-.002.068-.005.137-.004.205 0 .104.008.205.014.307.006.076.01.154.018.23.01.09.025.18.039.268.014.09.027.178.045.266.016.076.037.152.056.227.024.1.05.197.08.295.021.066.046.131.069.195.035.104.072.205.114.305.026.064.058.127.089.189.045.096.089.191.139.285.041.074.084.145.128.215.048.08.093.158.145.234.061.092.13.18.196.267.041.053.078.108.121.158.09.111.188.217.289.32.023.025.043.051.066.074l.025.025.033.033 15.264 15.266-15.323 15.321-.022.025a5.585 5.585 0 0 0-.264.291c-.035.041-.072.08-.105.121-.078.096-.146.195-.217.293-.035.053-.075.102-.109.154-.055.084-.102.17-.152.256-.041.072-.086.143-.123.217-.035.066-.063.135-.094.201-.045.096-.092.191-.131.289-.021.051-.035.102-.055.154-.041.115-.084.23-.119.348-.014.051-.023.102-.037.152-.031.119-.063.238-.085.359-.015.072-.021.145-.032.219-.014.1-.031.197-.041.297-.01.109-.012.219-.016.326-.002.066-.008.131-.008.197 0 .131.009.26.018.391.004.045.004.09.008.133.012.129.033.256.055.383.008.047.013.096.021.143.021.109.052.217.08.324.018.066.03.133.051.199.024.084.057.166.086.248.031.09.061.18.098.268.025.063.057.123.084.184.049.105.096.213.152.316.027.051.061.1.089.15a5.511 5.511 0 0 0 .216.353l63.217 92.531v69.352l-18.064 46.43H64.748l4.305-41.16zm200.299-6.07h-28.067l-5.482-52.43 10.928-93.096a5.502 5.502 0 0 0-4.821-6.104 5.502 5.502 0 0 0-6.104 4.822l-10.999 93.701a5.466 5.466 0 0 0-.008 1.213l6.059 57.945.002.021 4.304 41.156h-61.866l-18.102-46.432v-69.35l63.211-92.531c.008-.01.012-.02.018-.027a6.05 6.05 0 0 0 .205-.336c.027-.047.057-.092.082-.139.059-.109.109-.221.16-.332.025-.057.054-.111.077-.168.039-.094.069-.189.103-.285.027-.076.059-.152.082-.23.021-.072.037-.146.055-.221.026-.1.055-.199.074-.301.012-.057.017-.113.025-.17.02-.119.041-.238.053-.357.004-.055.004-.109.008-.164.008-.119.018-.24.018-.359 0-.078-.008-.156-.01-.234-.004-.096-.006-.191-.014-.287a6.533 6.533 0 0 0-.047-.338c-.01-.061-.016-.121-.027-.18-.024-.133-.059-.262-.092-.393-.012-.039-.019-.08-.029-.119a4.828 4.828 0 0 0-.129-.373c-.016-.043-.027-.086-.045-.129-.041-.105-.092-.207-.139-.309-.029-.061-.055-.123-.085-.182-.04-.078-.088-.154-.132-.23-.048-.08-.092-.164-.145-.242-.035-.057-.078-.109-.115-.162a4.545 4.545 0 0 0-.21-.285c-.036-.045-.075-.086-.112-.129-.083-.096-.166-.193-.258-.285-.008-.008-.015-.018-.023-.025l-15.318-15.318L217.7 41.967l.031-.029.027-.027c.025-.025.047-.053.07-.08.1-.102.195-.205.285-.315.043-.051.081-.107.121-.16.068-.088.135-.174.195-.266.052-.076.098-.156.146-.236.043-.07.086-.141.125-.213a5.38 5.38 0 0 0 .141-.285c.029-.063.061-.127.088-.189.043-.1.079-.203.115-.305.023-.064.049-.131.068-.195.031-.098.055-.197.08-.295.02-.076.039-.15.056-.227.019-.088.031-.176.046-.264.014-.09.029-.18.039-.27.008-.076.012-.152.016-.229.008-.104.014-.205.016-.309 0-.068-.004-.137-.006-.205a4.392 4.392 0 0 0-.016-.326c-.006-.07-.016-.139-.023-.207-.014-.105-.027-.211-.047-.316a4.212 4.212 0 0 0-.055-.242 4.397 4.397 0 0 0-.064-.27 6.492 6.492 0 0 0-.105-.316c-.021-.06-.041-.123-.064-.185a5.322 5.322 0 0 0-.178-.395c-.015-.031-.025-.061-.041-.09l-.016-.031-.021-.043-10.158-19.906c37.338 15.965 60.781 45.881 60.781 78.92v146.166z"></path>
  </symbol>
  <symbol viewBox="0 0 511.988 511.988" xmlns="http://www.w3.org/2000/svg" id="teddy-bear">
    <path d="M212.051 127.591c0-4.142-3.357-7.5-7.5-7.5s-7.5 3.358-7.5 7.5v20.374c0 4.142 3.357 7.5 7.5 7.5s7.5-3.358 7.5-7.5zm95.386-7.5a7.5 7.5 0 0 0-7.5 7.5v20.374c0 4.142 3.357 7.5 7.5 7.5s7.5-3.358 7.5-7.5v-20.374a7.5 7.5 0 0 0-7.5-7.5zm-22.277 42.752c-9.813-4.622-48.52-4.622-58.332 0-7.569 3.566-12.652 10.22-14.312 18.737-1.348 6.914-.396 14.623 2.68 21.706 4.262 9.815 11.991 17.333 22.353 21.743a46.842 46.842 0 0 0 10.945 3.137v10.835c0 4.142 3.357 7.5 7.5 7.5s7.5-3.358 7.5-7.5v-10.835a46.828 46.828 0 0 0 10.945-3.137c10.361-4.409 18.091-11.928 22.353-21.742 3.075-7.083 4.027-14.792 2.68-21.706-1.66-8.517-6.743-15.172-14.312-18.738zm-2.128 34.469c-2.741 6.314-7.608 10.996-14.466 13.914-7.988 3.4-17.152 3.401-25.145 0-6.857-2.918-11.725-7.6-14.466-13.915-2.737-6.304-3.86-17.071 4.26-20.896 2.98-1.348 12.88-2.022 22.778-2.022 9.896 0 19.792.674 22.775 2.021 8.124 3.828 7.001 14.594 4.264 20.898z"></path>
    <path d="M440.133 88.187c5.96-18.078 2.721-38.181-8.887-55.157-13.08-19.129-34.955-31.738-57.088-32.907-33.377-1.756-50.824 15.625-64.188 34.955-16.881-5.19-35.05-8.026-53.976-8.026-18.947 0-37.135 2.842-54.032 8.043-7.27-10.455-14.979-19.41-24.93-25.72a7.5 7.5 0 1 0-8.034 12.667c6.872 4.359 12.707 10.721 18.274 18.297-35.755 14.597-64.31 40.209-79.709 71.719-9.499-7.019-17.323-16.014-21.462-28.567-4.551-13.802-2.057-28.715 7.022-41.993 10.499-15.354 27.932-25.467 45.483-26.394l.64-.031a7.5 7.5 0 1 0-.672-14.985l-.746.036C115.697 1.292 93.822 13.901 80.742 33.03c-11.607 16.976-14.847 37.079-8.887 55.156 4.124 12.507 11.184 22.916 21.584 31.82 2.539 2.174 5.274 4.24 8.233 6.254-4.304 12.485-6.626 25.696-6.626 39.368 0 31.168 12.022 59.957 32.272 83.13-18.598 13.485-30.645 30.903-34.238 49.78-3.673 19.298 2.663 37.906 17.862 52.784-1.422 7.33-2.617 16.119-3.092 26.23-.468 9.95-.164 19.701.733 29.186-14.044 10.896-23.022 27.429-23.022 45.912 0 32.231 27.299 58.526 61.169 59.325.185.014 218.279.016 218.432.007 14.449-.324 28.37-5.346 39.348-14.251a7.501 7.501 0 0 0-9.449-11.65c-8.69 7.049-19.836 10.932-31.384 10.932-26.33 0-47.751-19.901-47.751-44.363 0-3.532.45-6.967 1.294-10.262 6.907-5.487 13.131-10.547 17.764-14.523 6.761-5.802 12.844-11.983 18.23-18.501a51.103 51.103 0 0 1 10.462-1.077c26.33 0 47.751 19.901 47.751 44.363 0 2.799-.281 5.596-.836 8.314a7.5 7.5 0 0 0 5.849 8.848c4.063.824 8.021-1.791 8.849-5.849a56.673 56.673 0 0 0 1.139-11.313c0-18.498-8.993-35.042-23.056-45.937 1.042-10.995 1.161-20.798.767-29.16-.469-9.984-1.64-18.679-3.039-25.954 15.111-14.799 21.436-33.316 17.839-52.546-3.563-19.046-15.657-36.566-34.408-50.134 20.335-23.2 32.412-52.051 32.412-83.29 0-13.679-2.325-26.898-6.634-39.389 12.841-8.771 24.069-20.601 29.824-38.053zM107.816 301.344c3.811-20.024 18.855-33.89 30.082-41.692a156.1 156.1 0 0 0 16.796 13.559 71.092 71.092 0 0 0-3.515 3.141c-2.729 2.628-6.99 6.065-7.753 10.069a7.491 7.491 0 0 0 2.699 7.471 7.462 7.462 0 0 0 5.053 1.578c8.857 1.303 17.902 3.646 26.912 6.999 14.188 5.279 33.55 14.165 37.889 30.313 3.063 11.397-4.436 25.046-15.731 28.636-22.9 7.277-56.517-.93-76.531-18.684-9.282-8.232-19.574-22.095-15.901-41.39zm39.535 91.967c-8.652.124-16.882 1.91-24.353 5.04-.426-7.076-.445-13.523-.203-19.238.266-6.285.84-12.012 1.576-17.143a102.28 102.28 0 0 0 11.211 6.271 137.516 137.516 0 0 0 6.376 15.233 127.087 127.087 0 0 0 5.393 9.837zm.96 103.703c-26.33 0-47.751-19.901-47.751-44.363s21.421-44.363 47.751-44.363c3.6 0 7.103.385 10.476 1.093 5.382 6.512 11.461 12.687 18.217 18.484 4.634 3.977 10.858 9.037 17.766 14.524a41.228 41.228 0 0 1 1.293 10.261c-.001 24.463-21.421 44.364-47.752 44.364zm173.732 0H189.945c12.336-10.372 20.329-25.26 21.051-41.9 14.096 10.937 28.253 21.677 36.336 27.779a14.36 14.36 0 0 0 8.662 2.887c3.056 0 6.112-.962 8.663-2.887 8.082-6.102 22.238-16.841 36.335-27.779.722 16.64 8.715 31.528 21.051 41.9zm34.525-120.153c-7.163 14.584-17.712 27.915-31.354 39.622-16.85 14.461-56.753 44.739-69.221 54.155-12.471-9.418-52.372-39.695-69.221-54.155-13.642-11.707-24.19-25.037-31.354-39.622-.24-.489-.48-1.009-.721-1.515 8.981 2.421 18.177 3.703 27.028 3.703 8.123 0 15.959-1.077 23.063-3.334 18.776-5.967 30.773-27.847 25.675-46.824-6.138-22.842-29.846-34.042-47.145-40.479a154.095 154.095 0 0 0-17.088-5.256c10.105-7.817 22.755-12.216 35.57-12.216h.138c18.373.045 35.249 8.477 46.302 23.134 1.827 2.421 4.725 3.867 7.752 3.867s5.925-1.446 7.753-3.869c11.052-14.656 27.928-23.088 46.301-23.133h.138c12.942 0 25.722 4.481 35.876 12.445a153.893 153.893 0 0 0-17.332 5.255c-12.448 4.587-28.214 11.624-38.404 23.694-3.987 4.723-7.121 10.217-8.867 16.636-5.158 18.961 6.771 40.879 25.527 46.904 7.184 2.308 15.113 3.408 23.343 3.408 8.786 0 17.909-1.262 26.824-3.642-.193.41-.388.826-.583 1.222zm32.403 21.482c-7.466-3.124-15.689-4.908-24.334-5.032a127.099 127.099 0 0 0 5.394-9.837 137.69 137.69 0 0 0 6.263-14.891 102.369 102.369 0 0 0 11.334-6.312c1.385 9.896 2.16 22.026 1.343 36.072zm15.223-96.532c3.611 19.307-6.725 33.138-16.03 41.34-20.072 17.691-53.712 25.791-76.591 18.442-11.284-3.625-18.739-17.297-15.641-28.686 4.39-16.134 23.78-24.958 37.983-30.192 9.495-3.499 19.027-5.894 28.332-7.119a7.55 7.55 0 0 0 5.435-3.549c1.676-2.762 1.442-6.151-.548-8.687a68.088 68.088 0 0 0-6.326-7.007 71.484 71.484 0 0 0-3.513-3.14 156.076 156.076 0 0 0 16.631-13.41c11.51 7.978 26.509 21.913 30.268 42.008zm-60.327-37.586c-10.353-5.368-21.965-8.285-33.682-8.285h-.174c-20.88.051-40.224 8.715-54.017 23.986-13.793-15.271-33.138-23.935-54.017-23.986h-.174c-11.715 0-23.325 2.916-33.677 8.282-35.252-22.58-58.08-58.368-58.08-98.594 0-68.141 65.472-123.577 145.948-123.577s145.948 55.436 145.948 123.577c0 40.226-22.824 76.017-58.075 98.597zm60.524-152.24c-15.406-31.477-43.945-57.06-79.671-71.646 12.44-16.943 25.187-26.474 48.648-25.237 17.564.927 34.997 11.041 45.496 26.395 9.079 13.278 11.573 28.191 7.022 41.993-2.988 9.064-7.976 18.624-21.495 28.495z"></path>
  </symbol>
  <symbol xmlns="http://www.w3.org/2000/svg" viewBox="0 0 480.004 480.004" id="tie">
    <path d="M430.233 43l-32-40a7.926 7.926 0 0 0-2.288-1.864 5.59 5.59 0 0 0-.76-.336 8.01 8.01 0 0 0-2.328-.632c-.16 0-.296-.112-.448-.128-.152-.016-.12 0-.176 0-.056 0-.152-.04-.248-.04H87.537c-.064 0-.288.104-.448.128A7.996 7.996 0 0 0 84.785.8a5.64 5.64 0 0 0-.696.336A7.939 7.939 0 0 0 81.801 3h-.04l-32 40a8.001 8.001 0 0 0-.28 9.6l122.712 173.28a7.999 7.999 0 0 0 5.856 3.352h.68a8 8 0 0 0 5.656-2.344l10.344-10.344 16.656 16.616-27.32 197.744a8.001 8.001 0 0 0 2.792 7.24l48 40a7.999 7.999 0 0 0 10.256 0l48-40a8.001 8.001 0 0 0 2.792-7.24l-27.296-197.696 16.656-16.616 10.344 10.344a8 8 0 0 0 5.656 2.344h.68a7.999 7.999 0 0 0 5.856-3.352L430.513 52.624a7.998 7.998 0 0 0-.28-9.624zm-57.56-27L239.985 148.688 107.297 16h265.376zm-192.92 192.92L65.993 48.296 88.649 20l140.024 140-48.92 48.92zm99.704 219.776L239.985 461.6l-39.472-32.888 25.072-181.336 8.8 8.8a8 8 0 0 0 11.312 0l8.8-8.8 24.96 181.32zM239.985 239.2l-33.96-33.896 33.96-33.992 33.96 33.96-33.96 33.928zm60.232-30.248L251.297 160l140-140 22.656 28.32-113.736 160.632z"></path>
  </symbol>
  <symbol xmlns="http://www.w3.org/2000/svg" viewBox="0 0 407.7 407.7" id="tshirt">
    <path d="M405.5 118.021a7.93 7.93 0 0 0-.29-.29l-84.16-74.8a7.994 7.994 0 0 0-2.64-1.6l-60.88-21.76a8 8 0 0 0-10.72 7.12c0 1.76-2.64 42.32-43.2 42.96-40.8-.64-43.36-41.2-43.44-42.96a8 8 0 0 0-10.64-7.12l-60.8 22c-.976.357-1.872.9-2.64 1.6l-83.6 74.56a8 8 0 0 0 0 11.6l66.56 67.28v184a8 8 0 0 0 8 8h253.6a8 8 0 0 0 8-8v-184l66.56-67.28a8 8 0 0 0 .29-11.31zm-67.09 55.79v-37.12a8 8 0 0 0-16 0v235.52H84.73v-235.52a8 8 0 0 0-16 0v37.2l-49.2-49.84 76.16-68.16 50.08-18.08c6.204 31.966 37.147 52.851 69.113 46.647 23.607-4.582 42.065-23.04 46.647-46.647l50.08 18.08 75.92 68.16-49.12 49.76z"></path>
  </symbol>
  <symbol xmlns="http://www.w3.org/2000/svg" viewBox="0 0 512 512" id="bed">
    <path d="M496 344h-8v-64a32.042 32.042 0 0 0-32-32V112a32.042 32.042 0 0 0-32-32H88a32.042 32.042 0 0 0-32 32v136a32.042 32.042 0 0 0-32 32v64h-8a8 8 0 0 0-8 8v32a8 8 0 0 0 8 8h8v32a8 8 0 0 0 8 8h24a7.99 7.99 0 0 0 7.84-6.43L70.56 392h370.88l6.72 33.57A7.99 7.99 0 0 0 456 432h24a8 8 0 0 0 8-8v-32h8a8 8 0 0 0 8-8v-32a8 8 0 0 0-8-8zM72 112a16.021 16.021 0 0 1 16-16h336a16.021 16.021 0 0 1 16 16v136h-16v-32a32.042 32.042 0 0 0-32-32h-96a32.042 32.042 0 0 0-32 32v32h-16v-32a32.042 32.042 0 0 0-32-32h-96a32.042 32.042 0 0 0-32 32v32H72zm336 104v32H280v-32a16.021 16.021 0 0 1 16-16h96a16.021 16.021 0 0 1 16 16zm-176 0v32H104v-32a16.021 16.021 0 0 1 16-16h96a16.021 16.021 0 0 1 16 16zM40 280a16.021 16.021 0 0 1 16-16h400a16.021 16.021 0 0 1 16 16v64H40zm9.44 136H40v-24h14.24zM472 416h-9.44l-4.8-24H472zm16-40H24v-16h464z"></path>
  </symbol>
  <symbol viewBox="0 0 128 128" xmlns="http://www.w3.org/2000/svg" id="bucket">
    <path d="M29.389 48.2a1.75 1.75 0 1 0-3.441.636l3.538 19.152a1.75 1.75 0 0 0 3.442-.636zM99.9 19.474a4.75 4.75 0 1 0-4.75-4.75 4.756 4.756 0 0 0 4.75 4.75zm0-6a1.25 1.25 0 1 1-1.25 1.25 1.252 1.252 0 0 1 1.25-1.25zm-12.733.245a4.75 4.75 0 1 0-4.75-4.75 4.756 4.756 0 0 0 4.75 4.75zm0-6a1.25 1.25 0 1 1-1.25 1.25 1.251 1.251 0 0 1 1.25-1.25z"></path>
    <path d="M121.5 26.94h-5.25v-2.75a1.751 1.751 0 0 0-1.75-1.75H77.255a12.43 12.43 0 0 0-6.628-4.02 12.289 12.289 0 0 0-13.607-6.486 12.315 12.315 0 0 0-23.485 4.34 17.746 17.746 0 0 0-8.5 6.166H13.5a1.751 1.751 0 0 0-1.75 1.75v2.75H6.5a1.751 1.751 0 0 0-1.75 1.75v15.87a45.422 45.422 0 0 0 17.965 36.3l7.564 40.957A1.75 1.75 0 0 0 32 123.25h64a1.75 1.75 0 0 0 1.721-1.432l7.564-40.957a45.421 45.421 0 0 0 17.965-36.3V28.69a1.751 1.751 0 0 0-1.75-1.75zm-19.409 51.947a42.69 42.69 0 0 1-21.326 7.939V84.75a1.751 1.751 0 0 0-1.75-1.75h-30.03a1.751 1.751 0 0 0-1.75 1.75v2.076a42.7 42.7 0 0 1-21.326-7.939L17.793 34.94H64.25v11.78A13.765 13.765 0 0 0 78 60.47h8.167a13.766 13.766 0 0 0 13.75-13.75V34.94h10.29zM50.735 88.8v-2.3h26.53V91h-26.53zM67.75 25.942h28.667V46.72a10.262 10.262 0 0 1-10.25 10.25H78a10.261 10.261 0 0 1-10.25-10.25zm45 5.5H99.917v-5.5h12.833zM35.719 19.277a1.751 1.751 0 0 0 1.318-1.8l-.015-.2c0-.068-.012-.137-.012-.2a8.817 8.817 0 0 1 17.272-2.5 1.752 1.752 0 0 0 2.3 1.14 8.633 8.633 0 0 1 3.063-.558 8.762 8.762 0 0 1 8.149 5.479 1.751 1.751 0 0 0 1.363 1.062 8.8 8.8 0 0 1 2.447.738H29.766a14.192 14.192 0 0 1 5.953-3.161zM15.25 25.94h49v5.5h-49zm-7 18.62V30.44h3.5v2.75a1.751 1.751 0 0 0 1.75 1.75h.734l7.481 40.509A41.861 41.861 0 0 1 8.25 44.56zm86.293 75.19H33.457l-6.663-36.072a46.186 46.186 0 0 0 20.441 6.663v2.409a1.751 1.751 0 0 0 1.75 1.75h30.03a1.751 1.751 0 0 0 1.75-1.75v-2.409a46.182 46.182 0 0 0 20.441-6.663zm25.207-75.19a41.863 41.863 0 0 1-13.465 30.889l7.481-40.509h.734a1.751 1.751 0 0 0 1.75-1.75v-2.75h3.5z"></path>
  </symbol>
  <symbol xmlns="http://www.w3.org/2000/svg" viewBox="0 0 74 74" id="dress">
    <path d="M48.628 34.344h-.013a1 1 0 0 1-.987-1.013A10.081 10.081 0 0 1 51 26.063a9.7 9.7 0 0 0 2.859-9.925 16.749 16.749 0 0 0-2.462-4.731c-1.643-.06-7.87.228-13.639 6.854a1.032 1.032 0 0 1-1.508 0c-5.726-6.576-12-6.895-13.64-6.851a16.847 16.847 0 0 0-2.461 4.729A9.7 9.7 0 0 0 23 26.063a10.083 10.083 0 0 1 3.367 7.269 1 1 0 0 1-.987 1.013h-.013a1 1 0 0 1-1-.987 8.126 8.126 0 0 0-2.734-5.833 11.709 11.709 0 0 1-3.4-12 18.383 18.383 0 0 1 3.094-5.735 1 1 0 0 1 .649-.347c.33-.039 7.932-.811 15.016 6.672 7.082-7.482 14.686-6.709 15.016-6.672a1 1 0 0 1 .649.347 18.383 18.383 0 0 1 3.094 5.735 11.71 11.71 0 0 1-3.4 12 8.124 8.124 0 0 0-2.734 5.833 1 1 0 0 1-.989.986z"></path>
    <path d="M37 41a79.924 79.924 0 0 1-12.067-.917 1.4 1.4 0 0 1-1.177-1.371v-4.9a1.37 1.37 0 0 1 1.667-1.337 53.912 53.912 0 0 0 23.156 0 1.37 1.37 0 0 1 1.665 1.338v4.9a1.4 1.4 0 0 1-1.176 1.371A79.893 79.893 0 0 1 37 41zm-11.244-2.821a77.851 77.851 0 0 0 22.488 0v-3.6a55.854 55.854 0 0 1-22.488 0z"></path>
    <path d="M37 71.979a73.045 73.045 0 0 1-26.36-5.045 1 1 0 0 1-.607-1.188c1.778-6.762 6.2-19.292 15.82-27.227a1 1 0 0 1 1.273 1.543C18.33 47.315 14.058 58.7 12.2 65.385a69.284 69.284 0 0 0 49.625-.011c-2.04-8.533-6.257-19.524-14.871-25.252a1 1 0 1 1 1.107-1.665c9.452 6.285 13.87 18.326 15.912 27.321a1 1 0 0 1-.616 1.154A73.013 73.013 0 0 1 37 71.979z"></path>
    <path d="M52.19 70.291a1 1 0 0 1-.961-.722l-4.141-14.29a1 1 0 0 1 1.922-.557l4.141 14.29a1 1 0 0 1-.961 1.279zm-6.721 1.179a1 1 0 0 1-.981-.814l-3.83-20.22a1 1 0 1 1 1.965-.372l3.83 20.22a1 1 0 0 1-.8 1.168.99.99 0 0 1-.184.018zm-23.998-1.25a1 1 0 0 1-.974-1.232l3.391-14.22a1 1 0 1 1 1.945.464l-3.391 14.22a1 1 0 0 1-.971.768zm5.929 1.1a1.02 1.02 0 0 1-.166-.014 1 1 0 0 1-.821-1.151l3.35-20.07a1 1 0 1 1 1.973.329l-3.35 20.07a1 1 0 0 1-.986.836zM37 72a1 1 0 0 1-1-1V56.8a1 1 0 0 1 2 0V71a1 1 0 0 1-1 1zm14.9-60.562a1 1 0 0 1-1-1V3a1 1 0 0 1 2 0v7.438a1 1 0 0 1-1 1zm-29.8 0a1 1 0 0 1-1-1V3a1 1 0 0 1 2 0v7.438a1 1 0 0 1-1 1z"></path>
  </symbol>
</svg>