<svg width="0" height="0" class="hidden">
  <symbol xmlns="http://www.w3.org/2000/svg" viewBox="0 0 1024 1024" id="curtains">
    <title></title>
    <path d="M1002.666 0H21.334C9.542 0 0 9.542 0 21.334v85.334C0 118.458 9.542 128 21.334 128h21.334v874.666C42.666 1014.458 52.208 1024 64 1024c28.354 0 42.834-16.542 53.416-28.604 9.312-10.626 13.02-14.062 21.354-14.062 8.312 0 12.02 3.438 21.334 14.062 10.584 12.062 25.062 28.604 53.438 28.604 28.354 0 43.416-17.23 53.396-28.626 9.27-10.604 12.98-14.042 21.25-14.042 8.23 0 11.916 3.438 21.188 14.042 9.938 11.396 24.98 28.626 53.292 28.626 7.396 0 14.25-3.834 18.146-10.126s4.25-14.146.938-20.75L219.294 668.208c77.854-57.75 131.834-144.126 149.208-239.75L423.128 128h177.744L655.5 428.458c17.376 95.626 71.354 182 149.188 239.73l-162.52 324.166c-1.938 3.854-2.562 8.98-1.958 13.25 1.458 10.542 10.48 18.396 21.126 18.396 28.354 0 42.834-16.542 53.416-28.604 9.312-10.626 13.02-14.062 21.354-14.062 8.312 0 12.02 3.438 21.334 14.062 10.58 12.062 25.06 28.604 53.436 28.604 28.354 0 43.416-17.23 53.396-28.626 9.27-10.604 12.98-14.042 21.25-14.042 8.23 0 11.916 3.438 21.188 14.042C916.646 1006.77 931.688 1024 960 1024c11.792 0 21.334-9.542 21.334-21.334V128h21.334c11.79 0 21.332-9.542 21.332-21.334V21.334C1024 9.542 1014.458 0 1002.666 0zM308.5 942.02c-5.896-2.084-12.626-3.354-20.312-3.354-28.334 0-43.396 17.23-53.376 28.626-9.27 10.604-12.98 14.042-21.27 14.042-8.334 0-12.042-3.438-21.354-14.062-10.584-12.062-25.062-28.604-53.416-28.604-28.376 0-42.854 16.542-53.438 28.604v-300.03c28.99 11.222 66.588 14.5 93.378 15.218L308.5 942.02zm18.042-521.186c-16.08 88.422-67.55 167.744-141.304 218.98-50.684-.986-95.536-12.154-99.904-21.146V128h294.448l-53.24 292.834zm612.124 546.27c-9.958-11.396-24.98-28.438-53.146-28.438-28.334 0-43.396 17.23-53.376 28.626-9.27 10.604-12.98 14.042-21.27 14.042-8.334 0-12.042-3.438-21.354-14.062-10.584-12.062-25.062-28.604-53.416-28.604-8.062 0-15.02 1.334-21.062 3.52l130.222-259.726c26.786-.716 64.404-3.994 93.404-15.218v299.86zm0-348.77c-4.742 9.394-49.404 20.494-99.904 21.48-73.756-51.234-125.224-130.558-141.304-218.98L644.218 128h294.448v490.334zm42.668-533H42.666V42.666h938.666v42.668z"></path>
  </symbol>
  <symbol xmlns="http://www.w3.org/2000/svg" viewBox="0 0 1024 1024" id="carpet">
    <title></title>
    <path d="M1002.666 213.334h-206.45c.906-19.46.01-39.024-4.758-58.126C774.582 87.75 725.166 34.374 659.166 12.332l-5.876-1.958C632.666 3.5 611.126 0 585.876 0 519.21 0 456.918 32.792 419.25 87.584L54.372 610.804c-5.558 7.112-10.7 14.536-15.494 22.222l-2.628 3.766.236.164C13.48 675.346 0 720.076 0 768c0 141.166 114.834 256 256 256h277.332c11.792 0 21.334-9.542 21.334-21.334s-9.542-21.334-21.334-21.334h-4.622L580.86 896h37.808c11.792 0 21.334-9.542 21.334-21.334s-9.542-21.334-21.334-21.334h-11.734L659.08 768H704c11.792 0 21.334-9.542 21.334-21.334s-9.542-21.334-21.334-21.334h-18.844L737.302 640H768c11.792 0 21.334-9.542 21.334-21.334s-9.542-21.334-21.334-21.334h-4.622L815.526 512h37.808c11.792 0 21.334-9.542 21.334-21.334s-9.542-21.334-21.334-21.334H841.6L893.748 384h23.586c11.792 0 21.334-9.542 21.334-21.334 0-11.006-8.422-19.732-19.118-20.888L971.968 256h30.698c11.792 0 21.334-9.542 21.334-21.334 0-11.79-9.542-21.332-21.334-21.332zM454.334 111.876c29.792-43.334 78.958-69.208 134.958-69.208 17.25 0 34.208 2.75 50.5 8.208l5.876 1.958c52.084 17.376 91.084 59.5 104.376 112.708 10.416 41.626 3.416 86.458-19.166 122.834L467.542 707.61C458.362 598.388 367.554 512 256 512c-32.87 0-64.204 6.448-93.098 17.782l291.432-417.906zm24.374 869.458H256c-117.626 0-213.334-95.708-213.334-213.334 0-42.144 12.672-81.226 33.852-114.348l7.434-10.658c38.826-53.268 101.24-88.326 172.046-88.326 94.126 0 170.666 76.542 170.666 170.666S350.126 896 256 896c-70.584 0-128-57.416-128-128s57.416-128 128-128c5.75 0 11.334.584 16.75 1.666L244.166 683.5c-41.458 5.75-73.5 41.458-73.5 84.5 0 47.042 38.292 85.334 85.334 85.334 70.584 0 128-57.416 128-128s-57.416-128-128-128c-94.126 0-170.666 76.542-170.666 170.666S161.876 938.666 256 938.666c82.81 0 153.96-47.924 189.296-117.05l.744.466 321.042-511.126c10.57-17.054 17.486-35.774 22.562-54.958h132.312L478.708 981.334zM273.626 716.042l37.876-55.5c18.25 15.666 29.834 38.916 29.834 64.792 0 47.042-38.292 85.334-85.334 85.334-23.542 0-42.666-19.126-42.666-42.666 0-23.542 19.126-42.666 42.666-42.666 7.04-.002 13.624-3.502 17.624-9.294z"></path>
  </symbol>
  <symbol xmlns="http://www.w3.org/2000/svg" viewBox="0 0 1024 1024" id="bucket">
    <title></title>
    <path d="M214.248 378.36c-1.213-7.202-7.402-12.619-14.857-12.619-8.315 0-15.055 6.74-15.055 15.055 0 1.074.113 2.123.327 3.134l-.017-.098 30.437 164.761c1.339 7.056 7.458 12.32 14.805 12.32 8.316 0 15.056-6.74 15.056-15.056 0-.967-.091-1.913-.266-2.829l.015.094zm606.593-247.124c22.568 0 40.863-18.295 40.863-40.863S843.409 49.51 820.841 49.51c-22.568 0-40.863 18.295-40.863 40.863.029 22.557 18.307 40.834 40.86 40.863h.003zm0-51.617c5.939 0 10.754 4.814 10.754 10.754s-4.814 10.754-10.754 10.754c-5.939 0-10.754-4.814-10.754-10.754.01-5.935 4.819-10.744 10.752-10.754h.001zm-109.54 2.108c22.568 0 40.863-18.295 40.863-40.863S733.869.001 711.301.001c-22.568 0-40.863 18.295-40.863 40.863.029 22.557 18.307 40.834 40.86 40.863h.003zm0-51.617c5.939 0 10.754 4.814 10.754 10.754s-4.814 10.754-10.754 10.754c-5.939 0-10.754-4.814-10.754-10.754.005-5.937 4.816-10.748 10.754-10.754z"></path>
    <path d="M1006.661 195.464h-45.165v-23.658c-.005-8.312-6.742-15.05-15.055-15.055H626.03c-14.541-16.898-34.07-29.136-56.291-34.437l-.728-.146c-17.78-34.817-53.384-58.242-94.459-58.242-8.008 0-15.808.89-23.306 2.578l.707-.133c-17.149-36.776-53.807-61.807-96.312-61.807-56.118 0-102.045 43.632-105.708 98.824l-.017.319c-29.903 10.345-54.804 28.767-72.844 52.659l-.28.386H77.559c-8.312.005-15.05 6.742-15.055 15.055v23.658H17.339c-8.312.005-15.05 6.742-15.055 15.055v136.526l-.001.998c0 126.628 60.233 239.188 153.608 310.592l.942.691 65.072 352.345c1.336 7.06 7.455 12.328 14.805 12.328h550.58c7.348 0 13.466-5.264 14.789-12.226l.015-.094 65.072-352.345c94.319-72.095 154.55-184.653 154.55-311.279l-.001-1.057v.055-136.535c-.005-8.312-6.742-15.05-15.055-15.055zm-166.972 446.89c-51.232 37.424-113.967 62.1-182.052 68.195l-1.411.102v-17.859c-.005-8.312-6.742-15.05-15.055-15.055H382.829c-8.312.005-15.05 6.742-15.055 15.055v17.859c-69.496-6.202-132.229-30.878-184.508-69.025l1.044.727-69.82-378.067h399.66v101.341c.073 65.3 52.989 118.215 118.281 118.289h70.267c65.297-.079 118.21-52.991 118.289-118.281V264.286h88.523zm-441.805 85.28v-19.786h228.232v38.713H397.884zm146.377-540.755h246.617v178.749c-.059 48.676-39.503 88.12-88.173 88.179h-70.264c-48.678-.054-88.125-39.501-88.179-88.173v-.005zm387.126 47.315h-110.4v-47.315h110.4zM268.704 129.541c6.582-1.709 11.364-7.597 11.364-14.602 0-.311-.01-.619-.028-.925l.002.042-.129-1.721c0-.585-.103-1.179-.103-1.721.002-41.889 33.961-75.847 75.851-75.847 34.223 0 63.152 22.664 72.597 53.803l.14.538c1.909 6.286 7.654 10.784 14.449 10.784a15.02 15.02 0 0 0 5.44-1.012l-.103.035c7.8-3.039 16.828-4.8 26.268-4.8h.087-.004.217c31.452 0 58.404 19.263 69.703 46.635l.183.501c2.041 4.835 6.398 8.332 11.643 9.125l.083.011c7.862 1.189 14.945 3.409 21.507 6.546l-.456-.197H217.491a121.624 121.624 0 0 1 50.364-27.005l.848-.188zm-176.091 57.32H514.15v47.315H92.613zM32.394 347.046V225.574h30.11v23.658c.005 8.312 6.742 15.05 15.055 15.055h6.314l64.358 348.491C76.901 546.777 32.392 452.674 32.392 348.177l.002-1.193v.061zM774.755 993.89H249.244l-57.32-310.32c50.239 31.281 110.157 51.899 174.413 57.225l1.437.096v20.724c.005 8.312 6.742 15.05 15.055 15.055h258.342c8.312-.005 15.05-6.742 15.055-15.055v-20.724c65.693-5.421 125.611-26.039 177.54-58.299l-1.69.979zm216.851-646.844l.002 1.124c0 104.499-44.508 198.604-115.601 264.391l-.238.217 64.358-348.491h6.314c8.312-.005 15.05-6.742 15.055-15.055v-23.658h30.11z"></path>
  </symbol>
  <symbol xmlns="http://www.w3.org/2000/svg" viewBox="0 0 1024 1024" id="bed">
    <title></title>
    <path d="M1007.482 693.677h-16.516V561.548c-.05-36.467-29.598-66.015-66.059-66.064h-.005V214.71c-.05-36.467-29.598-66.015-66.059-66.064H165.161c-36.467.05-66.015 29.598-66.064 66.059v280.779c-36.467.05-66.015 29.598-66.064 66.059v132.134H16.517c-9.122 0-16.516 7.394-16.516 16.516v66.064c0 9.122 7.394 16.516 16.516 16.516h16.516v66.064c0 9.122 7.394 16.516 16.516 16.516h49.556c7.97 0 14.621-5.653 16.16-13.169l.019-.106 13.874-69.306h765.687l13.874 69.306c1.558 7.622 8.207 13.275 16.178 13.275h49.556c9.122 0 16.516-7.394 16.516-16.516v-66.064h16.516c9.122 0 16.516-7.394 16.516-16.516v-66.064c0-9.122-7.394-16.516-16.516-16.516zM132.128 214.71c.025-18.234 14.799-33.007 33.03-33.032h693.679c18.234.025 33.007 14.799 33.032 33.03v280.776h-33.032V429.42c-.05-36.467-29.598-66.015-66.059-66.064H594.579c-36.467.05-66.015 29.598-66.064 66.059v66.07h-33.032v-66.064c-.05-36.467-29.598-66.015-66.059-66.064H231.225c-36.467.05-66.015 29.598-66.064 66.059v66.07h-33.032zm693.677 214.709v66.064H561.547v-66.064c.025-18.234 14.799-33.007 33.03-33.032h198.195c18.234.025 33.007 14.799 33.032 33.03v.002zm-363.354 0v66.064H198.193v-66.064c.025-18.234 14.799-33.007 33.03-33.032h198.195c18.234.025 33.007 14.799 33.032 33.03v.002zM66.064 561.548c.025-18.234 14.799-33.007 33.03-33.032h825.808c18.234.025 33.007 14.799 33.032 33.03v132.131H66.064zm19.489 280.774H66.064v-49.548h29.399zm872.381 0h-19.489l-9.91-49.548h29.399zm33.032-82.58H33.031V726.71h957.935z"></path>
  </symbol>
  <symbol xmlns="http://www.w3.org/2000/svg" viewBox="0 0 1024 1024" id="wash">
    <title></title>
    <path d="M1006.824 171.13c-10.958-2.416-22.75 5.124-25.084 16.728l-29.333 146.653c-12.422-6.382-22.244-16.588-33.499-28.869-20.25-22.102-45.457-49.601-93.956-49.601s-73.665 27.498-93.914 49.601c-18.25 19.958-32.707 35.727-62.375 35.727-29.707 0-44.125-15.77-62.415-35.727-20.25-22.102-45.457-49.601-93.956-49.601-48.457 0-73.665 27.498-93.874 49.579-18.334 19.978-32.791 35.747-62.499 35.747-29.749 0-44.249-15.77-62.583-35.747-20.25-22.082-45.499-49.579-94.04-49.579s-73.749 27.478-93.998 49.579c-11.316 12.318-21.184 22.564-33.697 28.945L42.26 187.858c-2.334-11.604-14.126-19.166-25.084-16.728-11.584 2.312-19.084 13.54-16.75 25.102l117.706 588.496c7.958 39.747 43.165 68.599 83.665 68.599h620.405c40.499 0 75.707-28.851 83.665-68.599l117.706-588.496c2.338-11.56-5.162-22.79-16.746-25.102zM864.035 776.355c-4 19.874-21.584 34.309-41.833 34.309H201.797c-20.25 0-37.833-14.436-41.833-34.309L80.135 377.228c25.172-9.294 41.835-26.704 56.579-42.777 18.334-19.978 32.833-35.747 62.583-35.747 29.791 0 44.291 15.79 62.625 35.767 20.25 22.082 45.499 49.559 93.998 49.559s73.707-27.498 93.956-49.601c18.292-19.958 32.707-35.727 62.415-35.727s44.165 15.77 62.499 35.747c20.208 22.082 45.415 49.579 93.874 49.579 48.457 0 73.625-27.498 93.874-49.579 18.292-19.978 32.707-35.747 62.415-35.747s44.165 15.77 62.499 35.747c14.698 16.074 31.327 33.471 56.415 42.765l-79.833 399.141z"></path>
  </symbol>
  <symbol xmlns="http://www.w3.org/2000/svg" viewBox="0 0 1024 1024" id="tshirt">
    <title></title>
    <path d="M1018.474 296.428a19.99 19.99 0 0 0-.728-.728L806.365 107.829a20.083 20.083 0 0 0-6.631-4.019L646.825 49.156c-10.431-3.788-21.957 1.6-25.744 12.031a20.083 20.083 0 0 0-1.18 5.852c0 4.421-6.631 106.293-108.503 107.901-102.475-1.607-108.905-103.48-109.106-107.901-.593-11.081-10.057-19.583-21.138-18.991a20.124 20.124 0 0 0-5.586 1.108L222.86 104.412a20.076 20.076 0 0 0-6.631 4.019L6.255 295.7c-8.045 7.643-8.371 20.362-.728 28.407.236.249.48.492.728.728L173.43 493.819v462.145c0 11.096 8.997 20.093 20.093 20.093h636.956c11.096 0 20.093-8.997 20.093-20.093V493.819l167.175-168.984c8.045-7.643 8.371-20.359.728-28.407zM849.968 436.553v-93.232c0-11.096-8.997-20.093-20.093-20.093s-20.093 8.997-20.093 20.093v591.545h-596.97V343.321c0-11.096-8.997-20.093-20.093-20.093s-20.093 8.997-20.093 20.093v93.433L49.053 311.573 240.34 140.379l125.783-45.411c15.582 80.287 93.3 132.743 173.588 117.161 59.293-11.508 105.653-57.868 117.161-117.161l125.783 45.411L973.34 311.573l-123.372 124.98z"></path>
  </symbol>
  <symbol xmlns="http://www.w3.org/2000/svg" viewBox="0 0 1024 1024" id="tie">
    <title></title>
    <path d="M917.822 91.733L849.556 6.4a16.93 16.93 0 0 0-4.881-3.977 12.121 12.121 0 0 0-1.621-.717 17.068 17.068 0 0 0-4.966-1.348c-.341 0-.631-.239-.956-.273s-.256 0-.375 0-.324-.085-.529-.085H186.745c-.137 0-.614.222-.956.273-1.7.228-3.358.71-4.915 1.434-.51.205-1.007.444-1.485.717a16.924 16.924 0 0 0-4.881 3.977h-.085l-68.266 85.333a17.068 17.068 0 0 0-.597 20.48l261.782 369.66a17.065 17.065 0 0 0 12.493 7.151h1.451c4.527 0 8.866-1.801 12.066-5l22.067-22.067 35.533 35.447-58.282 421.849a17.07 17.07 0 0 0 5.956 15.445l102.399 85.333a17.063 17.063 0 0 0 21.879 0l102.399-85.333a17.07 17.07 0 0 0 5.956-15.445l-58.231-421.747 35.533-35.447 22.067 22.067c3.2 3.2 7.539 5 12.066 5h1.451a17.067 17.067 0 0 0 12.493-7.151L918.42 112.265a17.064 17.064 0 0 0-.597-20.531zm-122.794-57.6L511.964 317.197 228.9 34.133h566.13zM383.47 445.691L140.785 103.03l48.332-60.364 298.714 298.663-104.362 104.362zm212.7 468.851l-84.206 70.195-84.206-70.16 53.486-386.846 18.773 18.773c6.664 6.662 17.468 6.662 24.132 0l18.773-18.773 53.248 386.812zm-84.206-404.254l-72.447-72.311 72.447-72.516 72.447 72.447-72.447 72.379zm128.494-64.528L536.096 341.33 834.759 42.667l48.332 60.415L640.457 445.76z"></path>
  </symbol>
  <symbol xmlns="http://www.w3.org/2000/svg" viewBox="0 0 1024 1024" id="teddy-bear">
    <title></title>
    <path d="M424.112 255.188c0-8.284-6.714-15-15-15s-15 6.716-15 15v40.749c0 8.284 6.714 15 15 15s15-6.716 15-15zm190.776-15c-8.286 0-15 6.716-15 15v40.749c0 8.284 6.714 15 15 15s15-6.716 15-15v-40.749c0-8.284-6.714-15-15-15zm-44.555 85.507c-19.626-9.244-97.042-9.244-116.667 0-15.138 7.132-25.305 20.44-28.625 37.475-2.696 13.828-.792 29.247 5.36 43.413 8.524 19.63 23.983 34.667 44.707 43.487 7.048 2.998 14.408 5.078 21.891 6.274v21.671c0 8.284 6.714 15 15 15s15-6.716 15-15v-21.671c7.482-1.196 14.844-3.276 21.891-6.274 20.722-8.818 36.183-23.857 44.707-43.485 6.15-14.166 8.054-29.585 5.36-43.413-3.32-17.034-13.486-30.345-28.625-37.477zm-4.256 68.939c-5.482 12.628-15.216 21.993-28.933 27.829-15.976 6.8-34.305 6.802-50.291 0-13.714-5.836-23.451-15.2-28.933-27.831-5.474-12.608-7.72-34.143 8.52-41.793 5.96-2.696 25.761-4.044 45.557-4.044 19.792 0 39.585 1.348 45.551 4.042 16.248 7.656 14.002 29.189 8.528 41.797z"></path>
    <path d="M880.288 176.378c11.92-36.157 5.442-76.364-17.774-110.317C836.353 27.802 792.602 2.584 748.335.245c-66.756-3.512-101.65 31.251-128.379 69.912-33.763-10.38-70.102-16.052-107.955-16.052-37.895 0-74.272 5.684-108.067 16.086-14.54-20.91-29.959-38.821-49.861-51.441-6.994-4.438-16.262-2.364-20.702 4.632-4.436 6.996-2.362 16.264 4.634 20.702 13.744 8.718 25.415 21.443 36.549 36.595-71.512 29.195-128.623 80.42-159.422 143.441-18.998-14.038-34.647-32.029-42.925-57.135-9.102-27.605-4.114-57.431 14.044-83.988 20.998-30.709 55.865-50.935 90.968-52.789l1.28-.062c8.278-.372 14.684-7.382 14.312-15.658S285.423-.184 277.155.176l-1.492.072C231.4 2.584 187.649 27.803 161.488 66.062c-23.215 33.953-29.695 74.16-17.774 110.315 8.248 25.015 22.369 45.833 43.169 63.641 5.078 4.348 10.548 8.48 16.466 12.508-8.608 24.971-13.252 51.393-13.252 78.738 0 62.337 24.045 119.917 64.546 166.264-37.197 26.971-61.291 61.807-68.478 99.562-7.346 38.597 5.326 75.814 35.725 105.57-2.844 14.66-5.234 32.239-6.184 52.461-.936 19.9-.328 39.403 1.466 58.373-28.089 21.793-46.045 54.859-46.045 91.826 0 64.464 54.599 117.055 122.341 118.653.37.028 436.569.032 436.875.014 28.899-.648 56.741-10.692 78.698-28.503 6.434-5.22 7.418-14.666 2.2-21.1-5.218-6.432-14.66-7.418-21.098-2.2-17.38 14.098-39.673 21.865-62.769 21.865-52.661 0-95.504-39.803-95.504-88.728 0-7.064.9-13.934 2.588-20.524 13.814-10.974 26.263-21.094 35.529-29.047 13.522-11.604 25.689-23.967 36.461-37.003a102.206 102.206 0 0 1 20.924-2.154c52.661 0 95.504 39.803 95.504 88.728 0 5.598-.562 11.192-1.672 16.628-1.656 8.118 3.582 16.04 11.698 17.696 8.126 1.648 16.042-3.582 17.698-11.698a113.348 113.348 0 0 0 2.278-22.627c0-36.997-17.986-70.086-46.113-91.876 2.084-21.991 2.322-41.597 1.534-58.321-.938-19.968-3.28-37.359-6.078-51.909 30.223-29.599 42.873-66.634 35.679-105.094-7.126-38.093-31.315-73.134-68.818-100.27 40.671-46.401 64.826-104.104 64.826-166.584 0-27.359-4.65-53.797-13.268-78.78 25.683-17.542 48.139-41.203 59.649-76.108zM215.636 602.703c7.622-40.049 37.711-67.782 60.165-83.386 10.434 9.706 21.667 18.768 33.593 27.119-2.402 2.024-4.764 4.1-7.03 6.282-5.458 5.256-13.98 12.13-15.506 20.138-1.158 5.428.736 11.288 5.398 14.942a14.923 14.923 0 0 0 10.106 3.156c17.714 2.606 35.805 7.292 53.825 13.998 28.377 10.558 67.102 28.331 75.78 60.627 6.126 22.795-8.872 50.093-31.463 57.273-45.801 14.554-113.037-1.86-153.066-37.369-18.564-16.464-39.149-44.191-31.803-82.782zm79.073 183.939c-17.304.248-33.765 3.82-48.707 10.08-.852-14.152-.89-27.047-.406-38.477a343.847 343.847 0 0 1 3.152-34.287 204.481 204.481 0 0 0 22.423 12.542 275.052 275.052 0 0 0 12.752 30.467 254.173 254.173 0 0 0 10.786 19.674zm1.92 207.411c-52.661 0-95.504-39.803-95.504-88.728s42.843-88.728 95.504-88.728c7.2 0 14.206.77 20.952 2.186 10.764 13.024 22.923 25.375 36.435 36.969 9.268 7.954 21.717 18.074 35.533 29.049a82.457 82.457 0 0 1 2.586 20.522c-.002 48.927-42.843 88.73-95.506 88.73zm347.472 0H379.898c24.673-20.744 40.659-50.521 42.103-83.802 28.193 21.875 56.507 43.355 72.674 55.559 5.1 3.85 11.21 5.774 17.324 5.774 6.112 0 12.224-1.924 17.326-5.774 16.164-12.204 44.477-33.683 72.672-55.559 1.444 33.281 17.43 63.057 42.103 83.802zm69.052-240.311c-14.326 29.169-35.425 55.831-62.709 79.246-33.701 28.923-113.509 89.48-138.445 108.313-24.943-18.836-104.746-79.392-138.445-108.313-27.285-23.415-48.381-50.075-62.709-79.246-.48-.978-.96-2.018-1.442-3.03 17.962 4.842 36.355 7.406 54.057 7.406 16.246 0 31.919-2.154 46.127-6.668 37.553-11.934 61.547-55.695 51.351-93.65-12.276-45.685-59.693-68.086-94.292-80.96a308.206 308.206 0 0 0-34.177-10.512c20.21-15.634 45.511-24.433 71.142-24.433h.276c36.747.09 70.5 16.954 92.606 46.269 3.654 4.842 9.45 7.734 15.504 7.734s11.85-2.892 15.506-7.738c22.105-29.313 55.857-46.177 92.604-46.267h.276c25.885 0 51.445 8.962 71.754 24.891a307.802 307.802 0 0 0-34.665 10.51c-24.897 9.174-56.429 23.249-76.81 47.389-7.974 9.446-14.242 20.434-17.734 33.273-10.316 37.923 13.542 81.76 51.055 93.81 14.368 4.616 30.227 6.816 46.687 6.816 17.572 0 35.819-2.524 53.649-7.284-.386.82-.776 1.652-1.166 2.444zm64.808 42.965c-14.932-6.248-31.379-9.816-48.669-10.064a254.197 254.197 0 0 0 10.788-19.674 275.316 275.316 0 0 0 12.526-29.783c7.868-3.76 15.464-7.978 22.669-12.624 2.77 19.792 4.32 44.053 2.686 72.146zm30.447-193.07c7.222 38.615-13.45 66.278-32.061 82.682-40.145 35.383-107.427 51.583-153.186 36.885-22.569-7.25-37.479-34.595-31.283-57.373 8.78-32.269 47.561-49.917 75.968-60.385 18.99-6.998 38.055-11.788 56.665-14.238a15.1 15.1 0 0 0 10.87-7.098c3.352-5.524 2.884-12.302-1.096-17.374a136.176 136.176 0 0 0-12.652-14.014c-2.266-2.182-4.626-4.256-7.026-6.28 11.802-8.264 22.921-17.226 33.263-26.821 23.021 15.956 53.019 43.827 60.537 84.018zM687.75 528.463c-20.706-10.736-43.931-16.57-67.366-16.57h-.348c-41.761.102-80.45 17.43-108.037 47.973-27.587-30.543-66.278-47.871-108.037-47.973h-.348c-23.431 0-46.651 5.832-67.356 16.564-70.506-45.161-116.163-116.739-116.163-197.193 0-136.285 130.947-247.161 291.904-247.161s291.904 110.875 291.904 247.161c0 80.454-45.649 152.038-116.153 197.199zm121.052-304.488C777.989 161.02 720.91 109.852 649.456 80.68c24.881-33.887 50.375-52.949 97.298-50.475 35.129 1.854 69.996 22.083 90.994 52.791 18.158 26.557 23.147 56.383 14.044 83.988-5.976 18.128-15.952 37.249-42.991 56.991z"></path>
  </symbol>
  <symbol xmlns="http://www.w3.org/2000/svg" viewBox="0 0 1024 1024" id="suitcase">
    <title></title>
    <path d="M978 270.024H818.64l-17.304-84.696C785.913 112.82 722.516 59.179 646.552 58.96h-269.08c-75.997.223-139.398 53.878-154.623 125.362l-.185 1.038-17.304 84.664H46c-25.384.032-45.955 20.594-46 45.972V919.04c.027 25.394 20.606 45.973 45.997 46H978c25.394-.027 45.973-20.606 46-45.997V316c-.045-25.382-20.616-45.944-45.997-45.976H978zm-727.896-79.088c12.677-59.669 64.84-103.817 127.348-104h269.076c62.528.183 114.691 44.331 127.216 103.146l.152.854 16.168 79.096H753.32l-14.688-71.888c-9.168-43.147-46.889-75.069-92.09-75.2h-269.07c-45.215.131-82.936 32.053-91.994 74.582l-.11.618-14.688 71.888h-36.744zm474.632 79.088H299.264l13.536-66.28c6.435-30.294 32.919-52.708 64.654-52.8h269.074c31.745.092 58.229 22.505 64.587 52.366l.077.434zM28 316c.014-9.936 8.064-17.986 17.999-18H978c9.936.014 17.986 8.064 18 17.999V470.4c-.086 71.762-58.238 129.914-129.992 130H158c-71.762-.086-129.914-58.238-130-129.992v-.008zm682.496 312.4h74V710c-.005 5.521-4.479 9.995-10 10h-54c-5.519-.009-9.991-4.481-10-9.999V710zm-471 0h74V710c-.005 5.521-4.479 9.995-10 10h-54c-5.519-.009-9.991-4.481-10-9.999V710zM996 919.04c-.014 9.936-8.064 17.986-17.999 18H46c-9.936-.014-17.986-8.064-18-17.999V560c28.841 41.524 76.282 68.374 129.996 68.4h53.5V710c.027 20.976 17.024 37.973 37.997 38h54.003c20.978-.023 37.977-17.022 38-37.998V628.4h341V710c.027 20.976 17.024 37.973 37.997 38h54.003c20.978-.023 37.977-17.022 38-37.998V628.4H866c53.718-.026 101.159-26.876 129.659-67.881L996 560z"></path>
  </symbol>
  <symbol xmlns="http://www.w3.org/2000/svg" viewBox="0 0 1024 1024" id="suit">
    <title></title>
    <path d="M681.742.927c-.007 0-.017-.007-.027-.007l-.12-.041c-.195-.062-.387-.099-.582-.154-.014 0-.027-.007-.041-.007-.267-.075-.535-.161-.809-.223-.099-.027-.202-.048-.302-.072-.247-.055-.497-.086-.744-.127-.267-.048-.528-.099-.788-.134-.093-.014-.188-.021-.281-.034-.274-.034-.548-.048-.815-.065-.247-.014-.49-.041-.73-.048-.093-.007-.195-.007-.288-.007a17.7 17.7 0 0 0-.867.021c-.216.007-.439 0-.658.014-.106.007-.216.021-.322.027-.295.027-.582.069-.87.106-.202.027-.411.041-.617.075-.113.021-.226.041-.343.065-.288.048-.562.12-.843.182-.206.048-.408.086-.61.14-.113.034-.226.058-.343.093-.267.079-.528.175-.795.26-.209.075-.428.134-.637.216-.106.041-.206.075-.315.12-.243.093-.483.209-.723.315-.233.106-.469.209-.696.322-.072.034-.154.062-.226.099-.021.007-.034.021-.048.027-.216.113-.421.24-.634.363-.236.134-.48.267-.713.415-.041.021-.086.048-.127.072-.055.034-.106.062-.161.093-.182.113-.343.247-.517.367-.23.161-.466.322-.685.497-.099.072-.202.14-.295.216-.168.127-.315.274-.473.408-.209.182-.425.36-.627.555-.093.079-.195.161-.288.254-.147.14-.281.302-.428.449-.188.202-.38.394-.562.603-.086.099-.182.195-.267.295-.134.154-.247.322-.373.483-.171.216-.343.435-.504.661-.079.106-.164.216-.243.329-.113.161-.209.343-.322.507a22.39 22.39 0 0 0-.449.723c-.069.113-.14.223-.202.336-.106.188-.188.38-.284.576-.13.247-.257.5-.377.764-.048.099-.099.195-.144.295-.058.14-.103.281-.158.421-.038.086-.069.182-.099.267-.072.182-.154.349-.219.528l-73.458 207.662-15.532-107.307c3.512-1.024 6.702-3.032 9.118-5.883a18.826 18.826 0 0 0 4.218-15.264l-12.568-75.997c-1.501-9.1-9.368-15.772-18.588-15.772h-78.673c-9.22 0-17.091 6.671-18.598 15.772l-12.568 75.997a18.849 18.849 0 0 0 4.221 15.264c2.416 2.851 5.609 4.859 9.121 5.883l-15.84 109.575-71.289-209.711c-.072-.202-.161-.38-.233-.576-.024-.075-.048-.14-.072-.206-.086-.209-.151-.421-.24-.63-.027-.069-.069-.134-.096-.209-.116-.26-.25-.507-.377-.764l-.021-.048c-.144-.288-.281-.569-.442-.843-.14-.254-.298-.49-.452-.737-.007-.007-.014-.021-.021-.027-.123-.195-.23-.401-.36-.589-.051-.072-.11-.14-.164-.216-.168-.24-.356-.469-.535-.702-.14-.182-.274-.373-.425-.555-.058-.062-.116-.12-.171-.188-.195-.216-.394-.421-.596-.637-.219-.226-.435-.463-.668-.682-.216-.202-.442-.394-.661-.589a17.67 17.67 0 0 0-.733-.61c-.247-.195-.504-.367-.761-.548h-.007c-.175-.12-.336-.254-.514-.373-.072-.048-.147-.086-.219-.134-.26-.161-.524-.308-.788-.456-.209-.12-.404-.24-.617-.356a.532.532 0 0 1-.099-.055c-.041-.021-.079-.034-.116-.055-.25-.127-.511-.233-.774-.349-.233-.106-.463-.223-.702-.315-.082-.034-.161-.065-.247-.099-.233-.093-.483-.161-.723-.24-.257-.086-.507-.182-.771-.254-.093-.027-.182-.062-.274-.086-.209-.055-.415-.086-.624-.14a.225.225 0 0 1-.072-.014 16.211 16.211 0 0 0-.822-.188c-.329-.062-.648-.099-.97-.14a18.298 18.298 0 0 0-.863-.106c-.027 0-.048-.007-.072-.007-.288-.021-.576-.027-.863-.034-.007 0-.014-.007-.021-.007-.295-.007-.589-.021-.884-.021h-.014c-.308.007-.61.027-.911.048-.021.007-.038.007-.055.007-.295.021-.582.034-.877.065-.069.007-.134.007-.202.014-.26.034-.528.093-.788.134-.274.048-.555.086-.829.147l-.216.041c-.254.055-.5.14-.75.206-.041.007-.072.021-.106.027-.216.062-.421.093-.637.161l-.188.062c-.007.007-.007.007-.014.007C262.73 26.344 193.26 69.379 143.16 125.379c-52.17 58.317-79.745 126.875-79.745 198.273v519.664c0 10.413 8.436 18.845 18.845 18.845h114.68l-14.747 141.022c-.555 5.314 1.168 10.608 4.742 14.576s8.658 6.229 14 6.229h244.016c.038 0 .072.007.106.007.596 0 1.186-.041 1.775-.093.14-.014.274-.034.415-.048.435-.055.863-.12 1.285-.202.171-.027.343-.062.507-.093.514-.113 1.024-.24 1.518-.387.188-.062.367-.127.552-.195.339-.113.672-.233 1.007-.367.219-.086.442-.188.661-.288.295-.127.582-.267.87-.415.195-.099.394-.202.582-.308a17.996 17.996 0 0 0 1.443-.88c.435-.302.85-.617 1.257-.942a21.47 21.47 0 0 0 1.299-1.165c.086-.079.175-.168.254-.247.373-.373.73-.771 1.066-1.172.021-.027.048-.048.069-.075.367-.449.709-.911 1.035-1.384.062-.086.113-.182.171-.274.24-.36.463-.73.675-1.103a23.36 23.36 0 0 0 .729-1.452c.099-.233.209-.469.308-.709.027-.072.062-.14.089-.216l50.306-129.297 50.416 129.311c.027.069.062.134.089.202.096.24.206.476.312.716.134.288.267.582.415.87.099.195.206.387.308.576.216.38.442.75.675 1.11.062.086.113.182.171.267.326.483.672.942 1.042 1.391.014.014.021.027.034.041.349.415.716.815 1.096 1.206.075.079.154.154.233.233.329.322.675.63 1.024.932.093.079.188.161.281.233.415.343.846.661 1.292.97l.062.041c.442.295.901.569 1.364.829.188.099.37.195.555.288.302.154.6.302.905.435a13.813 13.813 0 0 0 1.672.654c.175.058.343.127.514.182.5.154 1.018.281 1.538.394.168.034.336.069.5.093.428.079.86.147 1.299.202.134.014.267.034.408.048.586.055 1.179.093 1.775.093.034 0 .069-.007.106-.007H826.67a18.84 18.84 0 0 0 18.746-20.805l-14.744-141.022h111.069c10.406 0 18.845-8.432 18.845-18.845V323.667c0-71.183-27.356-139.631-79.115-197.934C831.676 69.647 762.621 26.499 681.745.931zm-28.103 181.861c-.185.182-.339.38-.511.569-.26.281-.535.562-.785.863-.069.079-.12.175-.188.254-5.04 6.397-5.359 15.306-.929 22.011.134.209.295.394.442.596.219.315.435.63.678.929.192.226.404.449.613.675.223.247.439.507.682.75l54.757 54.76-195.495 286.174-3.306-4.838 85.049-240.443.048-.12 84.367-238.5 30.704 60.174-56.127 56.144zm-281.472 26.654h.007a18.876 18.876 0 0 0 2.786-3.574 18.817 18.817 0 0 0 2.642-7.929c0-.007.003-.014.007-.021a19.93 19.93 0 0 0 .082-2.028 18.792 18.792 0 0 0-5.513-13.102l-56.144-56.148 30.354-59.492 143.325 421.591-6.452 18.235-165.863-242.78 54.77-54.753zM488.649 37.695h46.708l6.335 38.307h-59.375l6.332-38.307zm4.17 75.997h38.372l26.482 182.937-47.661 134.725-44.286-130.264 27.092-187.398zM236.595 845.281v-.048l20.767-198.554c.14-1.384.134-2.779-.027-4.156l-37.69-321.055c-1.213-10.341-10.587-17.735-20.915-16.522-10.337 1.216-17.735 10.581-16.522 20.915l37.45 318.982-18.787 179.644h-99.776V323.665c0-113.533 81.085-216.163 210.194-270.656l-35.055 68.705c-.048.099-.082.202-.134.295a21.19 21.19 0 0 0-.61 1.371c-.079.209-.147.415-.219.63-.127.363-.257.723-.36 1.09-.086.302-.154.61-.226.911-.062.281-.134.562-.188.843-.065.356-.106.716-.154 1.076-.027.233-.069.476-.086.709-.034.367-.041.744-.055 1.117-.007.233-.017.469-.014.702 0 .356.027.702.048 1.052.021.26.034.528.062.788.034.308.086.617.134.918.048.308.093.61.154.911.055.26.127.521.192.778.082.343.171.675.274 1.011.072.226.158.449.236.668.12.356.247.702.391 1.045.089.219.199.435.305.648.154.329.305.654.476.977.14.254.288.497.439.737.164.274.319.541.497.802.209.315.445.617.672.915.14.182.267.37.415.541.308.38.644.744.99 1.096.079.086.147.175.226.254l52.499 52.506-52.502 52.495c-.027.027-.051.062-.075.086-.319.322-.61.654-.905.997-.12.14-.247.274-.36.415-.267.329-.5.668-.744 1.004-.12.182-.257.349-.373.528-.188.288-.349.582-.521.877-.14.247-.295.49-.421.744-.12.226-.216.463-.322.689-.154.329-.315.654-.449.99-.072.175-.12.349-.188.528-.14.394-.288.788-.408 1.192-.048.175-.079.349-.127.521-.106.408-.216.815-.291 1.23-.051.247-.072.497-.11.75-.048.343-.106.675-.14 1.018-.034.373-.041.75-.055 1.117-.007.226-.027.449-.027.675 0 .449.031.891.062 1.34.014.154.014.308.027.456.041.442.113.877.188 1.312.027.161.045.329.072.49.072.373.178.744.274 1.11.062.226.103.456.175.682.082.288.195.569.295.85.106.308.209.617.336.918.086.216.195.421.288.63.168.36.329.73.521 1.083.093.175.209.343.305.514.216.373.432.744.678 1.11.021.034.041.069.062.099l216.605 317.046v237.626l-61.894 159.086H221.847l14.751-141.029zm686.299-20.798h-96.168l-18.783-179.644 37.443-318.982c1.213-10.334-6.185-19.695-16.519-20.915-10.33-1.213-19.698 6.185-20.915 16.522l-37.687 321.055a18.689 18.689 0 0 0-.027 4.156l20.76 198.541c0 .027.007.048.007.072l14.747 141.015H593.777L531.753 827.21V589.591l216.584-317.046c.027-.034.041-.069.062-.093.254-.38.483-.771.702-1.151.093-.161.195-.315.281-.476.202-.373.373-.757.548-1.138.086-.195.185-.38.264-.576.134-.322.236-.648.353-.977.093-.26.202-.521.281-.788.072-.247.127-.5.188-.757.089-.343.188-.682.254-1.031.041-.195.058-.387.086-.582.069-.408.14-.815.182-1.223.014-.188.014-.373.027-.562.027-.408.062-.822.062-1.23 0-.267-.027-.535-.034-.802-.014-.329-.021-.654-.048-.983a21.91 21.91 0 0 0-.161-1.158c-.034-.209-.055-.415-.093-.617-.082-.456-.202-.898-.315-1.347-.041-.134-.065-.274-.099-.408a16.612 16.612 0 0 0-.442-1.278c-.055-.147-.093-.295-.154-.442-.14-.36-.315-.709-.476-1.059-.099-.209-.188-.421-.291-.624-.137-.267-.302-.528-.452-.788-.164-.274-.315-.562-.497-.829-.12-.195-.267-.373-.394-.555a15.75 15.75 0 0 0-.72-.977c-.123-.154-.257-.295-.384-.442-.284-.329-.569-.661-.884-.977-.027-.027-.051-.062-.079-.086l-52.485-52.485 52.495-52.499c.086-.086.161-.182.24-.274.343-.349.668-.702.977-1.079.147-.175.278-.367.415-.548.233-.302.463-.596.668-.911.178-.26.336-.535.5-.809.147-.24.295-.483.428-.73.175-.322.329-.648.483-.977.099-.216.209-.435.302-.648.147-.343.271-.696.394-1.045.079-.219.168-.449.233-.668.106-.336.188-.675.274-1.011.069-.26.134-.514.192-.778.065-.302.106-.603.158-.905.048-.308.099-.617.134-.925.027-.26.041-.521.055-.785.027-.356.048-.702.055-1.059 0-.233-.014-.469-.021-.702-.007-.373-.021-.75-.055-1.117-.021-.24-.055-.476-.079-.709-.048-.36-.093-.723-.161-1.083-.051-.274-.12-.555-.188-.829a15.48 15.48 0 0 0-.219-.925 21.79 21.79 0 0 0-.36-1.083c-.072-.206-.14-.421-.219-.634a18.063 18.063 0 0 0-.61-1.353c-.051-.106-.086-.209-.14-.308l-.055-.106-.072-.147-34.805-68.205c127.934 54.702 208.258 157.205 208.258 270.41v500.819z"></path>
  </symbol>
  <symbol xmlns="http://www.w3.org/2000/svg" viewBox="0 0 1024 1024" id="shoe">
    <title></title>
    <path d="M961.146 348.085l-7.202-14.421c-4.218-8.429-14.47-11.844-22.899-7.627a17.11 17.11 0 0 0-3.486 2.319c-61.903 52.772-153.282 51.671-213.897-2.577l-53.709-48.35a17.068 17.068 0 0 0-20.48-1.707l-57.003 35.994-19.371-30.72-28.911 18.227 19.388 30.72-28.86 18.21-19.371-30.72-28.86 18.244 19.371 30.72-28.843 18.227-19.371-30.72-28.877 18.227 19.371 30.72-28.877 18.176-19.371-30.72-28.843 18.33 18.893 29.901-17.886 11.571c-1.877 1.212-3.413 2.731-5.239 4.079l-39.151 24.73-250.88 55.74C27.661 543.187-.177 577.903 0 617.945v115.9c0 9.425 7.642 17.067 17.067 17.067H460.8a17.017 17.017 0 0 0 3.413-.341l235.52-47.123v30.396c0 9.425 7.642 17.067 17.067 17.067h290.133c9.425 0 17.067-7.642 17.067-17.067V614.377a598.485 598.485 0 0 0-62.857-266.291zm2.987 98.733a564.765 564.765 0 0 1 25.461 150.443H744.928c23.313-38.007 84.924-113.154 219.204-150.443zM34.136 617.946c-.113-24.038 16.602-44.879 40.09-49.988l249.634-55.467a84.796 84.796 0 0 0 5.393 40.858l13.295 33.229a16.945 16.945 0 0 0 19.422 10.342l118.596-25.412c53.579-11.539 109.37 4.629 148.48 43.025l-169.95 33.98H34.136v-30.566zm665.6 50.703l-240.64 48.128H34.136v-34.133h426.667a17.017 17.017 0 0 0 3.413-.341l235.52-47.121v33.468zm5.12-69.274l-36.403 7.27c-46.81-57.862-122.255-84.371-194.97-68.506l-104.585 22.394-7.953-19.866c-8.068-20.367-2.285-43.612 14.387-57.822l23.313-14.729 17.067 27.051 28.877-18.261-17.067-27.051 28.843-18.176 17.067 27.051 28.86-18.244-17.067-27.051 28.86-18.227 17.067 27.051 28.843-18.244-17.067-27.017 28.809-18.229 17.067 27.034 29.013-18.227-17.067-27.051 46.08-29.013 44.1 39.697c67.315 60.275 167.021 66.98 241.801 16.265 7.526 15.36 14.199 31.181 20.292 47.206-170.906 48.028-233.165 153.173-248.166 184.695zM989.87 716.779h-256v-85.333h256v85.333z"></path>
  </symbol>
  <symbol xmlns="http://www.w3.org/2000/svg" viewBox="0 0 1024 1024" id="shirt">
    <title></title>
    <path d="M891.96 836.988c8.232 0 14.902-6.672 14.902-14.902V231.933a64.472 64.472 0 0 0-53.434-63.61L753.04 150.735c-10.486-40.702-33.2-74.886-67.218-100.506C642.196 17.369 582.364.001 512.798.001s-129.4 17.368-173.026 50.228c-33.966 25.582-56.662 59.702-67.168 100.324l-101.99 17.792a64.462 64.462 0 0 0-53.478 63.616v747.331c0 24.652 20.056 44.708 44.708 44.708h700.315c24.652 0 44.708-20.056 44.708-44.708v-86.048c0-8.23-6.672-14.902-14.902-14.902s-14.902 6.672-14.902 14.902v86.048c0 8.218-6.684 14.902-14.902 14.902H596.478V481.137l41.482 38.872a34.58 34.58 0 0 0 32.9 8.182c11.732-3.19 20.788-12.056 24.228-23.716l54.916-186.18c11.346-34.084 9.886-77.162 9.714-112.826 0-8.012-.39-15.85-1.158-23.506l89.726 15.72a34.715 34.715 0 0 1 28.772 34.25v590.151c0 8.232 6.67 14.904 14.902 14.904zM512.797 29.806c104.184 0 215.436 45.482 217.076 172.818l-1.646 4.012c-35.672-70.816-113.72-112.128-215.43-112.128-80.532 0-147.91 26.232-189.722 73.864-5.43 6.186-4.816 15.602 1.37 21.03 6.186 5.432 15.602 4.818 21.03-1.368 36.07-41.092 95.492-63.722 167.322-63.722 98.824 0 171.846 42.88 197.008 115.122-10.508 13.732-23.66 25.418-38.708 34.12l-158.3 91.528-158.3-91.528c-25.088-14.506-44.964-37.262-55.96-64.072l-2.814-6.86c1.64-127.334 112.89-172.816 217.074-172.816zM367.255 498.261c-1.76 1.65-3.696 1.44-4.7 1.168-1-.272-2.776-1.074-3.46-3.386v-.002l-54.916-186.18a207.834 207.834 0 0 1-8.182-47.412c12.186 14.718 26.95 27.292 43.582 36.908l148.38 85.792c0 .002-117.03 109.67-120.704 113.112zM146.936 979.294v-80.402h179.952c39.822 0 72.22-32.398 72.22-72.22V621.08c0-19.174-15.6-34.772-34.772-34.772H233.92c-8.232 0-14.902 6.672-14.902 14.902s6.672 14.902 14.902 14.902h130.416a4.973 4.973 0 0 1 4.968 4.968v205.59c0 23.388-19.026 42.416-42.414 42.416H146.936V616.114h15.45c8.232 0 14.902-6.672 14.902-14.902s-6.672-14.902-14.902-14.902h-15.45V231.963a34.708 34.708 0 0 1 28.796-34.254l91.32-15.932a235.437 235.437 0 0 0-1.176 23.692c-.166 35.764-1.64 78.648 9.714 112.826l54.916 186.178c3.438 11.662 12.494 20.528 24.226 23.718a34.575 34.575 0 0 0 32.9-8.182l39.882-37.374v511.561H161.839c-8.218 0-14.904-6.684-14.904-14.902zm419.735 14.902H457.323V454.705l55.474-51.984 53.874 50.486zm154.746-684.333l-54.916 186.18c-.684 2.314-2.462 3.116-3.462 3.388s-2.94.482-4.702-1.17l-120.702-113.11 148.38-85.792c16.636-9.618 31.398-22.192 43.584-36.91a207.888 207.888 0 0 1-8.182 47.414z"></path>
    <path d="M533.537 503.261c0 11.896-9.644 21.54-21.54 21.54s-21.54-9.644-21.54-21.54c0-11.896 9.644-21.54 21.54-21.54s21.54 9.644 21.54 21.54zm0 177.202c0 11.896-9.644 21.54-21.54 21.54s-21.54-9.644-21.54-21.54c0-11.896 9.644-21.54 21.54-21.54s21.54 9.644 21.54 21.54zm0 177.203c0 11.896-9.644 21.54-21.54 21.54s-21.54-9.644-21.54-21.54c0-11.896 9.644-21.54 21.54-21.54s21.54 9.644 21.54 21.54z"></path>
  </symbol>
  <symbol xmlns="http://www.w3.org/2000/svg" viewBox="0 0 1024 1024" id="poncho">
    <title></title>
    <path d="M354.98 349.2c8.281 0 15-6.719 15-15v-28.422c0-8.281-6.719-15-15-15-8.289 0-15 6.719-15 15V334.2c0 8.281 6.711 15 15 15zm314.036 0c8.281 0 15-6.719 15-15v-28.422c0-8.281-6.719-15-15-15-8.289 0-15 6.719-15 15V334.2c0 8.281 6.711 15 15 15zm-157.022 15.164c19.43 0 37.672-8.117 50.047-22.273 5.453-6.234 4.82-15.711-1.422-21.164-6.234-5.453-15.711-4.82-21.164 1.422-6.672 7.633-16.687 12.016-27.461 12.016s-20.781-4.375-27.461-12.016c-5.453-6.234-14.93-6.875-21.164-1.422s-6.875 14.93-1.422 21.172c12.375 14.148 30.617 22.265 50.047 22.265z"></path>
    <path d="M895.951 188.757c-33.039-96.906-92.062-154.85-175.443-172.225-27.195-5.656-57.125-12.937-74.664 15.461-19.195 31.086-61.64 89.617-133.85 139.936-72.211-50.32-114.655-108.842-133.842-139.928-17.531-28.383-47.547-21.109-74.671-15.469-83.382 17.375-142.404 75.32-175.443 172.225L.805 561.87a14.984 14.984 0 0 0 1.75 13.211c.977 1.453 15.195 22.398 43.39 54.515v94.367c0 8.289 6.719 15 15 15 8.289 0 15-6.711 15-15v-61.828c14.672 15.203 31.578 31.75 50.812 49.164a1029.233 1029.233 0 0 0 17.391 15.391v65.711c0 8.281 6.719 15 15 15s15-6.719 15-15v-40.648a1135.593 1135.593 0 0 0 68.203 50.82v58.265c0 8.281 6.719 15 15 15 8.289 0 15-6.719 15-15v-38.297a1152.075 1152.075 0 0 0 68.203 40.64v66.086c0 8.289 6.719 15 15 15 8.289 0 15-6.711 15-15v-50.156a1148.603 1148.603 0 0 0 68.203 32.101v86.492c0 8.281 6.719 15 15 15s15-6.719 15-15v-74.07c12.484 4.961 25.195 9.789 38.211 14.422a15.054 15.054 0 0 0 10.07 0c13.016-4.633 25.726-9.461 38.203-14.422v74.07c0 8.281 6.719 15 15 15 8.289 0 15-6.719 15-15v-86.492a1140.432 1140.432 0 0 0 68.203-32.101v50.156c0 8.289 6.719 15 15 15 8.289 0 15-6.711 15-15v-66.086a1152.892 1152.892 0 0 0 68.211-40.64v38.297c0 8.281 6.711 15 15 15 8.281 0 15-6.719 15-15v-58.265c25.07-17.273 47.828-34.406 68.195-50.82v40.648c0 8.281 6.719 15 15 15 8.289 0 15-6.719 15-15V726.69a1057.994 1057.994 0 0 0 17.398-15.391c19.234-17.414 36.133-33.961 50.812-49.164v61.828c0 8.289 6.711 15 15 15 8.281 0 15-6.711 15-15v-94.367c28.195-32.117 42.414-53.062 43.39-54.515a14.981 14.981 0 0 0 1.75-13.211zm-739.515 9.678c29.789-87.375 79.89-137.264 153.154-152.537 12.523-2.602 34.133-12.547 43.031 1.859 21.211 34.336 69.031 100.117 151.053 154.803a15 15 0 0 0 16.641 0c82.023-54.687 129.85-120.459 151.061-154.811 8.531-13.812 30.594-4.437 43.023-1.852 73.273 15.266 123.373 65.164 153.162 152.537l26.484 77.648c-.234.25-.453.492-.68.742-92.374 100.804-205.131 183.037-330.129 238.63-8.773 3.906-47.304 22.57-51.242 21.078-145.272-55.07-276.685-145.115-381.418-259.763-.211-.234-.414-.461-.625-.687zm720.663 490.628C803.99 755.25 681.554 846.639 511.994 907.99c-169.1-61.187-291.318-152.264-364.308-218.209C82.397 630.797 43.858 580.939 31.68 564.275l15.531-45.554c.18.219.375.445.555.664 45.625 55.539 97.57 105.874 153.67 150.756 79.031 63.218 166.975 115.389 260.677 153.693a1031.621 1031.621 0 0 0 44.851 17.148 14.956 14.956 0 0 0 10.07 0c123.225-43.898 236.74-110.303 337.387-197.365 6.266-5.422 6.953-14.891 1.539-21.156-5.289-6.117-14.953-6.906-21.164-1.531-60.281 52.14-125.303 96.656-194.342 133.123a1013.826 1013.826 0 0 1-128.459 56.859c-5.172-1.875-10.289-4.039-15.508-5.781-70.492-26.883-137.826-61.789-200.709-103.445-89.07-59.007-171.037-132.061-236.92-216.373-.062-.07-.117-.148-.18-.227l32.156-94.296c1.07 1.055 2.156 2.094 3.234 3.148 40 39.094 83.351 75.539 128.92 108.327 8.828 6.352 21.336 15.195 30.015 2.867 4.68-6.641 2.984-16.25-3.625-20.906-29.305-20.641-59.382-42.234-85.531-66.851a1084.607 1084.607 0 0 1-62.226-58.25l17.32-50.773c39.304 41.773 82.195 80.085 127.78 114.873 78.96 60.25 166.99 108.662 260.037 143.381a14.992 14.992 0 0 0 10.469 0c52.492-19.531 103.398-43.531 151.912-71.515 84.851-48.922 162.522-109.959 230.209-180.748 1.898-1.992 3.805-3.984 5.695-5.992l17.312 50.781c-.781.789-1.555 1.586-2.336 2.375a1084.125 1084.125 0 0 1-82.945 75.281c-95.757 78.289-202.435 138.701-317.075 179.537a23.927 23.927 0 0 1-16 .008c-71.867-25.601-141.272-59.234-206.287-99.968-7.016-4.398-16.273-2.266-20.672 4.75-4.398 7.023-2.273 16.273 4.75 20.672 66.859 41.89 138.233 76.476 212.162 102.812 11.633 4.148 24.469 4.117 36.101-.008 118.28-41.953 228.904-105.179 326.012-184.576 26.578-21.734 52.515-45 77.086-69.226l32.156 94.296c-.477.609-.961 1.219-1.453 1.836-26.617 33.664-57.211 62.656-85.804 94.429-5.891 5.687-6.039 15.336-.352 21.211 5.539 5.719 15.266 6.102 21.211.344 27.476-26.594 53.57-54.664 77.859-84.203l15.539 45.578c-12.094 16.578-50.226 65.953-115.209 124.78z"></path>
  </symbol>
  <symbol xmlns="http://www.w3.org/2000/svg" viewBox="0 0 1024 1024" id="my-orders">
    <title></title>
    <path d="M138.014 406.994h154.988c11.046 0 19.997-8.951 19.997-19.997S304.048 367 293.002 367H138.014c-11.046 0-19.997 8.951-19.997 19.997s8.951 19.997 19.997 19.997zm0 138.494h154.988c11.046 0 19.997-8.951 19.997-19.997s-8.951-19.997-19.997-19.997H138.014c-11.046 0-19.997 8.951-19.997 19.997s8.951 19.997 19.997 19.997zm191.978 335.236c-4.188-10.063-16.031-14.993-26.112-10.823-10.063 4.17-14.974 16.068-10.805 26.112 4.188 10.063 16.031 14.974 26.094 10.823 10.081-4.133 15.03-16.049 10.823-26.112z"></path>
    <path d="M1018.645 571.248L780.742 315.887l72.833-72.666c12.658-12.509 19.626-29.207 19.626-46.999 0-17.55-6.801-34.063-19.126-46.516-25.501-25.761-67.496-26.094-93.59-.742l-.186.186-99.872 99.631h-37.306v-76.817c0-11.046-8.951-19.997-19.997-19.997H497.21v-16.346c0-11.046-8.951-19.997-19.997-19.997s-19.997 8.951-19.997 19.997v16.346H384.16v-16.346c0-11.046-8.951-19.997-19.997-19.997s-19.997 8.951-19.997 19.997v16.346h-73.093v-16.346c0-11.046-8.951-19.997-19.997-19.997s-19.997 8.951-19.997 19.997v16.346h-73.074v-16.346c0-11.046-8.951-19.997-19.997-19.997s-19.997 8.951-19.997 19.997v16.346H19.992c-11.046 0-19.997 8.951-19.997 19.997v716.413c0 11.046 8.951 19.997 19.997 19.997h204.154c11.046 0 19.997-8.951 19.997-19.997s-8.951-19.997-19.997-19.997H39.988V191.96h78.022v18.143c0 11.046 8.951 19.997 19.997 19.997s19.997-8.951 19.997-19.997V191.96h73.074v18.143c0 11.046 8.951 19.997 19.997 19.997s19.997-8.951 19.997-19.997V191.96h73.074v18.143c0 11.046 8.951 19.997 19.997 19.997s19.997-8.951 19.997-19.997V191.96h73.056v18.143c0 11.046 8.951 19.997 19.997 19.997s19.978-8.951 19.978-19.997V191.96h85.917v56.914c-35.916 1.464-70.239 16.624-95.702 41.958L340.201 438.017c-8.896 8.896-7.246 24.13 3.28 30.931a136.225 136.225 0 0 0 54.56 20.442 138.582 138.582 0 0 0 19.645 1.408h.092l-22.962 22.906a20.032 20.032 0 0 0-3.966 5.689l-64.16 96.37c-5.782 8.691-8.136 18.607-7.283 28.206H137.973c-11.046 0-19.997 8.951-19.997 19.997s8.951 19.997 19.997 19.997h225.245c8.655 0 17.384-2.891 24.518-7.728l97.519-66.272a22.04 22.04 0 0 0 3.244-2.613l45.238-45.126 49.353 49.241v256.898H400.063c-11.046 0-19.997 8.951-19.997 19.997s8.951 19.997 19.997 19.997h203.024c11.046 0 19.997-8.951 19.997-19.997V650.513c25.278 20.998 56.802 32.451 90.105 32.451h79.801c16.587 0 32.692 6.876 44.051 18.774l152.393 161.938c12.121 12.88 34.563 4.003 34.563-13.714V584.853c0-5.041-1.927-9.915-5.356-13.603zM515.707 319.131c19.367-19.367 45.905-30.356 73.297-30.356h31.339L495.73 413.091c-11.527 11.064-22.443 21.924-37.214 28.762-21.794 10.1-47.109 11.712-70.016 4.485L515.708 319.13zm272.725-141.57c10.434-10.045 27.094-9.952 37.214.278a25.973 25.973 0 0 1 7.543 18.366c0 7.024-2.743 13.621-7.802 18.625l-209.01 208.547-10.063-10.081c-9.433-9.433-21.331-16.364-34.193-19.923l216.312-215.811zM365.297 643.174c-1.705 1.167-3.299 1.038-4.8-.445-2.205-2.187-1.093-3.873-.482-4.781l52.262-78.504 30.875 30.82-77.855 52.91zm109.139-78.227l-37.102-37.102 38.103-38.029c3.595 13.029 10.731 24.908 20.256 34.452l9.767 9.73-31.024 30.949zm509.59 234.604L866.103 674.234c-18.977-19.866-45.609-31.264-73.074-31.264h-79.801c-27.02 0-52.429-10.49-71.535-29.559L523.918 495.896c-16.994-12.751-13.195-41.013 0-54.43 14.844-14.437 39.585-14.418 54.097.111l95.683 95.683c7.691 7.691 20.59 7.691 28.281 0 7.802-7.802 7.802-20.479 0-28.281l-57.321-57.321L752.407 344.15l231.601 248.614.018 206.787z"></path>
  </symbol>
  <symbol xmlns="http://www.w3.org/2000/svg" viewBox="0 0 1024 1024" id="leather">
    <title></title>
    <path d="M170.663 546.099c0 124.254-37.067 206.151-113.35 250.386-16.015 9.385-21.633 29.825-12.662 46.077l69.49 125.057c8.34 15.047 26.574 21.535 42.544 15.137 56.316-22.681 247.075-87.171 341.806 34.643a17.064 17.064 0 0 0 26.964 0c94.748-121.797 285.575-57.323 341.823-34.643 15.965 6.388 34.189-.099 42.527-15.137l69.49-125.091c8.969-16.252 3.353-36.692-12.662-46.077-76.283-44.2-113.35-126.098-113.35-250.352 0-135.5 92.154-238.917 120.449-267.434 12.424-12.464 13.261-32.357 1.929-45.821l-69.098-82.939a34.133 34.133 0 0 0-30.718-11.946C713.945 159.206 664.574 64.85 650.87 23.228A33.91 33.91 0 0 0 618.531.002H405.416a33.908 33.908 0 0 0-32.339 23.226C359.425 64.799 309.934 159.223 148.17 138.01a34.133 34.133 0 0 0-30.718 11.946l-69.115 82.956c-11.333 13.464-10.495 33.357 1.929 45.821 28.243 28.448 120.397 131.865 120.397 267.365zm-26.93-374.248c192.465 25.24 248.987-99.219 261.683-137.719l213.046-.222c12.748 38.721 69.32 163.112 261.854 137.821l69.183 82.905c-30.581 30.82-130.346 142.993-130.346 291.463 0 137.48 42.664 229.037 130.312 279.875l-69.439 125.142c-59.371-23.891-255.659-89.867-368.053 29.592-49.695-52.87-115.772-69.405-179.188-69.405a535.885 535.885 0 0 0-188.814 39.694L74.429 825.975c87.7-50.839 130.363-142.395 130.363-279.875 0-148.47-99.765-260.642-130.295-291.411z"></path>
    <path d="M532.931 879.935a278.3 278.3 0 0 0-20.957 12.406c-6.827-4.437-13.806-8.532-20.957-12.406a17.068 17.068 0 0 0-16.058 30.121 242.11 242.11 0 0 1 27.066 16.827 17.067 17.067 0 0 0 19.899 0 242.018 242.018 0 0 1 27.066-16.827c8.317-4.435 11.465-14.772 7.031-23.089s-14.772-11.465-23.089-7.031zm-98.81-23.039a345.519 345.519 0 0 0-59.729-11.604 17.066 17.066 0 1 0-3.584 33.943 310.487 310.487 0 0 1 53.824 10.427c1.55.466 3.16.702 4.779.7 8.509.012 15.727-6.246 16.922-14.67s-4-16.442-12.177-18.796zm-120.107-13.362a513.858 513.858 0 0 0-59.61 6.093c-8.764 1.427-14.97 9.336-14.27 18.188s8.07 15.689 16.95 15.721c.914.008 1.828-.061 2.731-.205a478.89 478.89 0 0 1 55.599-5.7 17.08 17.08 0 0 0 13.729-26.204 17.08 17.08 0 0 0-15.129-7.926zm-118.06 18.517a645.884 645.884 0 0 0-20.155 5.666l-12.577-22.612a299.677 299.677 0 0 0 15.649-15.461c6.402-6.878 6.04-17.637-.81-24.068s-17.61-6.117-24.071.706a265.48 265.48 0 0 1-23.294 21.964 17.068 17.068 0 0 0-3.994 21.401l25.991 46.76a17.061 17.061 0 0 0 20.137 7.952 631.177 631.177 0 0 1 31.827-9.317 17.063 17.063 0 1 0 8.126-28.759 17.062 17.062 0 0 0-16.829-4.229zm41.265-170.127c-8.902-3.096-18.629 1.611-21.725 10.512a313.684 313.684 0 0 1-25.359 55.394c-4.762 8.129-2.035 18.58 6.093 23.345a16.84 16.84 0 0 0 8.532 2.355 17.068 17.068 0 0 0 14.745-8.447 347.428 347.428 0 0 0 28.158-61.436c3.103-8.882-1.569-18.6-10.444-21.725zm-8.533-233.968a389.527 389.527 0 0 1 9.334 60.873c.646 8.942 8.1 15.86 17.066 15.837h1.263a17.067 17.067 0 0 0 15.786-18.261 425.29 425.29 0 0 0-10.154-66.215 17.067 17.067 0 0 0-33.227 7.817zm19.028 204.905a17.067 17.067 0 0 0 16.776-14.045 547.485 547.485 0 0 0 7.561-65.976c.514-9.392-6.669-17.429-16.059-17.97-9.38-.429-17.382 6.723-18.004 16.093a511.161 511.161 0 0 1-7.083 61.846 17.065 17.065 0 0 0 13.789 19.813c.999.163 2.009.243 3.021.239zm-21.827-253.064a17.066 17.066 0 0 0 15.871-23.363 504.978 504.978 0 0 0-28.687-60.105c-4.656-8.113-14.976-10.967-23.138-6.397s-11.124 14.86-6.641 23.069a470.233 470.233 0 0 1 26.724 56.009 17.065 17.065 0 0 0 15.871 10.785zM164.332 253.51l8.805-10.546a413.07 413.07 0 0 0 19.353.461h7.475c9.425-.165 16.932-7.939 16.767-17.364s-7.939-16.932-17.364-16.767h-6.827c-8.43 0-17.066-.29-25.854-.887a17.063 17.063 0 0 0-14.233 6.11l-23.311 27.919a17.066 17.066 0 0 0 0 21.793 540.377 540.377 0 0 1 20.274 26.059c5.561 7.615 16.242 9.281 23.857 3.721s9.281-16.242 3.721-23.857a677.736 677.736 0 0 0-12.662-16.639zm120.5-22.595a16.882 16.882 0 0 0 4.83-.7 270.776 270.776 0 0 0 82.376-40.07c7.638-5.523 9.354-16.193 3.831-23.832s-16.193-9.354-23.832-3.831a236.158 236.158 0 0 1-72.016 34.985c-8.159 2.38-13.324 10.4-12.113 18.814s8.426 14.652 16.926 14.635zM421.8 131.662a17.064 17.064 0 0 0 14.096-7.424 281.372 281.372 0 0 0 13.533-21.844h23.891c9.425 0 17.066-7.64 17.066-17.066s-7.64-17.066-17.066-17.066h-34.131a17.066 17.066 0 0 0-15.188 9.283 251.136 251.136 0 0 1-16.281 27.424 17.066 17.066 0 0 0 14.062 26.691zm128.81-29.267h23.891a281.067 281.067 0 0 0 13.533 21.844 17.065 17.065 0 1 0 28.158-19.267 251.136 251.136 0 0 1-16.281-27.424 17.062 17.062 0 0 0-15.171-9.283h-34.131c-9.425 0-17.066 7.64-17.066 17.066s7.64 17.066 17.066 17.066zm183.608 127.804a16.89 16.89 0 0 0 4.83.717c8.499.017 15.716-6.223 16.926-14.635s-3.954-16.434-12.113-18.814a236.585 236.585 0 0 1-71.982-35.002 17.065 17.065 0 1 0-19.966 27.646 270.13 270.13 0 0 0 82.308 40.087zm89.765 13.158h7.475c6.349 0 12.816-.154 19.37-.461l8.788 10.546a600.057 600.057 0 0 0-12.628 16.639c-5.556 7.615-3.887 18.293 3.729 23.849s18.293 3.887 23.849-3.729a539.55 539.55 0 0 1 20.274-26.042 17.065 17.065 0 0 0 0-21.81l-23.294-27.834a17.202 17.202 0 0 0-14.25-6.11c-8.788.597-17.424.887-25.837.887h-7.185c-9.425-.08-17.131 7.496-17.211 16.921s7.496 17.131 16.921 17.211zm-47.817 419.112c1.012 0 2.023-.086 3.021-.256a17.065 17.065 0 0 0 13.806-19.796 514.767 514.767 0 0 1-7.031-61.846c-.518-9.425-8.579-16.645-18.004-16.127s-16.645 8.579-16.127 18.004a547.786 547.786 0 0 0 7.509 65.959 17.066 17.066 0 0 0 16.827 14.062zm10.563 29.062c-8.899 3.089-13.613 12.805-10.529 21.708a345.338 345.338 0 0 0 28.073 61.436 17.067 17.067 0 1 0 29.455-17.237 313.462 313.462 0 0 1-25.291-55.411c-3.104-8.886-12.815-13.582-21.708-10.495zm5.12-283.338c2 .812 4.139 1.229 6.298 1.229a17.067 17.067 0 0 0 15.871-10.785 469.856 469.856 0 0 1 26.759-55.975c4.357-8.19 1.372-18.361-6.72-22.898s-18.326-1.78-23.042 6.209a502.068 502.068 0 0 0-28.721 60.071c-3.474 8.755.804 18.671 9.556 22.152zm-24.08 125.961h1.263c8.965.023 16.42-6.895 17.066-15.837a389.614 389.614 0 0 1 9.386-60.856 17.065 17.065 0 1 0-33.209-7.833 422.454 422.454 0 0 0-10.239 66.215 17.069 17.069 0 0 0 15.734 18.312zm92.956 310.95l-12.56 22.612a691.585 691.585 0 0 0-20.155-5.666 17.066 17.066 0 1 0-8.703 32.988 634.322 634.322 0 0 1 31.827 9.317c1.689.539 3.45.815 5.222.819a17.065 17.065 0 0 0 14.915-8.771l25.991-46.777a17.065 17.065 0 0 0-3.994-21.384 267.674 267.674 0 0 1-23.294-21.964 17.067 17.067 0 0 0-28.835 6.717 17.066 17.066 0 0 0 3.954 16.645 303.786 303.786 0 0 0 15.632 15.461zm-91.061 4.54a512.027 512.027 0 0 0-59.593-6.11c-9.316-.122-17.106 7.054-17.748 16.349-.385 9.415 6.934 17.36 16.349 17.748a480.82 480.82 0 0 1 55.599 5.7c.897.149 1.804.224 2.714.222 8.879-.033 16.25-6.87 16.95-15.721s-5.507-16.761-14.27-18.188zm-119.937-4.352a345.747 345.747 0 0 0-59.729 11.57 17.07 17.07 0 1 0 9.54 32.783 310.412 310.412 0 0 1 53.841-10.41c9.373-.99 16.169-9.39 15.18-18.764s-9.39-16.169-18.764-15.18zm-188.95-657.57c0 28.275 22.921 51.197 51.197 51.197s51.197-22.921 51.197-51.197c0-28.275-22.921-51.197-51.197-51.197s-51.197 22.921-51.197 51.197zm51.197-17.065c9.425 0 17.066 7.64 17.066 17.066s-7.64 17.066-17.066 17.066-17.066-7.64-17.066-17.066 7.64-17.066 17.066-17.066z"></path>
  </symbol>
  <symbol xmlns="http://www.w3.org/2000/svg" viewBox="0 0 1024 1024" id="jeans">
    <title></title>
    <path d="M819.176 988.962l-51.2-972.8C767.498 7.116 760.006 0 750.926 0H273.058c-9.08 0-16.572 7.116-17.032 16.18l-51.2 972.8c-.478 9.096 6.28 16.982 15.342 17.886l170.666 17.066c8.942.768 17.1-5.342 18.534-14.234L511.99 379.29l102.622 630.392c1.366 8.312 8.568 14.318 16.828 14.318.564 0 1.126-.034 1.724-.086l170.666-17.066c9.064-.904 15.806-8.79 15.346-17.886zm-173.45-.614L528.836 270.32c-1.348-8.26-8.482-14.318-16.844-14.318s-15.496 6.058-16.844 14.336l-116.89 718.028-138.496-13.858 49.494-940.374H734.73l49.494 940.356-138.498 13.858z"></path>
    <path d="M273.058 68.266h477.866V102.4H273.058V68.266z"></path>
    <path d="M494.926 17.066v223.726c-21.504-19.814-34.116-47.838-34.134-78.148V17.066h-34.134v145.578c.034 53.556 29.798 101.718 77.704 125.678a16.935 16.935 0 0 0 7.628 1.81c3.106 0 6.23-.854 8.96-2.542 5.034-3.124 8.106-8.602 8.106-14.524v-256h-34.13zM341.65 82.04l-2.048 10.342c-8.26 41.08-33.928 75.64-70.708 95.352h-12.902v34.134h17.066c2.662 0 5.274-.614 7.646-1.792 48.11-24.116 81.766-68.198 92.382-121.02l2.048-10.41-33.484-6.606zm413.456 105.676c-36.796-19.712-62.464-54.256-70.708-95.284l-2.048-10.41-33.502 6.604 2.066 10.48c10.616 52.754 44.288 96.836 92.364 120.952 2.372 1.194 5 1.81 7.646 1.81h17.066v-34.152h-12.884z"></path>
  </symbol>
  <symbol xmlns="http://www.w3.org/2000/svg" viewBox="0 0 1024 1024" id="iron">
    <title></title>
    <path d="M1023.737 660.909l-45.655-240.71c-5.265-22.258-15.213-41.674-28.793-57.957l.182.224 26.798-26.877c2.743-2.744 4.439-6.534 4.439-10.72s-1.696-7.976-4.439-10.72l-5.202-5.202c17.357-12.83 29.265-32.177 32.107-54.36l.041-.399c.021-.715.031-1.557.031-2.402 0-12.26-2.443-23.95-6.868-34.61l.22.598c-3.09-7.542-5.144-16.277-5.728-25.411l-.012-.243c0-8.379-6.793-15.172-15.172-15.172s-15.172 6.793-15.172 15.172c.515 12.795 3.145 24.828 7.55 35.967l-.259-.741c3.112 7.219 4.992 15.611 5.149 24.423l.001.061c-2.715 14.946-11.291 27.5-23.21 35.423l-.198.124-10.048-10.048c-2.79-2.643-6.567-4.269-10.725-4.269s-7.935 1.626-10.732 4.275l.008-.007-40.532 40.627c-8.544-2.06-18.364-3.259-28.457-3.295H544.032c-261.231 0-453.251 219.703-511.521 440.567h-17.34c-8.379 0-15.172 6.793-15.172 15.172v61.478c0 8.379 6.793 15.172 15.172 15.172h923.512c8.377-.005 15.167-6.795 15.172-15.172v-58.261c.216-.955.342-2.053.347-3.179v-.003c0-50.58 18.276-79.034 59.276-92.256 6.157-2.03 10.521-7.729 10.521-14.448 0-.998-.096-1.973-.281-2.918l.015.095zm-94.935-351.32l15.311 15.311-16.473 16.542c-5.442-4.196-11.57-8.156-18.019-11.594l-.708-.345zM30.346 816.706v-31.133h893.168v31.099zm894.043-61.478H63.846c57.628-206.897 237.38-410.222 480.188-410.222h305.005c26.512.081 50.576 10.497 68.387 27.428l-.042-.04c.13.139.217.295.355.433.338.338.728.59 1.092.867 14.282 13.999 24.672 31.918 29.428 52.017l.145.73 43.132 227.523c-41.468 17.652-63.55 50.953-67.148 101.264z"></path>
    <path d="M648.818 677.234H389.295c-8.379 0-15.172 6.793-15.172 15.172s6.793 15.172 15.172 15.172h259.523c8.379 0 15.172-6.793 15.172-15.172s-6.793-15.172-15.172-15.172zm243.579-238.23c-2.244-12.1-12.41-21.243-24.825-21.897l-.066-.003H600.934c-103.839 0-194.725 70.226-226.162 174.749a14.808 14.808 0 0 0-.644 4.37c0 8.375 6.788 15.164 15.164 15.164h509.789c7.79-.073 14.686-3.84 19.029-9.63l.044-.063c4.207-5.358 6.747-12.2 6.747-19.634a32.02 32.02 0 0 0-.968-7.836l.047.22zM638.215 581.042V538.56h78.133v42.482zm108.477 0v-57.611c0-8.379-6.793-15.172-15.172-15.172H623.043c-8.379 0-15.172 6.793-15.172 15.172v57.628H410.658c32.339-80.69 106.526-133.594 190.277-133.594h262.263l31.211 133.594z"></path>
  </symbol>
  <symbol xmlns="http://www.w3.org/2000/svg" viewBox="0 0 1024 1024" id="hoodie">
    <title></title>
    <path d="M839.789 111.29l-57.481-17.28C770.132 39.905 722.528.08 665.608 0H358.399c-56.928.08-104.532 39.905-116.557 93.21l-.151.8-57.481 17.28c-67.14 17.317-115.945 77.332-115.945 148.747v.176-.01 644.343c0 15.124 6.573 28.713 17.018 38.065l.049.043v64.279c0 9.426 7.641 17.067 17.067 17.067h102.4c9.426 0 17.067-7.641 17.067-17.067v-64.279c10.218-9.156 16.714-22.288 17.038-36.941l.001-.058c9.621 7.109 21.143 12.239 33.653 14.546l.508.078V972.8c0 9.426 7.641 17.067 17.067 17.067h443.733c9.426 0 17.067-7.641 17.067-17.067v-52.521c13.018-2.385 24.54-7.515 34.387-14.783l-.226.159c.325 14.71 6.821 27.842 16.991 36.956l.048.043v64.279c0 9.426 7.641 17.067 17.067 17.067h102.4c9.426 0 17.067-7.641 17.067-17.067v-64.279c10.494-9.395 17.067-22.983 17.067-38.108v-.014.001-644.496c0-71.414-48.804-131.429-114.88-148.513l-1.065-.234zM675.275 34.677c39.738 4.727 70.873 36.116 75.172 75.566l.034.381L561.79 236.418zM425.983 102.4h172.036l-86.018 152.922zm191.235-34.133H406.782l-19.2-34.133h248.836zm-268.492-33.59l113.493 201.751-188.7-125.794c4.329-39.835 35.466-71.229 74.801-75.918l.405-.039zM187.734 989.866h-68.267v-34.133h68.267zM716.8 955.732H307.2v-34.133h409.6zm19.49-68.266H287.71c-26.926-.032-48.745-21.851-48.777-48.773V375.466c0-9.426-7.641-17.067-17.067-17.067s-17.067 7.641-17.067 17.067v529.067c-.011 9.421-7.646 17.056-17.066 17.067h-68.268c-9.421-.011-17.056-7.646-17.067-17.066V260.068c0-55.657 38.114-102.411 89.665-115.586l.827-.179c.26-.066.518-.137.774-.213l48.544-14.592a17.168 17.168 0 0 0 4.262 4.13l.06.038 214.268 142.846V512c0 9.426 7.641 17.067 17.067 17.067s17.067-7.641 17.067-17.067V299.266l7.599 5.067c2.66 1.796 5.939 2.867 9.468 2.867s6.807-1.071 9.529-2.906l-.061.038 7.599-5.067v212.734c0 9.426 7.641 17.067 17.067 17.067s17.067-7.641 17.067-17.067V276.511l214.268-142.846a17.174 17.174 0 0 0 4.288-4.121l.034-.048 48.544 14.592c.256.077.514.147.774.213 52.378 13.354 90.492 60.108 90.492 115.764v.142-.007 644.33c-.011 9.421-7.646 17.056-17.066 17.067h-68.268c-9.421-.011-17.056-7.646-17.067-17.066V375.463c0-9.426-7.641-17.067-17.067-17.067s-17.067 7.641-17.067 17.067v463.223c-.032 26.926-21.851 48.745-48.773 48.777h-.003zm168.243 102.4h-68.267v-34.133h68.267z"></path>
  </symbol>
  <symbol xmlns="http://www.w3.org/2000/svg" viewBox="0 0 1024 1024" id="hanger">
    <title></title>
    <path d="M912.264 747.24L519.519 496.123c-2.131-1.384-4.736-2.207-7.535-2.207s-5.404.823-7.589 2.24l.054-.033-392.745 251.165C92.535 759.76 80.036 781.08 80.036 805.32c0 38.111 30.896 69.006 69.006 69.006H874.94c38.11-.002 69.003-30.897 69.003-69.006 0-24.245-12.503-45.57-31.414-57.877l-.267-.163zm-37.323 99.09H149.059c-22.648-.002-41.007-18.361-41.007-41.01 0-14.382 7.403-27.034 18.605-34.355l.157-.096L512 524.528l385.138 246.269c11.388 7.413 18.812 20.081 18.812 34.483 0 22.649-18.36 41.009-41.009 41.01z"></path>
    <path d="M955.626 680.033L565.993 430.868v-48.041c63.023-22.872 107.233-82.231 107.233-151.916 0-89.042-72.183-161.225-161.225-161.225-89.039 0-161.221 72.179-161.225 161.218v.008c0 7.727 6.263 13.99 13.99 13.99h79.997c7.731 0 13.998-6.267 13.998-13.998.005-29.401 23.84-53.233 53.241-53.233 29.404 0 53.241 23.837 53.241 53.241s-23.837 53.241-53.241 53.241H472c-7.727 0-13.99 6.263-13.99 13.99v132.725L68.377 680.033C26.988 706.96.003 752.993.003 805.327c0 82.283 66.704 148.987 148.987 148.987h726.026c82.283 0 148.987-66.704 148.987-148.987 0-52.335-26.984-98.367-67.798-124.943l-.575-.351zm-80.685 246.286H149.042c-66.826 0-120.999-54.173-120.999-120.999 0-42.46 21.87-79.812 54.96-101.406l.465-.285 396.072-253.3c3.909-2.529 6.46-6.865 6.463-11.798V312.149h26.037c44.87 0 81.245-36.375 81.245-81.245s-36.375-81.245-81.245-81.245c-39.923 0-73.122 28.797-79.956 66.753l-.074.494h-52.473c7.323-67.311 63.847-119.233 132.499-119.233 73.585 0 133.237 59.653 133.237 133.237 0 60.713-40.609 111.942-96.147 128.007l-.941.233c-5.928 1.71-10.191 7.086-10.191 13.458v65.923a14.004 14.004 0 0 0 6.408 11.765l.055.033 396.008 253.228c33.572 21.877 55.455 59.24 55.455 101.714 0 66.822-54.162 120.993-120.981 121.007h-.001z"></path>
  </symbol>
  <symbol xmlns="http://www.w3.org/2000/svg" viewBox="0 0 1024 1024" id="fashion">
    <title></title>
    <path d="M1019.162 368.197l-165.16-165.16a16.512 16.512 0 0 0-8.72-4.558l-181.676-33.032c-8.974-1.633-17.573 4.319-19.206 13.293a16.3 16.3 0 0 0-.266 2.942 97.946 97.946 0 0 1-1.404 15.657l-114.208-28.54v-5.285c44.686-9.121 73.517-52.742 64.396-97.428S540.176-7.431 495.49 1.69c-38.443 7.847-66.056 41.66-66.064 80.895h33.032c0-27.365 22.183-49.548 49.548-49.548s49.548 22.183 49.548 49.548-22.183 49.548-49.548 49.548c-9.121 0-16.516 7.395-16.516 16.516v20.133l-114.208 28.556a98.072 98.072 0 0 1-1.404-15.657 16.517 16.517 0 0 0-5.929-12.684 16.134 16.134 0 0 0-13.543-3.551L178.73 198.478a16.519 16.519 0 0 0-8.72 4.558L4.85 368.196c-6.447 6.449-6.447 16.904 0 23.354l132.128 132.128c6.449 6.447 16.904 6.447 23.354 0l37.871-37.871v108.774H82.591C37.12 594.449.153 631.205.021 676.676a82.326 82.326 0 0 0 33.534 66.549c-36.486 26.659-44.453 77.848-17.792 114.334a81.808 81.808 0 0 0 17.792 17.792c-36.622 26.95-44.463 78.488-17.513 115.11a82.342 82.342 0 0 0 66.549 33.534h594.576c4.381 0 8.58-1.742 11.677-4.839l132.128-132.128a16.363 16.363 0 0 0 4.691-11.677h.149V485.807l37.871 37.871c6.449 6.447 16.904 6.447 23.354 0l132.128-132.128c6.447-6.449 6.447-16.906 0-23.354zM512.005 198.694l120.104 30.026c-24.894 42.432-70.93 67.924-120.104 66.51-49.174 1.414-95.211-24.078-120.104-66.51l120.104-30.026zM33.041 677.162c0-27.365 22.183-49.548 49.548-49.548h363.352c27.365 0 49.548 22.183 49.548 49.548s-22.183 49.548-49.548 49.548H82.589c-27.365 0-49.548-22.185-49.548-49.548zm0 132.128c0-27.365 22.183-49.548 49.548-49.548h363.352c27.365 0 49.548 22.183 49.548 49.548s-22.183 49.548-49.548 49.548H82.589c-27.365 0-49.548-22.185-49.548-49.548zm412.9 181.676H82.589c-27.365 0-49.548-22.183-49.548-49.548s22.183-49.548 49.548-49.548h363.352c27.365 0 49.548 22.183 49.548 49.548s-22.183 49.548-49.548 49.548zm247.74-23.354V891.87h75.742l-75.742 75.742zm181.676-478.964L771.422 384.713l-23.354 23.354 44.709 44.709v406.062H677.165c-9.121 0-16.516 7.395-16.516 16.516v115.612H511.576c27.489-35.613 20.905-86.765-14.705-114.256a75.502 75.502 0 0 0-1.811-1.356c36.486-26.659 44.453-77.848 17.794-114.336a81.774 81.774 0 0 0-17.794-17.792c36.624-26.95 44.465-78.488 17.513-115.11a82.336 82.336 0 0 0-66.632-33.534H231.233V452.776l44.709-44.709-23.354-23.354-103.935 103.935L39.879 379.874l149.833-149.833 158.554-28.82c10.801 71.613 80.103 127.041 163.707 127.041s152.905-55.428 163.707-127.041l158.554 28.82 149.899 149.833-108.774 108.774z"></path>
    <path d="M66.073 660.646h396.384v33.032H66.073v-33.032zm0 132.128h379.868v33.032H66.073v-33.032zm0 132.128h379.868v33.032H66.073v-33.032z"></path>
  </symbol>
  <symbol xmlns="http://www.w3.org/2000/svg" viewBox="0 0 1024 1024" id="dress">
    <title></title>
    <path d="M682.117 473.148h-.19c-7.997-.107-14.44-6.615-14.44-14.628l.001-.202v.011c1.123-42.305 19.892-80.014 49.185-106.195l.143-.126c29.137-26.1 47.387-63.84 47.387-105.842 0-14.018-2.033-27.561-5.82-40.35l.255 1.004c-8.896-26.439-21.12-49.381-36.47-69.841l.456.634c-24.035-.877-115.127 3.335-199.519 100.265-2.762 2.95-6.681 4.789-11.03 4.789s-8.268-1.838-11.022-4.78l-.007-.008c-83.763-96.198-175.543-100.864-199.534-100.22-14.864 19.825-27.08 42.753-35.487 67.444l-.514 1.736c-3.545 11.806-5.585 25.374-5.585 39.418 0 41.957 18.21 79.661 47.158 105.639l.132.116c29.409 26.322 48.153 64.036 49.25 106.142l.004.192.001.191c0 8.013-6.442 14.521-14.43 14.628h-.201c-8.012 0-14.52-6.441-14.628-14.428v-.011c-1.077-33.995-16.267-64.239-39.873-85.223l-.121-.106c-34.86-31.48-56.674-76.838-56.674-127.291 0-17.198 2.535-33.804 7.251-49.465l-.314 1.213c10.711-32.169 26.109-60.037 45.671-84.423l-.41.529c2.347-2.758 5.668-4.625 9.425-5.069l.069-.006c4.827-.571 116.034-11.863 219.663 97.602 103.6-109.451 214.835-98.143 219.663-97.602a14.637 14.637 0 0 1 9.477 5.055l.017.021c19.151 23.858 34.55 51.726 44.709 81.998l.552 1.897c4.401 14.447 6.935 31.051 6.935 48.247 0 50.454-21.813 95.813-56.522 127.163l-.15.133c-23.73 21.087-38.921 51.334-39.99 85.143l-.004.185c-.114 7.935-6.529 14.335-14.46 14.424h-.008z"></path>
    <path d="M512.017 570.515c-62.307-.004-123.47-4.882-183.135-14.271l6.612.857c-9.767-1.618-17.135-9.965-17.218-20.047v-71.688c.003-11.066 8.975-20.035 20.041-20.035 1.54 0 3.039.173 4.479.502l-.134-.025c50.901 11.697 109.353 18.402 169.369 18.402s118.469-6.704 174.646-19.404l-5.276 1.003a19.526 19.526 0 0 1 4.315-.47c11.068 0 20.041 8.973 20.041 20.041v71.682c-.081 10.087-7.442 18.43-17.083 20.039l-.119.017c-53.04 8.528-114.186 13.399-176.47 13.399h-.073.005zm-164.484-41.267c49.428 7.6 106.449 11.94 164.484 11.94s115.054-4.341 170.754-12.715l-6.271.775v-52.663c-49.447 10.636-106.254 16.727-164.484 16.727s-115.036-6.091-169.818-17.671l5.334.944z"></path>
    <path d="M512.017 1023.694c-138.934-.623-271.376-27.662-392.805-76.348l7.196 2.548c-5.525-2.173-9.363-7.462-9.363-13.648 0-1.327.177-2.611.507-3.833l-.023.103c26.01-98.918 90.698-282.215 231.424-398.292a14.546 14.546 0 0 1 9.311-3.345c8.081 0 14.631 6.55 14.631 14.631 0 4.532-2.06 8.583-5.296 11.266l-.024.019c-128.673 106.101-191.166 272.648-218.346 370.44 107.64 42.503 232.323 67.144 362.762 67.144 130.597 0 255.425-24.7 370.066-69.685l-6.885 2.38c-29.842-124.825-91.531-285.608-217.541-369.4-4.127-2.633-6.825-7.189-6.825-12.374 0-8.079 6.549-14.629 14.629-14.629 3.142 0 6.052.991 8.436 2.677l-.045-.031c138.269 91.941 202.898 268.083 232.77 399.667.229.97.36 2.085.36 3.23 0 6.189-3.843 11.48-9.273 13.617l-.099.035c-114.218 46.153-246.645 73.204-385.313 73.83l-.253.001z"></path>
    <path d="M734.225 999h-.006c-6.63 0-12.23-4.41-14.025-10.458l-.026-.104-60.576-209.043a14.319 14.319 0 0 1-.578-4.074c0-8.084 6.553-14.636 14.636-14.636 6.631 0 12.233 4.41 14.031 10.459l.026.104 60.576 209.043c.369 1.222.58 2.627.58 4.082 0 8.079-6.549 14.629-14.629 14.629h-.011.001zm-98.318 17.247c-7.107-.012-13.025-5.09-14.336-11.816l-.015-.092-56.027-295.789c-.18-.861-.283-1.85-.283-2.863 0-8.079 6.549-14.629 14.629-14.629 7.167 0 13.132 5.155 14.386 11.959l.014.09 56.027 295.789c.161.813.252 1.747.252 2.704 0 7.134-5.106 13.075-11.863 14.368l-.092.015c-.808.164-1.737.259-2.688.263h-.003zM284.85 997.962h-.019c-8.079 0-14.629-6.549-14.629-14.629 0-1.204.146-2.374.42-3.494l-.021.1 49.605-208.018c1.478-6.638 7.315-11.526 14.296-11.526 8.079 0 14.629 6.549 14.629 14.629 0 1.31-.172 2.579-.495 3.788l.023-.103-49.605 208.018c-1.586 6.485-7.34 11.223-14.203 11.234h-.001zm86.733 16.092c-.859-.002-1.7-.076-2.517-.218l.089.013c-6.973-1.201-12.21-7.202-12.21-14.427 0-.851.073-1.686.212-2.497l-.013.087 49.006-293.595c1.196-6.979 7.201-12.224 14.431-12.224 8.08 0 14.631 6.55 14.631 14.631 0 .85-.073 1.683-.211 2.493l.013-.087-49.006 293.595c-1.192 6.979-7.195 12.226-14.424 12.229zM512.017 1024c-8.079 0-14.629-6.549-14.629-14.629V801.646c0-8.079 6.549-14.629 14.629-14.629s14.629 6.549 14.629 14.629v207.725c0 8.079-6.549 14.629-14.629 14.629zm217.966-885.935c-8.079 0-14.629-6.549-14.629-14.629V14.629C715.354 6.55 721.903 0 729.983 0s14.629 6.549 14.629 14.629v108.807c0 8.079-6.549 14.629-14.629 14.629zm-435.932 0c-8.079 0-14.629-6.549-14.629-14.629V14.629C279.422 6.55 285.971 0 294.051 0s14.629 6.549 14.629 14.629v108.807c0 8.079-6.549 14.629-14.629 14.629z"></path>
  </symbol>
    <symbol xmlns="http://www.w3.org/2000/svg" viewBox="0 0 1024 1024" id="shipped">
    <title></title>
    <path d="M952.318 462.729L925.8 356.659c7.25-1.54 12.69-7.972 12.69-15.678v-17.102c0-37.132-30.21-67.34-67.34-67.34H750.366v-35.276c0-18.272-14.864-33.136-33.136-33.136H101.545c-18.272 0-33.136 14.864-33.136 33.136v290.741c0 8.854 7.178 16.034 16.034 16.034 8.854 0 16.034-7.178 16.034-16.034V221.263c0-.59.478-1.068 1.068-1.068h615.683c.59 0 1.068.478 1.068 1.068v290.745c0 8.854 7.178 16.034 16.034 16.034 8.854 0 16.034-7.178 16.034-16.034v-18.176h189.138c.016 0 .028.004.042.004l.044-.002c23.274.016 43.036 15.292 49.824 36.342h-49.856c-8.854 0-16.034 7.178-16.034 16.034v34.204c0 27.702 22.536 50.238 50.238 50.238h18.172v70.546h-41.924c-13.772-39.766-51.574-68.41-95.964-68.41s-82.194 28.644-95.964 68.41h-7.72V580.412c0-8.854-7.178-16.034-16.034-16.034-8.854 0-16.034 7.178-16.034 16.034v120.782H385.635c-13.772-39.766-51.574-68.41-95.964-68.41s-82.194 28.644-95.964 68.41h-92.162c-.59 0-1.068-.478-1.068-1.068v-35.274h69.478c8.854 0 16.034-7.178 16.034-16.034s-7.178-16.034-16.034-16.034H16.035c-8.854 0-16.034 7.178-16.034 16.034s7.178 16.034 16.034 16.034h52.376v35.274c0 18.272 14.864 33.136 33.136 33.136h86.608c-.004.356-.028.71-.028 1.068 0 55.992 45.554 101.544 101.544 101.544s101.544-45.552 101.544-101.544c0-.36-.024-.712-.028-1.068h361.341c-.004.356-.028.71-.028 1.068 0 55.992 45.554 101.544 101.544 101.544s101.544-45.552 101.544-101.544c0-.36-.024-.712-.028-1.068h52.406c8.854 0 16.034-7.178 16.034-16.034V546.206c.002-42.224-31.152-77.306-71.682-83.476zM750.365 288.605h120.784c19.45 0 35.274 15.824 35.274 35.274v1.068H750.365v-36.342zm0 173.16V357.013h142.47l26.188 104.752H750.365zM289.671 803.812c-38.31 0-69.478-31.166-69.478-69.478s31.168-69.478 69.478-69.478c38.31 0 69.478 31.166 69.478 69.478s-31.168 69.478-69.478 69.478zm564.377 0c-38.31 0-69.478-31.166-69.478-69.478s31.168-69.478 69.478-69.478c38.31 0 69.478 31.166 69.478 69.478s-31.168 69.478-69.478 69.478zm137.888-205.229h-18.172c-10.02 0-18.172-8.152-18.172-18.172v-18.172h36.342v36.344z"></path>
    <path d="M289.671 701.197c-18.272 0-33.136 14.864-33.136 33.136s14.864 33.136 33.136 33.136c18.272 0 33.136-14.864 33.136-33.136s-14.864-33.136-33.136-33.136zm564.377 0c-18.272 0-33.136 14.864-33.136 33.136s14.864 33.136 33.136 33.136c18.272 0 33.136-14.864 33.136-33.136s-14.864-33.136-33.136-33.136zm-188.127-68.408H426.489c-8.854 0-16.034 7.178-16.034 16.034s7.178 16.034 16.034 16.034h239.432c8.854 0 16.034-7.178 16.034-16.034s-7.178-16.034-16.034-16.034zm-410.455-68.41H50.238c-8.854 0-16.034 7.178-16.034 16.034s7.178 16.034 16.034 16.034h205.228c8.854 0 16.034-7.178 16.034-16.034s-7.18-16.034-16.034-16.034zm302.077-217.636c-6.26-6.26-16.414-6.26-22.674.002L392.285 489.327l-74.174-74.174c-6.262-6.262-16.414-6.262-22.674 0-6.262 6.262-6.262 16.412 0 22.674l85.512 85.512c3.13 3.132 7.234 4.696 11.336 4.696s8.208-1.564 11.336-4.696l153.92-153.92c6.262-6.264 6.262-16.414.002-22.676z"></path>
  </symbol>
  <symbol xmlns="http://www.w3.org/2000/svg" viewBox="0 0 1024 1024" id="pickup">
    <title></title>
    <path d="M863.999 732.001c-22.102 0-40 17.898-40 40s17.898 40 40 40 40-17.898 40-40-17.898-40-40-40zm-20-160c-11.039 0-20 8.961-20 20s8.961 20 20 20 20-8.961 20-20-8.961-20-20-20zm-592 160c-22.102 0-40 17.898-40 40s17.898 40 40 40 40-17.898 40-40-17.898-40-40-40z"></path>
    <path d="M939.937 493.282l-34.484-137.938C917.711 343.617 924 328.063 924 312c0-33.086-26.914-60-60-60H704v-60c0-33.086-26.914-60-60-60H60c-33.086 0-60 26.914-60 60v520c0 33.086 26.914 60 60 60h72c0 66.172 53.828 120 120 120s120-53.828 120-120h372c0 66.172 53.828 120 120 120s120-53.828 120-120c0-1.141-.055-2.273-.086-3.414C1007.234 760.359 1024 738.102 1024 712V592c0-49.719-36.469-91.063-84.063-98.719zm-71.555-121.281l30 120H732.28l45.859-45.859c7.813-7.813 7.813-20.469 0-28.281s-20.469-7.813-28.281 0l-45.859 45.852v-91.711zm15.617-60c0 11.039-8.961 20-20 20h-160v-40h160c11.031 0 20 8.969 20 20zm-632 540c-44.109 0-80-35.891-80-80 0-44.711 36.539-80 80-80 43.563 0 80 35.383 80 80 0 44.109-35.891 80-80 80zm113.133-120c-16.703-47.195-61.914-80-113.133-80-51.242 0-96.469 32.828-113.141 80H59.999c-11.031 0-20-8.969-20-20v-520c0-11.031 8.969-20 20-20h584c11.031 0 20 8.969 20 20v540zm498.867 120c-44.109 0-80-35.891-80-80 0-44.711 36.539-80 80-80 43.563 0 80 35.383 80 80 0 44.109-35.891 80-80 80zm111.711-123.82c-17.742-45.141-61.883-76.18-111.711-76.18-51.242 0-96.469 32.828-113.141 80h-46.859v-200h220c26.07 0 48.305 16.719 56.563 40h-56.563c-11.047 0-20 8.953-20 20s8.953 20 20 20h60v100c0 6.648-3.281 12.539-8.289 16.18z"></path>
    <path d="M351.999 252.001c-99.25 0-180 80.75-180 180s80.75 180 180 180 180-80.75 180-180-80.75-180-180-180zm0 320c-77.195 0-140-62.805-140-140s62.805-140 140-140 140 62.805 140 140-62.805 140-140 140z"></path>
    <path d="M431.999 412.001h-60v-60c0-11.047-8.953-20-20-20s-20 8.953-20 20v80c0 11.047 8.953 20 20 20h80c11.047 0 20-8.953 20-20s-8.953-20-20-20z"></path>
  </symbol>
</svg>