<!-- Generated by IcoMoon.io -->
<svg version="1.1" xmlns="http://www.w3.org/2000/svg" width="1024" height="1024" viewBox="0 0 1024 1024">
<title></title>
<g id="icomoon-ignore">
</g>
<path fill="#000" d="M1007.482 693.677h-16.516v-132.129c-0.050-36.467-29.598-66.015-66.059-66.064h-0.005v-280.774c-0.050-36.467-29.598-66.015-66.059-66.064h-693.682c-36.467 0.050-66.015 29.598-66.064 66.059v280.779c-36.467 0.050-66.015 29.598-66.064 66.059v132.134h-16.516c-9.122 0-16.516 7.394-16.516 16.516v0 66.064c0 9.122 7.394 16.516 16.516 16.516v0h16.516v66.064c0 9.122 7.394 16.516 16.516 16.516v0h49.548c0.002 0 0.005 0 0.008 0 7.97 0 14.621-5.653 16.16-13.169l0.019-0.106 13.874-69.306h765.687l13.874 69.306c1.558 7.622 8.207 13.275 16.178 13.275 0.003 0 0.005 0 0.008 0h49.548c9.122 0 16.516-7.394 16.516-16.516v0-66.064h16.516c9.122 0 16.516-7.394 16.516-16.516v0-66.064c0-9.122-7.394-16.516-16.516-16.516v0zM132.128 214.71c0.025-18.234 14.799-33.007 33.030-33.032h693.679c18.234 0.025 33.007 14.799 33.032 33.030v280.776h-33.032v-66.064c-0.050-36.467-29.598-66.015-66.059-66.064h-198.199c-36.467 0.050-66.015 29.598-66.064 66.059v66.070h-33.032v-66.064c-0.050-36.467-29.598-66.015-66.059-66.064h-198.199c-36.467 0.050-66.015 29.598-66.064 66.059v66.070h-33.032zM825.805 429.419v66.064h-264.258v-66.064c0.025-18.234 14.799-33.007 33.030-33.032h198.195c18.234 0.025 33.007 14.799 33.032 33.030v0.002zM462.451 429.419v66.064h-264.258v-66.064c0.025-18.234 14.799-33.007 33.030-33.032h198.195c18.234 0.025 33.007 14.799 33.032 33.030v0.002zM66.064 561.548c0.025-18.234 14.799-33.007 33.030-33.032h825.808c18.234 0.025 33.007 14.799 33.032 33.030v132.131h-891.87zM85.553 842.322h-19.489v-49.548h29.399zM957.934 842.322h-19.489l-9.91-49.548h29.399zM990.966 759.742h-957.935v-33.032h957.935z"></path>
</svg>
