<!-- Generated by IcoMoon.io -->
<svg version="1.1" xmlns="http://www.w3.org/2000/svg" width="1024" height="1024" viewBox="0 0 1024 1024">
<title></title>
<g id="icomoon-ignore">
</g>
<path fill="#000" d="M214.248 378.36c-1.213-7.202-7.402-12.619-14.857-12.619-8.315 0-15.055 6.74-15.055 15.055 0 1.074 0.113 2.123 0.327 3.134l-0.017-0.098 30.437 164.761c1.339 7.056 7.458 12.32 14.805 12.32 8.316 0 15.056-6.74 15.056-15.056 0-0.967-0.091-1.913-0.266-2.829l0.015 0.094z"></path>
<path fill="#000" d="M820.841 131.236c22.568 0 40.863-18.295 40.863-40.863s-18.295-40.863-40.863-40.863c-22.568 0-40.863 18.295-40.863 40.863v0c0.029 22.557 18.307 40.834 40.86 40.863h0.003zM820.841 79.619c5.939 0 10.754 4.814 10.754 10.754s-4.814 10.754-10.754 10.754c-5.939 0-10.754-4.814-10.754-10.754v0c0.010-5.935 4.819-10.744 10.752-10.754h0.001z"></path>
<path fill="#000" d="M711.301 81.727c22.568 0 40.863-18.295 40.863-40.863s-18.295-40.863-40.863-40.863c-22.568 0-40.863 18.295-40.863 40.863v0c0.029 22.557 18.307 40.834 40.86 40.863h0.003zM711.301 30.11c5.939 0 10.754 4.814 10.754 10.754s-4.814 10.754-10.754 10.754c-5.939 0-10.754-4.814-10.754-10.754v0c0.005-5.937 4.816-10.748 10.754-10.754v0z"></path>
<path fill="#000" d="M1006.661 195.464h-45.165v-23.658c-0.005-8.312-6.742-15.050-15.055-15.055h-320.411c-14.541-16.898-34.070-29.136-56.291-34.437l-0.728-0.146c-17.78-34.817-53.384-58.242-94.459-58.242-8.008 0-15.808 0.89-23.306 2.578l0.707-0.133c-17.149-36.776-53.807-61.807-96.312-61.807-56.118 0-102.045 43.632-105.708 98.824l-0.017 0.319c-29.903 10.345-54.804 28.767-72.844 52.659l-0.28 0.386h-99.233c-8.312 0.005-15.050 6.742-15.055 15.055v0 23.658h-45.165c-8.312 0.005-15.050 6.742-15.055 15.055v0 136.526c-0.001 0.296-0.001 0.647-0.001 0.998 0 126.628 60.233 239.188 153.608 310.592l0.942 0.691 65.072 352.345c1.336 7.060 7.455 12.328 14.805 12.328h550.579c0 0 0.001 0 0.001 0 7.348 0 13.466-5.264 14.789-12.226l0.015-0.094 65.072-352.345c94.319-72.095 154.55-184.653 154.55-311.279 0-0.353 0-0.704-0.001-1.057v0.055-136.535c-0.005-8.312-6.742-15.050-15.055-15.055v0zM839.689 642.354c-51.232 37.424-113.967 62.1-182.052 68.195l-1.411 0.102v-17.859c-0.005-8.312-6.742-15.050-15.055-15.055h-258.342c-8.312 0.005-15.050 6.742-15.055 15.055v0 17.859c-69.496-6.202-132.229-30.878-184.508-69.025l1.044 0.727-69.82-378.067h399.66v101.341c0.073 65.3 52.989 118.215 118.281 118.289h70.267c65.297-0.079 118.21-52.991 118.289-118.281v-101.349h88.523zM397.884 727.634v-0.172c0-0.155 0-0.301 0-0.456v-19.158h228.232v38.713h-228.232zM544.261 186.879h246.617v178.749c-0.059 48.676-39.503 88.12-88.173 88.179h-70.264c-48.678-0.054-88.125-39.501-88.179-88.173v-0.005zM931.387 234.194h-110.4v-47.315h110.4zM268.704 129.541c6.582-1.709 11.364-7.597 11.364-14.602 0-0.311-0.010-0.619-0.028-0.925l0.002 0.042-0.129-1.721c0-0.585-0.103-1.179-0.103-1.721 0.002-41.889 33.961-75.847 75.851-75.847 34.223 0 63.152 22.664 72.597 53.803l0.14 0.538c1.909 6.286 7.654 10.784 14.449 10.784 1.918 0 3.753-0.358 5.44-1.012l-0.103 0.035c7.8-3.039 16.828-4.8 26.268-4.8 0.029 0 0.058 0 0.087 0h-0.004c0.065 0 0.141 0 0.217 0 31.452 0 58.404 19.263 69.703 46.635l0.183 0.501c2.041 4.835 6.398 8.332 11.643 9.125l0.083 0.011c7.862 1.189 14.945 3.409 21.507 6.546l-0.456-0.197h-359.924c14.108-12.615 31.332-22.049 50.364-27.005l0.848-0.188zM92.613 186.861h421.537v47.315h-421.537zM32.394 347.046v-121.472h30.11v23.658c0.005 8.312 6.742 15.050 15.055 15.055h6.314l64.358 348.491c-71.33-66.001-115.839-160.104-115.839-264.601 0-0.398 0.001-0.796 0.002-1.193v0.061zM774.755 993.89h-525.511l-57.32-310.32c50.239 31.281 110.157 51.899 174.413 57.225l1.437 0.096v20.724c0.005 8.312 6.742 15.050 15.055 15.055h258.342c8.312-0.005 15.050-6.742 15.055-15.055v0-20.724c65.693-5.421 125.611-26.039 177.54-58.299l-1.69 0.979zM991.606 347.046c0.001 0.333 0.002 0.729 0.002 1.124 0 104.499-44.508 198.604-115.601 264.391l-0.238 0.217 64.358-348.491h6.314c8.312-0.005 15.050-6.742 15.055-15.055v0-23.658h30.11z"></path>
</svg>
