<svg id="Layer_1" height="512" viewBox="0 0 128 128" width="512" xmlns="http://www.w3.org/2000/svg" data-name="Layer 1"><path d="m29.389 48.2a1.75 1.75 0 1 0 -3.441.636l3.538 19.152a1.75 1.75 0 0 0 3.442-.636z"/><path d="m99.9 19.474a4.75 4.75 0 1 0 -4.75-4.75 4.756 4.756 0 0 0 4.75 4.75zm0-6a1.25 1.25 0 1 1 -1.25 1.25 1.252 1.252 0 0 1 1.25-1.25z"/><path d="m87.167 13.719a4.75 4.75 0 1 0 -4.75-4.75 4.756 4.756 0 0 0 4.75 4.75zm0-6a1.25 1.25 0 1 1 -1.25 1.25 1.251 1.251 0 0 1 1.25-1.25z"/><path d="m121.5 26.94h-5.25v-2.75a1.751 1.751 0 0 0 -1.75-1.75h-37.245a12.43 12.43 0 0 0 -6.628-4.02 12.289 12.289 0 0 0 -13.607-6.486 12.315 12.315 0 0 0 -23.485 4.34 17.746 17.746 0 0 0 -8.5 6.166h-11.535a1.751 1.751 0 0 0 -1.75 1.75v2.75h-5.25a1.751 1.751 0 0 0 -1.75 1.75v15.87a45.422 45.422 0 0 0 17.965 36.3l7.564 40.957a1.75 1.75 0 0 0 1.721 1.433h64a1.75 1.75 0 0 0 1.721-1.432l7.564-40.957a45.421 45.421 0 0 0 17.965-36.3v-15.871a1.751 1.751 0 0 0 -1.75-1.75zm-19.409 51.947a42.69 42.69 0 0 1 -21.326 7.939v-2.076a1.751 1.751 0 0 0 -1.75-1.75h-30.03a1.751 1.751 0 0 0 -1.75 1.75v2.076a42.7 42.7 0 0 1 -21.326-7.939l-8.116-43.947h46.457v11.78a13.765 13.765 0 0 0 13.75 13.75h8.167a13.766 13.766 0 0 0 13.75-13.75v-11.78h10.29zm-51.356 9.913v-.02c0-.018 0-.035 0-.053v-2.227h26.53v2.227.053.02 2.2h-26.53zm17.015-62.858h28.667v20.778a10.262 10.262 0 0 1 -10.25 10.25h-8.167a10.261 10.261 0 0 1 -10.25-10.25zm45 5.5h-12.833v-5.5h12.833zm-77.031-12.165a1.751 1.751 0 0 0 1.318-1.8l-.015-.2c0-.068-.012-.137-.012-.2a8.817 8.817 0 0 1 17.272-2.5 1.752 1.752 0 0 0 2.3 1.14 8.633 8.633 0 0 1 3.063-.558 8.762 8.762 0 0 1 8.149 5.479 1.751 1.751 0 0 0 1.363 1.062 8.8 8.8 0 0 1 2.447.738h-41.838a14.192 14.192 0 0 1 5.953-3.161zm-20.469 6.663h49v5.5h-49zm-7 18.62v-14.12h3.5v2.75a1.751 1.751 0 0 0 1.75 1.75h.734l7.481 40.509a41.861 41.861 0 0 1 -13.465-30.889zm86.293 75.19h-61.086l-6.663-36.072a46.186 46.186 0 0 0 20.441 6.663v2.409a1.751 1.751 0 0 0 1.75 1.75h30.03a1.751 1.751 0 0 0 1.75-1.75v-2.409a46.182 46.182 0 0 0 20.441-6.663zm25.207-75.19a41.863 41.863 0 0 1 -13.465 30.889l7.481-40.509h.734a1.751 1.751 0 0 0 1.75-1.75v-2.75h3.5z"/></svg>