<!-- Generated by IcoMoon.io -->
<svg version="1.1" xmlns="http://www.w3.org/2000/svg" width="1024" height="1024" viewBox="0 0 1024 1024">
<title></title>
<g id="icomoon-ignore">
</g>
<path fill="#000" d="M1002.666 213.334h-206.45c0.906-19.46 0.010-39.024-4.758-58.126-16.876-67.458-66.292-120.834-132.292-142.876l-5.876-1.958c-20.624-6.874-42.164-10.374-67.414-10.374-66.666 0-128.958 32.792-166.626 87.584l-364.878 523.22c-5.558 7.112-10.7 14.536-15.494 22.222l-2.628 3.766 0.236 0.164c-23.006 38.39-36.486 83.12-36.486 131.044 0 141.166 114.834 256 256 256h277.332c11.792 0 21.334-9.542 21.334-21.334s-9.542-21.334-21.334-21.334h-4.622l52.15-85.332h37.808c11.792 0 21.334-9.542 21.334-21.334s-9.542-21.334-21.334-21.334h-11.734l52.146-85.332h44.92c11.792 0 21.334-9.542 21.334-21.334s-9.542-21.334-21.334-21.334h-18.844l52.146-85.332h30.698c11.792 0 21.334-9.542 21.334-21.334s-9.542-21.334-21.334-21.334h-4.622l52.148-85.332h37.808c11.792 0 21.334-9.542 21.334-21.334s-9.542-21.334-21.334-21.334h-11.734l52.148-85.332h23.586c11.792 0 21.334-9.542 21.334-21.334 0-11.006-8.422-19.732-19.118-20.888l52.418-85.778h30.698c11.792 0 21.334-9.542 21.334-21.334 0-11.79-9.542-21.332-21.334-21.332zM454.334 111.876c29.792-43.334 78.958-69.208 134.958-69.208 17.25 0 34.208 2.75 50.5 8.208l5.876 1.958c52.084 17.376 91.084 59.5 104.376 112.708 10.416 41.626 3.416 86.458-19.166 122.834l-263.336 419.234c-9.18-109.222-99.988-195.61-211.542-195.61-32.87 0-64.204 6.448-93.098 17.782l291.432-417.906zM478.708 981.334h-222.708c-117.626 0-213.334-95.708-213.334-213.334 0-42.144 12.672-81.226 33.852-114.348l7.434-10.658c38.826-53.268 101.24-88.326 172.046-88.326 94.126 0 170.666 76.542 170.666 170.666s-76.538 170.666-170.664 170.666c-70.584 0-128-57.416-128-128s57.416-128 128-128c5.75 0 11.334 0.584 16.75 1.666l-28.584 41.834c-41.458 5.75-73.5 41.458-73.5 84.5 0 47.042 38.292 85.334 85.334 85.334 70.584 0 128-57.416 128-128s-57.416-128-128-128c-94.126 0-170.666 76.542-170.666 170.666s76.542 170.666 170.666 170.666c82.81 0 153.96-47.924 189.296-117.050l0.744 0.466 321.042-511.126c10.57-17.054 17.486-35.774 22.562-54.958h132.312l-443.248 725.336zM273.626 716.042l37.876-55.5c18.25 15.666 29.834 38.916 29.834 64.792 0 47.042-38.292 85.334-85.334 85.334-23.542 0-42.666-19.126-42.666-42.666 0-23.542 19.126-42.666 42.666-42.666 7.040-0.002 13.624-3.502 17.624-9.294z"></path>
</svg>
