<!-- Generated by IcoMoon.io -->
<svg version="1.1" xmlns="http://www.w3.org/2000/svg" width="1024" height="1024" viewBox="0 0 1024 1024">
<title></title>
<g id="icomoon-ignore">
</g>
<path fill="#000" d="M1002.666 0h-981.332c-11.792 0-21.334 9.542-21.334 21.334v85.334c0 11.79 9.542 21.332 21.334 21.332h21.334v874.666c-0.002 11.792 9.54 21.334 21.332 21.334 28.354 0 42.834-16.542 53.416-28.604 9.312-10.626 13.020-14.062 21.354-14.062 8.312 0 12.020 3.438 21.334 14.062 10.584 12.062 25.062 28.604 53.438 28.604 28.354 0 43.416-17.23 53.396-28.626 9.27-10.604 12.98-14.042 21.25-14.042 8.23 0 11.916 3.438 21.188 14.042 9.938 11.396 24.98 28.626 53.292 28.626 7.396 0 14.25-3.834 18.146-10.126s4.25-14.146 0.938-20.75l-162.458-324.916c77.854-57.75 131.834-144.126 149.208-239.75l54.626-300.458h177.744l54.628 300.458c17.376 95.626 71.354 182 149.188 239.73l-162.52 324.166c-1.938 3.854-2.562 8.98-1.958 13.25 1.458 10.542 10.48 18.396 21.126 18.396 28.354 0 42.834-16.542 53.416-28.604 9.312-10.626 13.020-14.062 21.354-14.062 8.312 0 12.020 3.438 21.334 14.062 10.58 12.062 25.060 28.604 53.436 28.604 28.354 0 43.416-17.23 53.396-28.626 9.27-10.604 12.98-14.042 21.25-14.042 8.23 0 11.916 3.438 21.188 14.042 9.936 11.396 24.978 28.626 53.29 28.626 11.792 0 21.334-9.542 21.334-21.334v-874.666h21.334c11.79 0 21.332-9.542 21.332-21.334v-85.332c0-11.792-9.542-21.334-21.334-21.334zM308.5 942.020c-5.896-2.084-12.626-3.354-20.312-3.354-28.334 0-43.396 17.23-53.376 28.626-9.27 10.604-12.98 14.042-21.27 14.042-8.334 0-12.042-3.438-21.354-14.062-10.584-12.062-25.062-28.604-53.416-28.604-28.376 0-42.854 16.542-53.438 28.604v-300.030c28.99 11.222 66.588 14.5 93.378 15.218l129.788 259.56zM326.542 420.834c-16.080 88.422-67.55 167.744-141.304 218.98-50.684-0.986-95.536-12.154-99.904-21.146v-490.668h294.448l-53.24 292.834zM938.666 967.104c-9.958-11.396-24.98-28.438-53.146-28.438-28.334 0-43.396 17.23-53.376 28.626-9.27 10.604-12.98 14.042-21.27 14.042-8.334 0-12.042-3.438-21.354-14.062-10.584-12.062-25.062-28.604-53.416-28.604-8.062 0-15.020 1.334-21.062 3.52l130.222-259.726c26.786-0.716 64.404-3.994 93.404-15.218v299.86zM938.666 618.334c-4.742 9.394-49.404 20.494-99.904 21.48-73.756-51.234-125.224-130.558-141.304-218.98l-53.24-292.834h294.448v490.334zM981.334 85.334h-938.668v-42.668h938.666v42.668z"></path>
</svg>
