<!-- Generated by IcoMoon.io -->
<svg version="1.1" xmlns="http://www.w3.org/2000/svg" width="1024" height="1024" viewBox="0 0 1024 1024">
<title></title>
<g id="icomoon-ignore">
</g>
<path fill="#000" d="M682.117 473.148h-0.19c-7.997-0.107-14.44-6.615-14.44-14.628 0-0.068 0-0.134 0.001-0.202v0.011c1.123-42.305 19.892-80.014 49.185-106.195l0.143-0.126c29.137-26.1 47.387-63.84 47.387-105.842 0-14.018-2.033-27.561-5.82-40.35l0.255 1.004c-8.896-26.439-21.12-49.381-36.47-69.841l0.456 0.634c-24.035-0.877-115.127 3.335-199.519 100.265-2.762 2.95-6.681 4.789-11.030 4.789s-8.268-1.838-11.022-4.78l-0.007-0.008c-83.763-96.198-175.543-100.864-199.534-100.22-14.864 19.825-27.080 42.753-35.487 67.444l-0.514 1.736c-3.545 11.806-5.585 25.374-5.585 39.418 0 41.957 18.21 79.661 47.158 105.639l0.132 0.116c29.409 26.322 48.153 64.036 49.25 106.142l0.004 0.192c0.001 0.057 0.001 0.124 0.001 0.191 0 8.013-6.442 14.521-14.43 14.628h-0.2c0 0-0.001 0-0.001 0-8.012 0-14.52-6.441-14.628-14.428v-0.011c-1.077-33.995-16.267-64.239-39.873-85.223l-0.121-0.106c-34.86-31.48-56.674-76.838-56.674-127.291 0-17.198 2.535-33.804 7.251-49.465l-0.314 1.213c10.711-32.169 26.109-60.037 45.671-84.423l-0.41 0.529c2.347-2.758 5.668-4.625 9.425-5.069l0.069-0.006c4.827-0.571 116.034-11.863 219.663 97.602 103.6-109.451 214.835-98.143 219.663-97.602 3.826 0.45 7.146 2.318 9.477 5.055l0.017 0.021c19.151 23.858 34.55 51.726 44.709 81.998l0.552 1.897c4.401 14.447 6.935 31.051 6.935 48.247 0 50.454-21.813 95.813-56.522 127.163l-0.15 0.133c-23.73 21.087-38.921 51.334-39.99 85.143l-0.004 0.185c-0.114 7.935-6.529 14.335-14.46 14.424h-0.008z"></path>
<path fill="#000" d="M512.017 570.515c-62.307-0.004-123.47-4.882-183.135-14.271l6.612 0.857c-9.767-1.618-17.135-9.965-17.218-20.047v-71.688c0.003-11.066 8.975-20.035 20.041-20.035 1.54 0 3.039 0.173 4.479 0.502l-0.134-0.025c50.901 11.697 109.353 18.402 169.369 18.402s118.469-6.704 174.646-19.404l-5.276 1.003c1.297-0.299 2.787-0.47 4.315-0.47 11.068 0 20.041 8.973 20.041 20.041 0 0.001 0 0.001 0 0.002v0 71.68c-0.081 10.087-7.442 18.43-17.083 20.039l-0.119 0.017c-53.040 8.528-114.186 13.399-176.47 13.399-0.024 0-0.049 0-0.073 0h0.005zM347.533 529.248c49.428 7.6 106.449 11.94 164.484 11.94s115.054-4.341 170.754-12.715l-6.271 0.775v-52.663c-49.447 10.636-106.254 16.727-164.484 16.727s-115.036-6.091-169.818-17.671l5.334 0.944z"></path>
<path fill="#000" d="M512.017 1023.694c-138.934-0.623-271.376-27.662-392.805-76.348l7.196 2.548c-5.525-2.173-9.363-7.462-9.363-13.648 0-1.327 0.177-2.611 0.507-3.833l-0.023 0.103c26.010-98.918 90.698-282.215 231.424-398.292 2.509-2.082 5.762-3.345 9.311-3.345 8.081 0 14.631 6.55 14.631 14.631 0 4.532-2.060 8.583-5.296 11.266l-0.024 0.019c-128.673 106.101-191.166 272.648-218.346 370.44 107.64 42.503 232.323 67.144 362.762 67.144 130.597 0 255.425-24.7 370.066-69.685l-6.885 2.38c-29.842-124.825-91.531-285.608-217.541-369.4-4.127-2.633-6.825-7.189-6.825-12.374 0-8.079 6.549-14.629 14.629-14.629 3.142 0 6.052 0.991 8.436 2.677l-0.045-0.031c138.269 91.941 202.898 268.083 232.77 399.667 0.229 0.97 0.36 2.085 0.36 3.23 0 6.189-3.843 11.48-9.273 13.617l-0.099 0.035c-114.218 46.153-246.645 73.204-385.313 73.83l-0.253 0.001z"></path>
<path fill="#000" d="M734.225 999c-0.002 0-0.004 0-0.006 0-6.63 0-12.23-4.41-14.025-10.458l-0.026-0.104-60.576-209.043c-0.367-1.22-0.578-2.623-0.578-4.074 0-8.084 6.553-14.636 14.636-14.636 6.631 0 12.233 4.41 14.031 10.459l0.026 0.104 60.576 209.043c0.369 1.222 0.58 2.627 0.58 4.082 0 8.079-6.549 14.629-14.629 14.629-0.003 0-0.007 0-0.011 0h0.001z"></path>
<path fill="#000" d="M635.907 1016.247c-7.107-0.012-13.025-5.090-14.336-11.816l-0.015-0.092-56.027-295.789c-0.18-0.861-0.283-1.85-0.283-2.863 0-8.079 6.549-14.629 14.629-14.629 7.167 0 13.132 5.155 14.386 11.959l0.014 0.090 56.027 295.789c0.161 0.813 0.252 1.747 0.252 2.704 0 7.134-5.106 13.075-11.863 14.368l-0.092 0.015c-0.808 0.164-1.737 0.259-2.688 0.263h-0.003z"></path>
<path fill="#000" d="M284.85 997.962c-0.005 0-0.013 0-0.019 0-8.079 0-14.629-6.549-14.629-14.629 0-1.204 0.146-2.374 0.42-3.494l-0.021 0.1 49.605-208.018c1.478-6.638 7.315-11.526 14.296-11.526 8.079 0 14.629 6.549 14.629 14.629 0 1.31-0.172 2.579-0.495 3.788l0.023-0.103-49.605 208.018c-1.586 6.485-7.34 11.223-14.203 11.234h-0.001z"></path>
<path fill="#000" d="M371.583 1014.054c-0.859-0.002-1.7-0.076-2.517-0.218l0.089 0.013c-6.973-1.201-12.21-7.202-12.21-14.427 0-0.851 0.073-1.686 0.212-2.497l-0.013 0.087 49.006-293.595c1.196-6.979 7.201-12.224 14.431-12.224 8.080 0 14.631 6.55 14.631 14.631 0 0.85-0.073 1.683-0.211 2.493l0.013-0.087-49.006 293.595c-1.192 6.979-7.195 12.226-14.424 12.229v0z"></path>
<path fill="#000" d="M512.017 1024c-8.079 0-14.629-6.549-14.629-14.629v0-207.725c0-8.079 6.549-14.629 14.629-14.629s14.629 6.549 14.629 14.629v0 207.725c0 8.079-6.549 14.629-14.629 14.629v0z"></path>
<path fill="#000" d="M729.983 138.065c-8.079 0-14.629-6.549-14.629-14.629v0-108.807c0-8.079 6.549-14.629 14.629-14.629s14.629 6.549 14.629 14.629v0 108.807c0 8.079-6.549 14.629-14.629 14.629v0z"></path>
<path fill="#000" d="M294.051 138.065c-8.079 0-14.629-6.549-14.629-14.629v0-108.807c0-8.079 6.549-14.629 14.629-14.629s14.629 6.549 14.629 14.629v0 108.807c0 8.079-6.549 14.629-14.629 14.629v0z"></path>
</svg>
