<?xml version="1.0"?>
<svg xmlns="http://www.w3.org/2000/svg" id="Icons" viewBox="0 0 74 74" width="512" height="512"><path d="M48.628,34.344h-.013a1,1,0,0,1-.987-1.013A10.081,10.081,0,0,1,51,26.063a9.7,9.7,0,0,0,2.859-9.925,16.749,16.749,0,0,0-2.462-4.731c-1.643-.06-7.87.228-13.639,6.854a1.032,1.032,0,0,1-1.508,0c-5.726-6.576-12-6.895-13.64-6.851a16.847,16.847,0,0,0-2.461,4.729A9.7,9.7,0,0,0,23,26.063a10.083,10.083,0,0,1,3.367,7.269,1,1,0,0,1-.987,1.013h-.013a1,1,0,0,1-1-.987,8.126,8.126,0,0,0-2.734-5.833,11.709,11.709,0,0,1-3.4-12,18.383,18.383,0,0,1,3.094-5.735,1,1,0,0,1,.649-.347c.33-.039,7.932-.811,15.016,6.672,7.082-7.482,14.686-6.709,15.016-6.672a1,1,0,0,1,.649.347,18.383,18.383,0,0,1,3.094,5.735,11.71,11.71,0,0,1-3.4,12,8.124,8.124,0,0,0-2.734,5.833A1,1,0,0,1,48.628,34.344Z"/><path d="M37,41a79.924,79.924,0,0,1-12.067-.917,1.4,1.4,0,0,1-1.177-1.371v-4.9a1.37,1.37,0,0,1,1.667-1.337,53.912,53.912,0,0,0,23.156,0,1.37,1.37,0,0,1,1.665,1.338v4.9a1.4,1.4,0,0,1-1.176,1.371A79.893,79.893,0,0,1,37,41ZM25.756,38.179a77.851,77.851,0,0,0,22.488,0v-3.6a55.854,55.854,0,0,1-22.488,0Z"/><path d="M37,71.979a73.045,73.045,0,0,1-26.36-5.045,1,1,0,0,1-.607-1.188c1.778-6.762,6.2-19.292,15.82-27.227a1,1,0,0,1,1.273,1.543C18.33,47.315,14.058,58.7,12.2,65.385a69.284,69.284,0,0,0,49.625-.011c-2.04-8.533-6.257-19.524-14.871-25.252a1,1,0,1,1,1.107-1.665c9.452,6.285,13.87,18.326,15.912,27.321a1,1,0,0,1-.616,1.154A73.013,73.013,0,0,1,37,71.979Z"/><path d="M52.19,70.291a1,1,0,0,1-.961-.722l-4.141-14.29a1,1,0,0,1,1.922-.557l4.141,14.29a1,1,0,0,1-.961,1.279Z"/><path d="M45.469,71.47a1,1,0,0,1-.981-.814l-3.83-20.22a1,1,0,1,1,1.965-.372l3.83,20.22a1,1,0,0,1-.8,1.168A.99.99,0,0,1,45.469,71.47Z"/><path d="M21.471,70.22a1,1,0,0,1-.974-1.232l3.391-14.22a1,1,0,1,1,1.945.464l-3.391,14.22A1,1,0,0,1,21.471,70.22Z"/><path d="M27.4,71.32a1.02,1.02,0,0,1-.166-.014,1,1,0,0,1-.821-1.151l3.35-20.07a1,1,0,1,1,1.973.329l-3.35,20.07A1,1,0,0,1,27.4,71.32Z"/><path d="M37,72a1,1,0,0,1-1-1V56.8a1,1,0,0,1,2,0V71A1,1,0,0,1,37,72Z"/><path d="M51.9,11.438a1,1,0,0,1-1-1V3a1,1,0,0,1,2,0v7.438A1,1,0,0,1,51.9,11.438Z"/><path d="M22.1,11.438a1,1,0,0,1-1-1V3a1,1,0,0,1,2,0v7.438A1,1,0,0,1,22.1,11.438Z"/></svg>
