<!-- Generated by IcoMoon.io -->
<svg version="1.1" xmlns="http://www.w3.org/2000/svg" width="1024" height="1024" viewBox="0 0 1024 1024">
<title></title>
<g id="icomoon-ignore">
</g>
<path fill="#000" d="M1019.162 368.197l-165.16-165.16c-2.376-2.37-5.417-3.96-8.72-4.558l-181.676-33.032c-8.974-1.633-17.573 4.319-19.206 13.293-0.178 0.97-0.266 1.955-0.266 2.942-0.047 5.248-0.518 10.484-1.404 15.657l-114.208-28.54v-5.285c44.686-9.121 73.517-52.742 64.396-97.428s-52.742-73.517-97.428-64.396c-38.443 7.847-66.056 41.66-66.064 80.895h33.032c0-27.365 22.183-49.548 49.548-49.548s49.548 22.183 49.548 49.548-22.183 49.548-49.548 49.548c-9.121 0-16.516 7.395-16.516 16.516v20.133l-114.208 28.556c-0.886-5.174-1.356-10.409-1.404-15.657 0.002-4.899-2.17-9.544-5.929-12.684-3.739-3.183-8.725-4.49-13.543-3.551l-181.676 33.032c-3.303 0.599-6.344 2.188-8.72 4.558l-165.16 165.16c-6.447 6.449-6.447 16.904 0 23.354l132.128 132.128c6.449 6.447 16.904 6.447 23.354 0l37.871-37.871v108.774h-115.612c-45.471-0.132-82.438 36.624-82.57 82.095-0.076 26.262 12.381 50.985 33.534 66.549-36.486 26.659-44.453 77.848-17.792 114.334 4.978 6.813 10.979 12.814 17.792 17.792-36.622 26.95-44.463 78.488-17.513 115.11 15.566 21.151 40.289 33.608 66.549 33.534h594.576c4.381 0 8.58-1.742 11.677-4.839l132.128-132.128c3.058-3.111 4.746-7.315 4.691-11.677h0.149v-389.544l37.871 37.871c6.449 6.447 16.904 6.447 23.354 0l132.128-132.128c6.447-6.449 6.447-16.906 0-23.354zM512.005 198.694l120.104 30.026c-24.894 42.432-70.93 67.924-120.104 66.51-49.174 1.414-95.211-24.078-120.104-66.51l120.104-30.026zM33.041 677.162c0-27.365 22.183-49.548 49.548-49.548h363.352c27.365 0 49.548 22.183 49.548 49.548s-22.183 49.548-49.548 49.548h-363.352c-27.365 0-49.548-22.185-49.548-49.548zM33.041 809.29c0-27.365 22.183-49.548 49.548-49.548h363.352c27.365 0 49.548 22.183 49.548 49.548s-22.183 49.548-49.548 49.548h-363.352c-27.365 0-49.548-22.185-49.548-49.548zM445.941 990.966h-363.352c-27.365 0-49.548-22.183-49.548-49.548s22.183-49.548 49.548-49.548h363.352c27.365 0 49.548 22.183 49.548 49.548s-22.183 49.548-49.548 49.548zM693.681 967.612v-75.742h75.742l-75.742 75.742zM875.357 488.648l-103.935-103.935-23.354 23.354 44.709 44.709v406.062h-115.612c-9.121 0-16.516 7.395-16.516 16.516v115.612h-149.073c27.489-35.613 20.905-86.765-14.705-114.256-0.597-0.46-1.199-0.913-1.811-1.356 36.486-26.659 44.453-77.848 17.794-114.336-4.978-6.813-10.979-12.814-17.794-17.792 36.624-26.95 44.465-78.488 17.513-115.11-15.583-21.176-40.342-33.635-66.632-33.534h-214.708v-141.806l44.709-44.709-23.354-23.354-103.935 103.935-108.774-108.774 149.833-149.833 158.554-28.82c10.801 71.613 80.103 127.041 163.707 127.041s152.905-55.428 163.707-127.041l158.554 28.82 149.899 149.833-108.774 108.774z"></path>
<path fill="#000" d="M66.073 660.646h396.384v33.032h-396.384v-33.032z"></path>
<path fill="#000" d="M66.073 792.774h379.868v33.032h-379.868v-33.032z"></path>
<path fill="#000" d="M66.073 924.902h379.868v33.032h-379.868v-33.032z"></path>
</svg>
