<?xml version="1.0" encoding="utf-8"?>
<!-- Generator: Adobe Illustrator 17.0.0, SVG Export Plug-In . SVG Version: 6.00 Build 0)  -->
<!DOCTYPE svg PUBLIC "-//W3C//DTD SVG 1.1//EN" "http://www.w3.org/Graphics/SVG/1.1/DTD/svg11.dtd">
<svg version="1.1" id="Capa_1" xmlns="http://www.w3.org/2000/svg" xmlns:xlink="http://www.w3.org/1999/xlink" x="0px" y="0px"
	 width="60px" height="60px" viewBox="0 0 60 60" enable-background="new 0 0 60 60" xml:space="preserve">
<g>
	<g>
		<g>
			<path d="M30,27.283c-4.537,0-8.321,3.289-9.093,7.607h18.187C38.321,30.572,34.537,27.283,30,27.283z"/>
		</g>
	</g>
	<g>
		<g>
			<g>
				<path d="M30,14.242c-2.697,0-4.89,2.194-4.89,4.89c0,2.697,2.194,4.89,4.89,4.89s4.89-2.194,4.89-4.89S32.697,14.242,30,14.242z
					"/>
			</g>
		</g>
		<g>
			<g>
				<path d="M53.365,5.548H6.635c-2.697,0-4.89,2.194-4.89,4.89v30.429c0,2.697,2.194,4.89,4.89,4.89h16.03l6.031,8.042
					c0.308,0.41,0.791,0.652,1.304,0.652s0.996-0.242,1.304-0.652l6.031-8.042h16.03c2.697,0,4.89-2.194,4.89-4.89V10.438
					C58.256,7.742,56.062,5.548,53.365,5.548z M40.868,38.151H19.133c-0.9,0-1.63-0.73-1.63-1.63c0-4.964,2.91-9.262,7.113-11.277
					c-1.694-1.495-2.766-3.68-2.766-6.111c0-4.494,3.656-8.151,8.151-8.151s8.151,3.656,8.151,8.151
					c0,2.432-1.072,4.616-2.766,6.111c4.203,2.015,7.113,6.312,7.113,11.277C42.498,37.421,41.768,38.151,40.868,38.151z"/>
			</g>
		</g>
	</g>
</g>
</svg>
