<!-- Generated by IcoMoon.io -->
<svg version="1.1" xmlns="http://www.w3.org/2000/svg" width="1024" height="1024" viewBox="0 0 1024 1024">
<title></title>
<g id="icomoon-ignore">
</g>
<path fill="#000" d="M912.264 747.24l-392.745-251.117c-2.131-1.384-4.736-2.207-7.535-2.207s-5.404 0.823-7.589 2.24l0.054-0.033-392.745 251.165c-19.169 12.472-31.668 33.792-31.668 58.032 0 38.111 30.896 69.006 69.006 69.006 0.006 0 0.011 0 0.017 0h725.881c38.11-0.002 69.003-30.897 69.003-69.006 0-24.245-12.503-45.57-31.414-57.877l-0.267-0.163zM874.941 846.33h-725.882c-22.648-0.002-41.007-18.361-41.007-41.010 0-14.382 7.403-27.034 18.605-34.355l0.157-0.096 385.186-246.341 385.138 246.269c11.388 7.413 18.812 20.081 18.812 34.483 0 22.649-18.36 41.009-41.009 41.010v0z"></path>
<path fill="#000" d="M955.626 680.033l-389.633-249.165v-48.041c63.023-22.872 107.233-82.231 107.233-151.916 0-89.042-72.183-161.225-161.225-161.225-89.039 0-161.221 72.179-161.225 161.218v0c0 0.002 0 0.005 0 0.008 0 7.727 6.263 13.99 13.99 13.99 0.003 0 0.006 0 0.008 0h79.989c7.731 0 13.998-6.267 13.998-13.998v0c0.005-29.401 23.84-53.233 53.241-53.233 29.404 0 53.241 23.837 53.241 53.241s-23.837 53.241-53.241 53.241h-39.994c-0.002 0-0.005 0-0.008 0-7.727 0-13.99 6.263-13.99 13.99 0 0.003 0 0.006 0 0.008v0 132.717l-389.633 249.165c-41.389 26.927-68.374 72.96-68.374 125.294 0 82.283 66.704 148.987 148.987 148.987 0.025 0 0.050 0 0.076 0h725.878c0.021 0 0.046 0 0.072 0 82.283 0 148.987-66.704 148.987-148.987 0-52.335-26.984-98.367-67.798-124.943l-0.575-0.351zM874.941 926.319h-725.882c-0.005 0-0.011 0-0.017 0-66.826 0-120.999-54.173-120.999-120.999 0-42.46 21.87-79.812 54.96-101.406l0.465-0.285 396.072-253.3c3.909-2.529 6.46-6.865 6.463-11.798v0-126.382h25.996c0.012 0 0.026 0 0.041 0 44.87 0 81.245-36.375 81.245-81.245s-36.375-81.245-81.245-81.245c-39.923 0-73.122 28.797-79.956 66.753l-0.074 0.494h-52.473c7.323-67.311 63.847-119.233 132.499-119.233 73.585 0 133.237 59.653 133.237 133.237 0 60.713-40.609 111.942-96.147 128.007l-0.941 0.233c-5.928 1.71-10.191 7.086-10.191 13.458 0 0.001 0 0.003 0 0.004v0 65.919c0.003 4.933 2.554 9.27 6.408 11.765l0.055 0.033 396.008 253.228c33.572 21.877 55.455 59.24 55.455 101.714 0 66.822-54.162 120.993-120.981 121.007h-0.001z"></path>
</svg>
