<?xml version="1.0"?>
<svg xmlns="http://www.w3.org/2000/svg" id="OutLine" viewBox="0 0 512 512" width="512" height="512"><path d="M409.651,68.167l-26.944-8.1A56.087,56.087,0,0,0,328,16H184a56.087,56.087,0,0,0-54.707,44.067l-26.944,8.1A71.9,71.9,0,0,0,48,137.97V440a23.943,23.943,0,0,0,8,17.869V488a8,8,0,0,0,8,8h48a8,8,0,0,0,8-8V457.869a23.945,23.945,0,0,0,7.987-17.343A38.665,38.665,0,0,0,144,447.381V472a8,8,0,0,0,8,8H360a8,8,0,0,0,8-8V447.381a38.665,38.665,0,0,0,16.013-6.855A23.945,23.945,0,0,0,392,457.869V488a8,8,0,0,0,8,8h48a8,8,0,0,0,8-8V457.869A23.943,23.943,0,0,0,464,440V137.97A71.9,71.9,0,0,0,409.651,68.167ZM332.535,32.255a40.079,40.079,0,0,1,35.253,35.6l-88.449,58.966ZM215.679,64h80.642L256,135.682Zm89.642-16H206.679l-9-16H314.321ZM179.465,32.255l53.2,94.571L144.212,67.86A40.079,40.079,0,0,1,179.465,32.255ZM104,480H72V464h32Zm248-16H160V448H352Zm9.136-32H150.864A22.89,22.89,0,0,1,128,409.136V192a8,8,0,0,0-16,0V440a8.009,8.009,0,0,1-8,8H72a8.009,8.009,0,0,1-8-8V137.97a55.919,55.919,0,0,1,42.418-54.328c.122-.031.243-.064.363-.1l22.755-6.84a7.984,7.984,0,0,0,2.026,1.954L232,145.615V256a8,8,0,0,0,16,0V156.281l3.562,2.375a8,8,0,0,0,8.876,0L264,156.281V256a8,8,0,0,0,16,0V145.615L380.438,78.656a7.984,7.984,0,0,0,2.026-1.954l22.755,6.84c.12.036.241.069.363.1A55.919,55.919,0,0,1,448,137.97V440a8.009,8.009,0,0,1-8,8H408a8.009,8.009,0,0,1-8-8V192a8,8,0,0,0-16,0V409.136A22.89,22.89,0,0,1,361.136,432ZM440,480H408V464h32Z"/></svg>
