<!-- Generated by IcoMoon.io -->
<svg version="1.1" xmlns="http://www.w3.org/2000/svg" width="1024" height="1024" viewBox="0 0 1024 1024">
<title></title>
<g id="icomoon-ignore">
</g>
<path fill="#000" d="M839.789 111.29l-57.481-17.28c-12.176-54.105-59.78-93.93-116.7-94.010h-307.209c-56.928 0.080-104.532 39.905-116.557 93.21l-0.151 0.8-57.481 17.28c-67.14 17.317-115.945 77.332-115.945 148.747 0 0.059 0 0.117 0 0.176v-0.010 644.33c0 0.004 0 0.009 0 0.013 0 15.124 6.573 28.713 17.018 38.065l0.049 0.043v64.279c0 9.426 7.641 17.067 17.067 17.067v0h102.4c9.426 0 17.067-7.641 17.067-17.067v0-64.279c10.218-9.156 16.714-22.288 17.038-36.941l0.001-0.058c9.621 7.109 21.143 12.239 33.653 14.546l0.508 0.078v52.521c0 9.426 7.641 17.067 17.067 17.067v0h443.733c9.426 0 17.067-7.641 17.067-17.067v0-52.521c13.018-2.385 24.54-7.515 34.387-14.783l-0.226 0.159c0.325 14.71 6.821 27.842 16.991 36.956l0.048 0.043v64.279c0 9.426 7.641 17.067 17.067 17.067v0h102.4c9.426 0 17.067-7.641 17.067-17.067v0-64.279c10.494-9.395 17.067-22.983 17.067-38.108 0-0.004 0-0.009 0-0.014v0.001-644.33c0-0.049 0-0.108 0-0.166 0-71.414-48.804-131.429-114.88-148.513l-1.065-0.234zM675.275 34.677c39.738 4.727 70.873 36.116 75.172 75.566l0.034 0.381-188.691 125.794zM425.983 102.4h172.036l-86.018 152.922zM617.218 68.267h-210.436l-19.2-34.133h248.836zM348.726 34.677l113.493 201.751-188.7-125.794c4.329-39.835 35.466-71.229 74.801-75.918l0.405-0.039zM187.734 989.866h-68.267v-34.133h68.267zM716.8 955.732h-409.6v-34.133h409.6zM736.29 887.466h-448.58c-26.926-0.032-48.745-21.851-48.777-48.773v-463.227c0-9.426-7.641-17.067-17.067-17.067s-17.067 7.641-17.067 17.067v0 529.067c-0.011 9.421-7.646 17.056-17.066 17.067h-68.268c-9.421-0.011-17.056-7.646-17.067-17.066v-644.331c0-0.041 0-0.087 0-0.135 0-55.657 38.114-102.411 89.665-115.586l0.827-0.179c0.26-0.066 0.518-0.137 0.774-0.213l48.544-14.592c1.196 1.641 2.628 3.024 4.262 4.13l0.060 0.038 214.268 142.846v235.488c0 9.426 7.641 17.067 17.067 17.067s17.067-7.641 17.067-17.067v0-212.734l7.599 5.067c2.66 1.796 5.939 2.867 9.468 2.867s6.807-1.071 9.529-2.906l-0.061 0.038 7.599-5.067v212.734c0 9.426 7.641 17.067 17.067 17.067s17.067-7.641 17.067-17.067v0-235.488l214.268-142.846c1.694-1.145 3.126-2.528 4.288-4.121l0.034-0.048 48.544 14.592c0.256 0.077 0.514 0.147 0.774 0.213 52.378 13.354 90.492 60.108 90.492 115.764 0 0.047 0 0.095 0 0.142v-0.007 644.33c-0.011 9.421-7.646 17.056-17.066 17.067h-68.268c-9.421-0.011-17.056-7.646-17.067-17.066v-529.068c0-9.426-7.641-17.067-17.067-17.067s-17.067 7.641-17.067 17.067v0 463.223c-0.032 26.926-21.851 48.745-48.773 48.777h-0.003zM904.533 989.866h-68.267v-34.133h68.267z"></path>
</svg>
