<!-- Generated by IcoMoon.io -->
<svg version="1.1" xmlns="http://www.w3.org/2000/svg" width="1024" height="1024" viewBox="0 0 1024 1024">
<title></title>
<g id="icomoon-ignore">
</g>
<path fill="#000" d="M1023.737 660.909l-45.655-240.71c-5.265-22.258-15.213-41.674-28.793-57.957l0.182 0.224 26.798-26.877c2.743-2.744 4.439-6.534 4.439-10.72s-1.696-7.976-4.439-10.72l-5.202-5.202c17.357-12.83 29.265-32.177 32.107-54.36l0.041-0.399c0.021-0.715 0.031-1.557 0.031-2.402 0-12.26-2.443-23.95-6.868-34.61l0.22 0.598c-3.090-7.542-5.144-16.277-5.728-25.411l-0.012-0.243c0-8.379-6.793-15.172-15.172-15.172s-15.172 6.793-15.172 15.172v0c0.515 12.795 3.145 24.828 7.55 35.967l-0.259-0.741c3.112 7.219 4.992 15.611 5.149 24.423l0.001 0.061c-2.715 14.946-11.291 27.5-23.21 35.423l-0.198 0.124-10.048-10.048c-2.79-2.643-6.567-4.269-10.725-4.269s-7.935 1.626-10.732 4.275l0.008-0.007-40.532 40.627c-8.544-2.060-18.364-3.259-28.457-3.295h-305.029c-261.231 0-453.251 219.703-511.521 440.567h-17.34c-8.379 0-15.172 6.793-15.172 15.172v0 61.478c0 8.379 6.793 15.172 15.172 15.172v0h923.512c8.377-0.005 15.167-6.795 15.172-15.172v0-58.261c0.216-0.955 0.342-2.053 0.347-3.179v-0.003c0-50.58 18.276-79.034 59.276-92.256 6.157-2.030 10.521-7.729 10.521-14.448 0-0.998-0.096-1.973-0.281-2.918l0.015 0.095zM928.802 309.589l15.311 15.311-16.473 16.542c-5.442-4.196-11.57-8.156-18.019-11.594l-0.708-0.345zM30.346 816.706v-31.133h893.168v31.099zM924.389 755.228h-860.543c57.628-206.897 237.38-410.222 480.188-410.222h305.005c26.512 0.081 50.576 10.497 68.387 27.428l-0.042-0.040c0.13 0.139 0.217 0.295 0.355 0.433 0.338 0.338 0.728 0.59 1.092 0.867 14.282 13.999 24.672 31.918 29.428 52.017l0.145 0.73 43.132 227.523c-41.468 17.652-63.55 50.953-67.148 101.264z"></path>
<path fill="#000" d="M648.818 677.234h-259.523c-8.379 0-15.172 6.793-15.172 15.172s6.793 15.172 15.172 15.172v0h259.523c8.379 0 15.172-6.793 15.172-15.172s-6.793-15.172-15.172-15.172v0z"></path>
<path fill="#000" d="M892.397 439.004c-2.244-12.1-12.41-21.243-24.825-21.897l-0.066-0.003h-266.572c-103.839 0-194.725 70.226-226.162 174.749-0.409 1.308-0.644 2.811-0.644 4.37 0 8.375 6.788 15.164 15.164 15.164 0.001 0 0.001 0 0.002 0h509.787c7.79-0.073 14.686-3.84 19.029-9.63l0.044-0.063c4.207-5.358 6.747-12.2 6.747-19.634 0-2.704-0.336-5.329-0.968-7.836l0.047 0.22zM638.215 581.042v-42.482h78.133v42.482zM746.692 581.042v-57.611c0-8.379-6.793-15.172-15.172-15.172v0h-108.477c-8.379 0-15.172 6.793-15.172 15.172v0 57.628h-197.213c32.339-80.69 106.526-133.594 190.277-133.594h262.263l31.211 133.594z"></path>
</svg>
