<!-- Generated by IcoMoon.io -->
<svg version="1.1" xmlns="http://www.w3.org/2000/svg" width="1024" height="1024" viewBox="0 0 1024 1024">
<title></title>
<g id="icomoon-ignore">
</g>
<path fill="#000" d="M819.176 988.962l-51.2-972.8c-0.478-9.046-7.97-16.162-17.050-16.162h-477.868c-9.080 0-16.572 7.116-17.032 16.18l-51.2 972.8c-0.478 9.096 6.28 16.982 15.342 17.886l170.666 17.066c8.942 0.768 17.1-5.342 18.534-14.234l102.622-630.408 102.622 630.392c1.366 8.312 8.568 14.318 16.828 14.318 0.564 0 1.126-0.034 1.724-0.086l170.666-17.066c9.064-0.904 15.806-8.79 15.346-17.886zM645.726 988.348l-116.89-718.028c-1.348-8.26-8.482-14.318-16.844-14.318s-15.496 6.058-16.844 14.336l-116.89 718.028-138.496-13.858 49.494-940.374h445.474l49.494 940.356-138.498 13.858z"></path>
<path fill="#000" d="M273.058 68.266h477.866v34.134h-477.866v-34.134z"></path>
<path fill="#000" d="M494.926 17.066v223.726c-21.504-19.814-34.116-47.838-34.134-78.148v-145.578h-34.134v145.578c0.034 53.556 29.798 101.718 77.704 125.678 2.406 1.212 5.018 1.81 7.628 1.81 3.106 0 6.23-0.854 8.96-2.542 5.034-3.124 8.106-8.602 8.106-14.524v-256h-34.13z"></path>
<path fill="#000" d="M341.65 82.040l-2.048 10.342c-8.26 41.080-33.928 75.64-70.708 95.352h-12.902v34.134h17.066c2.662 0 5.274-0.614 7.646-1.792 48.11-24.116 81.766-68.198 92.382-121.020l2.048-10.41-33.484-6.606z"></path>
<path fill="#000" d="M755.106 187.716c-36.796-19.712-62.464-54.256-70.708-95.284l-2.048-10.41-33.502 6.604 2.066 10.48c10.616 52.754 44.288 96.836 92.364 120.952 2.372 1.194 5 1.81 7.646 1.81h17.066v-34.152h-12.884z"></path>
</svg>
