<svg id="Capa_1" enable-background="new 0 0 512 512" height="512" viewBox="0 0 512 512" width="512" xmlns="http://www.w3.org/2000/svg"><g><path d="m338.894 434.875h-271.783c-4.142 0-7.5 3.358-7.5 7.5s3.358 7.5 7.5 7.5h271.782c4.142 0 7.5-3.358 7.5-7.5s-3.357-7.5-7.499-7.5zm-223.182-248.5h-48.601c-4.142 0-7.5 3.358-7.5 7.5s3.358 7.5 7.5 7.5h48.601c4.142 0 7.5-3.358 7.5-7.5s-3.358-7.5-7.5-7.5zm396.288-23.562c0-17.717-11.957-32.671-28.187-37.171 17.084-12.692 28.187-33.073 28.187-56.017 0-38.391-31.072-69.625-69.265-69.625h-404.353c-21.164 0-38.382 17.299-38.382 38.563 0 12.727 6.169 24.035 15.661 31.062-9.492 7.027-15.661 18.335-15.661 31.063 0 17.717 11.958 32.671 28.187 37.171-17.083 12.691-28.187 33.072-28.187 56.016s11.104 43.325 28.187 56.017c-16.229 4.499-28.187 19.454-28.187 37.171 0 12.728 6.169 24.035 15.661 31.063-9.492 7.026-15.661 18.334-15.661 31.062 0 17.717 11.958 32.671 28.187 37.171-17.083 12.691-28.187 33.072-28.187 56.016 0 38.391 31.072 69.625 69.265 69.625h404.353c21.164 0 38.382-17.299 38.382-38.562 0-12.728-6.169-24.035-15.661-31.063 9.492-7.027 15.661-18.335 15.661-31.062 0-17.717-11.957-32.671-28.187-37.171 17.084-12.692 28.187-33.073 28.187-56.017s-11.103-43.325-28.187-56.017c16.23-4.5 28.187-19.454 28.187-37.171 0-12.727-6.169-24.035-15.661-31.063 9.492-7.026 15.661-18.334 15.661-31.061zm-497-62.125c0-12.992 10.489-23.563 23.382-23.563h406.506c4.142 0 7.5-3.358 7.5-7.5s-3.358-7.5-7.5-7.5h-406.506c-12.893 0-23.382-10.57-23.382-23.562s10.489-23.563 23.382-23.563h404.353c29.922 0 54.265 24.505 54.265 54.625s-24.343 54.625-54.265 54.625h-404.353c-12.893 0-23.382-10.57-23.382-23.562zm482 310.625c0 12.992-10.489 23.563-23.382 23.563h-104.724c-4.142 0-7.5 3.358-7.5 7.5s3.358 7.5 7.5 7.5h104.724c12.893 0 23.382 10.57 23.382 23.563s-10.489 23.561-23.382 23.561h-404.353c-29.922 0-54.265-24.505-54.265-54.625s24.343-54.625 54.265-54.625h404.353c12.893 0 23.382 10.57 23.382 23.563zm0-93.188c0 30.12-24.343 54.625-54.265 54.625h-404.353c-12.893 0-23.382-10.57-23.382-23.562s10.489-23.563 23.382-23.563h406.506c4.142 0 7.5-3.358 7.5-7.5s-3.358-7.5-7.5-7.5h-406.506c-12.893 0-23.382-10.57-23.382-23.563s10.489-23.562 23.382-23.562h404.353c29.922 0 54.265 24.505 54.265 54.625zm-23.382-131.75h-327.906c-4.142 0-7.5 3.358-7.5 7.5s3.358 7.5 7.5 7.5h327.905c12.893 0 23.382 10.57 23.382 23.563s-10.488 23.562-23.381 23.562h-404.353c-29.922 0-54.265-24.505-54.265-54.625s24.343-54.625 54.265-54.625h404.353c12.893 0 23.382 10.57 23.382 23.563s-10.489 23.562-23.382 23.562z"/></g></svg>