<!-- Generated by IcoMoon.io -->
<svg version="1.1" xmlns="http://www.w3.org/2000/svg" width="1024" height="1024" viewBox="0 0 1024 1024">
<title></title>
<g id="icomoon-ignore">
</g>
<path fill="#000" d="M170.663 546.099c0 124.254-37.067 206.151-113.35 250.386-16.015 9.385-21.633 29.825-12.662 46.077l69.49 125.057c8.34 15.047 26.574 21.535 42.544 15.137 56.316-22.681 247.075-87.171 341.806 34.643 3.233 4.166 8.209 6.603 13.482 6.603s10.249-2.437 13.482-6.603c94.748-121.797 285.575-57.323 341.823-34.643 15.965 6.388 34.189-0.099 42.527-15.137l69.49-125.091c8.969-16.252 3.353-36.692-12.662-46.077-76.283-44.2-113.35-126.098-113.35-250.352 0-135.5 92.154-238.917 120.449-267.434 12.424-12.464 13.261-32.357 1.929-45.821l-69.098-82.939c-7.511-8.989-19.107-13.499-30.718-11.946-161.9 21.247-211.271-73.109-224.975-114.731-4.622-13.922-17.671-23.294-32.339-23.226h-213.115c-14.669-0.068-27.718 9.304-32.339 23.226-13.652 41.571-63.143 135.995-224.907 114.782-11.611-1.553-23.207 2.957-30.718 11.946l-69.115 82.956c-11.333 13.464-10.495 33.357 1.929 45.821 28.243 28.448 120.397 131.865 120.397 267.365zM143.733 171.851c192.465 25.24 248.987-99.219 261.683-137.719l213.046-0.222c12.748 38.721 69.32 163.112 261.854 137.821l69.183 82.905c-30.581 30.82-130.346 142.993-130.346 291.463 0 137.48 42.664 229.037 130.312 279.875l-69.439 125.142c-59.371-23.891-255.659-89.867-368.053 29.592-49.695-52.87-115.772-69.405-179.188-69.405-64.821 1.699-128.796 15.148-188.814 39.694l-69.542-125.022c87.7-50.839 130.363-142.395 130.363-279.875 0-148.47-99.765-260.642-130.295-291.411z"></path>
<path fill="#000" d="M532.931 879.935c-7.151 3.823-14.164 7.969-20.957 12.406-6.827-4.437-13.806-8.532-20.957-12.406-5.381-2.869-11.883-2.649-17.057 0.577s-8.235 8.966-8.029 15.060c0.206 6.094 3.648 11.615 9.028 14.484 9.381 5.009 18.424 10.629 27.066 16.827 5.947 4.267 13.952 4.267 19.899 0 8.642-6.198 17.684-11.818 27.066-16.827 8.317-4.435 11.465-14.772 7.031-23.089s-14.772-11.465-23.089-7.031z"></path>
<path fill="#000" d="M434.121 856.896c-19.53-5.617-39.517-9.5-59.729-11.604-6.064-0.64-12.008 2.003-15.594 6.934s-4.269 11.4-1.792 16.972 7.738 9.397 13.802 10.037c18.214 1.882 36.226 5.371 53.824 10.427 1.55 0.466 3.16 0.702 4.779 0.7 8.509 0.012 15.727-6.246 16.922-14.67s-4-16.442-12.177-18.796z"></path>
<path fill="#000" d="M314.014 843.534c-19.972 0.87-39.875 2.904-59.61 6.093-8.764 1.427-14.97 9.336-14.27 18.188s8.070 15.689 16.95 15.721c0.914 0.008 1.828-0.061 2.731-0.205 18.407-2.981 36.972-4.884 55.599-5.7 6.097-0.25 11.597-3.734 14.429-9.138s2.565-11.91-0.7-17.066c-3.265-5.155-9.032-8.176-15.129-7.926z"></path>
<path fill="#000" d="M195.954 862.051c-6.975 1.843-13.692 3.732-20.155 5.666l-12.577-22.612c5.427-4.983 10.643-10.137 15.649-15.461 6.402-6.878 6.040-17.637-0.81-24.068s-17.61-6.117-24.071 0.706c-7.316 7.783-15.094 15.118-23.294 21.964-6.299 5.248-7.975 14.234-3.994 21.401l25.991 46.76c3.011 5.415 8.719 8.772 14.915 8.771 1.773-0.004 3.534-0.28 5.222-0.819 9.812-3.157 20.479-6.315 31.827-9.317 6.054-1.41 10.862-6 12.553-11.981s-0.006-12.409-4.427-16.778c-4.421-4.37-10.868-5.99-16.829-4.229z"></path>
<path fill="#000" d="M237.219 691.924c-8.902-3.096-18.629 1.611-21.725 10.512-6.636 19.244-15.129 37.797-25.359 55.394-4.762 8.129-2.035 18.58 6.093 23.345 2.584 1.532 5.53 2.345 8.532 2.355 6.067 0.005 11.681-3.211 14.745-8.447 11.36-19.515 20.791-40.091 28.158-61.436 3.103-8.882-1.569-18.6-10.444-21.725z"></path>
<path fill="#000" d="M228.686 457.956c4.713 20.013 7.834 40.367 9.334 60.873 0.646 8.942 8.1 15.86 17.066 15.837h1.263c4.515-0.328 8.714-2.436 11.675-5.861s4.439-7.885 4.111-12.4c-1.638-22.305-5.034-44.444-10.154-66.215-1.396-5.936-5.853-10.675-11.691-12.433s-12.171-0.269-16.613 3.908c-4.442 4.177-6.319 10.406-4.923 16.342z"></path>
<path fill="#000" d="M247.714 662.861c8.252-0.010 15.315-5.924 16.776-14.045 3.853-21.819 6.378-43.851 7.561-65.976 0.514-9.392-6.669-17.429-16.059-17.97-9.38-0.429-17.382 6.723-18.004 16.093-1.102 20.74-3.468 41.393-7.083 61.846-0.8 4.456 0.204 9.047 2.79 12.763s6.543 6.252 10.999 7.050c0.999 0.163 2.009 0.243 3.021 0.239z"></path>
<path fill="#000" d="M225.887 409.797c5.657 0.003 10.947-2.797 14.126-7.476s3.832-10.629 1.745-15.887c-8.229-20.645-17.813-40.723-28.687-60.105-4.656-8.113-14.976-10.967-23.138-6.397s-11.124 14.86-6.641 23.069c10.131 18.061 19.060 36.772 26.724 56.009 2.577 6.511 8.869 10.786 15.871 10.785z"></path>
<path fill="#000" d="M164.332 253.51l8.805-10.546c6.537 0.307 13.004 0.461 19.353 0.461h7.475c9.425-0.165 16.932-7.939 16.767-17.364s-7.939-16.932-17.364-16.767h-6.827c-8.43 0-17.066-0.29-25.854-0.887-5.449-0.358-10.739 1.913-14.233 6.11l-23.311 27.919c-5.242 6.319-5.242 15.474 0 21.793 6.519 7.867 13.345 16.571 20.274 26.059 5.561 7.615 16.242 9.281 23.857 3.721s9.281-16.242 3.721-23.857c-4.289-5.814-8.51-11.36-12.662-16.639z"></path>
<path fill="#000" d="M284.832 230.915c1.635 0.002 3.262-0.234 4.83-0.7 29.535-8.581 57.392-22.132 82.376-40.070 7.638-5.523 9.354-16.193 3.831-23.832s-16.193-9.354-23.832-3.831c-21.839 15.676-46.195 27.507-72.016 34.985-8.159 2.38-13.324 10.4-12.113 18.814s8.426 14.652 16.926 14.635z"></path>
<path fill="#000" d="M421.8 131.662c5.637 0.005 10.911-2.773 14.096-7.424 4.813-7.014 9.334-14.335 13.533-21.844h23.891c9.425 0 17.066-7.64 17.066-17.066s-7.64-17.066-17.066-17.066h-34.131c-6.404 0-12.268 3.585-15.188 9.283-4.841 9.477-10.278 18.637-16.281 27.424-3.566 5.221-3.953 11.986-1.006 17.58s8.745 9.099 15.068 9.111z"></path>
<path fill="#000" d="M550.61 102.395h23.891c4.198 7.509 8.72 14.83 13.533 21.844 3.366 5.214 9.297 8.188 15.489 7.769s11.668-4.166 14.301-9.785 2.009-12.225-1.632-17.251c-6.003-8.787-11.44-17.947-16.281-27.424-2.917-5.694-8.773-9.277-15.171-9.283h-34.131c-9.425 0-17.066 7.64-17.066 17.066s7.64 17.066 17.066 17.066z"></path>
<path fill="#000" d="M734.218 230.199c1.567 0.472 3.194 0.713 4.83 0.717 8.499 0.017 15.716-6.223 16.926-14.635s-3.954-16.434-12.113-18.814c-25.808-7.495-50.151-19.331-71.982-35.002-4.924-3.872-11.572-4.736-17.322-2.25s-9.675 7.921-10.227 14.16c-0.552 6.24 2.359 12.279 7.583 15.736 24.955 17.948 52.791 31.505 82.308 40.087z"></path>
<path fill="#000" d="M823.983 243.357h7.475c6.349 0 12.816-0.154 19.37-0.461l8.788 10.546c-4.142 5.257-8.35 10.802-12.628 16.639-5.556 7.615-3.887 18.293 3.729 23.849s18.293 3.887 23.849-3.729c6.929-9.488 13.755-18.175 20.274-26.042 5.252-6.322 5.252-15.488 0-21.81l-23.294-27.834c-3.511-4.183-8.799-6.451-14.25-6.11-8.788 0.597-17.424 0.887-25.837 0.887h-7.185c-9.425-0.080-17.131 7.496-17.211 16.921s7.496 17.131 16.921 17.211z"></path>
<path fill="#000" d="M776.166 662.469c1.012 0 2.023-0.086 3.021-0.256 4.456-0.794 8.413-3.326 11.003-7.039s3.598-8.301 2.803-12.757c-3.589-20.455-5.937-41.107-7.031-61.846-0.518-9.425-8.579-16.645-18.004-16.127s-16.645 8.579-16.127 18.004c1.167 22.118 3.675 44.144 7.509 65.959 1.457 8.147 8.549 14.075 16.827 14.062z"></path>
<path fill="#000" d="M786.729 691.531c-8.899 3.089-13.613 12.805-10.529 21.708 7.328 21.347 16.73 41.924 28.073 61.436 3.032 5.357 8.714 8.665 14.869 8.658s11.83-3.327 14.851-8.69 2.92-11.937-0.265-17.205c-10.209-17.606-18.68-36.164-25.291-55.411-3.104-8.886-12.815-13.582-21.708-10.495z"></path>
<path fill="#000" d="M791.849 408.193c2 0.812 4.139 1.229 6.298 1.229 7.002 0.001 13.294-4.275 15.871-10.785 7.677-19.228 16.616-37.927 26.759-55.975 4.357-8.19 1.372-18.361-6.72-22.898s-18.326-1.78-23.042 6.209c-10.892 19.366-20.487 39.433-28.721 60.071-3.474 8.755 0.804 18.671 9.556 22.152z"></path>
<path fill="#000" d="M767.769 534.154h1.263c8.965 0.023 16.42-6.895 17.066-15.837 1.518-20.501 4.657-40.85 9.386-60.856 1.57-5.995-0.233-12.369-4.71-16.653s-10.924-5.805-16.844-3.973c-5.92 1.832-10.381 6.729-11.655 12.793-5.161 21.766-8.584 43.906-10.239 66.215-0.343 4.515 1.122 8.981 4.073 12.416s7.147 5.556 11.661 5.896z"></path>
<path fill="#000" d="M860.725 845.104l-12.56 22.612c-6.451-1.923-13.169-3.812-20.155-5.666-5.962-1.761-12.408-0.141-16.829 4.229s-6.117 10.796-4.427 16.778c1.69 5.982 6.499 10.571 12.553 11.981 11.348 3.004 22.015 6.161 31.827 9.317 1.689 0.539 3.45 0.815 5.222 0.819 6.196 0 11.904-3.357 14.915-8.771l25.991-46.777c3.973-7.163 2.297-16.137-3.994-21.384-8.195-6.85-15.975-14.184-23.294-21.964-4.166-4.476-10.408-6.381-16.363-4.993s-10.713 5.855-12.472 11.71-0.251 12.205 3.954 16.645c4.995 5.313 10.205 10.467 15.632 15.461z"></path>
<path fill="#000" d="M769.664 849.644c-19.728-3.198-39.626-5.238-59.593-6.11-9.316-0.122-17.106 7.054-17.748 16.349-0.385 9.415 6.934 17.36 16.349 17.748 18.628 0.82 37.193 2.724 55.599 5.7 0.897 0.149 1.804 0.224 2.714 0.222 8.879-0.033 16.25-6.87 16.95-15.721s-5.507-16.761-14.27-18.188z"></path>
<path fill="#000" d="M649.727 845.292c-20.212 2.094-40.198 5.966-59.729 11.57-5.856 1.704-10.358 6.403-11.81 12.326s0.366 12.172 4.77 16.392c4.404 4.22 10.724 5.769 16.58 4.065 17.605-5.052 35.623-8.535 53.841-10.41 9.373-0.99 16.169-9.39 15.18-18.764s-9.39-16.169-18.764-15.18z"></path>
<path fill="#000" d="M460.777 187.722c0 28.275 22.921 51.197 51.197 51.197s51.197-22.921 51.197-51.197c0-28.275-22.921-51.197-51.197-51.197s-51.197 22.921-51.197 51.197zM511.974 170.657c9.425 0 17.066 7.64 17.066 17.066s-7.64 17.066-17.066 17.066-17.066-7.64-17.066-17.066 7.64-17.066 17.066-17.066z"></path>
</svg>
