<?xml version="1.0" encoding="utf-8"?>
<!-- Generator: Adobe Illustrator 17.0.0, SVG Export Plug-In . SVG Version: 6.00 Build 0)  -->
<!DOCTYPE svg PUBLIC "-//W3C//DTD SVG 1.1//EN" "http://www.w3.org/Graphics/SVG/1.1/DTD/svg11.dtd">
<svg version="1.1" id="Layer_1" xmlns="http://www.w3.org/2000/svg" xmlns:xlink="http://www.w3.org/1999/xlink" x="0px" y="0px"
	 width="60px" height="60px" viewBox="0 0 60 60" enable-background="new 0 0 60 60" xml:space="preserve">
<g>
	<path d="M47.024,11.096c-3.49-6.022-9.688-9.702-16.581-9.842c-0.294-0.006-0.59-0.006-0.885,0
		c-6.893,0.141-13.091,3.82-16.581,9.842c-3.567,6.156-3.665,13.55-0.261,19.78l14.259,26.098c0.006,0.012,0.013,0.023,0.019,0.035
		c0.627,1.09,1.751,1.741,3.006,1.741c1.255,0,2.379-0.651,3.006-1.741c0.007-0.011,0.013-0.023,0.019-0.035l14.259-26.098
		C50.689,24.646,50.591,17.251,47.024,11.096L47.024,11.096z M30.001,27.304c-4.459,0-8.086-3.627-8.086-8.086
		s3.627-8.086,8.086-8.086c4.459,0,8.086,3.627,8.086,8.086S34.46,27.304,30.001,27.304z"/>
</g>
</svg>
