<!-- Generated by IcoMoon.io -->
<svg version="1.1" xmlns="http://www.w3.org/2000/svg" width="1024" height="1024" viewBox="0 0 1024 1024">
<title></title>
<g id="icomoon-ignore">
</g>
<path fill="#000" d="M138.014 406.994h154.988c11.046 0 19.997-8.951 19.997-19.997s-8.951-19.997-19.997-19.997h-154.988c-11.046 0-19.997 8.951-19.997 19.997s8.951 19.997 19.997 19.997z"></path>
<path fill="#000" d="M138.014 545.488h154.988c11.046 0 19.997-8.951 19.997-19.997s-8.951-19.997-19.997-19.997h-154.988c-11.046 0-19.997 8.951-19.997 19.997s8.951 19.997 19.997 19.997z"></path>
<path fill="#000" d="M329.992 880.724c-4.188-10.063-16.031-14.993-26.112-10.823-10.063 4.17-14.974 16.068-10.805 26.112 4.188 10.063 16.031 14.974 26.094 10.823 10.081-4.133 15.030-16.049 10.823-26.112v0z"></path>
<path fill="#000" d="M1018.645 571.248l-237.903-255.361 72.833-72.666c12.658-12.509 19.626-29.207 19.626-46.999 0-17.55-6.801-34.063-19.126-46.516-25.501-25.761-67.496-26.094-93.59-0.742-0.055 0.055-0.129 0.129-0.186 0.186l-99.872 99.631h-37.306v-76.817c0-11.046-8.951-19.997-19.997-19.997h-105.914v-16.346c0-11.046-8.951-19.997-19.997-19.997s-19.997 8.951-19.997 19.997v16.346h-73.056v-16.346c0-11.046-8.951-19.997-19.997-19.997s-19.997 8.951-19.997 19.997v16.346h-73.093v-16.346c0-11.046-8.951-19.997-19.997-19.997s-19.997 8.951-19.997 19.997v16.346h-73.074v-16.346c0-11.046-8.951-19.997-19.997-19.997s-19.997 8.951-19.997 19.997v16.346h-98.019c-11.046 0-19.997 8.951-19.997 19.997v716.413c0 11.046 8.951 19.997 19.997 19.997h204.154c11.046 0 19.997-8.951 19.997-19.997s-8.951-19.997-19.997-19.997h-184.158v-676.42h78.022v18.143c0 11.046 8.951 19.997 19.997 19.997s19.997-8.951 19.997-19.997v-18.143h73.074v18.143c0 11.046 8.951 19.997 19.997 19.997s19.997-8.951 19.997-19.997v-18.143h73.074v18.143c0 11.046 8.951 19.997 19.997 19.997s19.997-8.951 19.997-19.997v-18.143h73.056v18.143c0 11.046 8.951 19.997 19.997 19.997s19.978-8.951 19.978-19.997v-18.143h85.917v56.914c-35.916 1.464-70.239 16.624-95.702 41.958l-147.185 147.185c-8.896 8.896-7.246 24.13 3.28 30.931 16.569 10.712 35.156 17.642 54.56 20.442 6.468 0.926 13.029 1.408 19.645 1.408 0.037 0 0.055 0 0.092 0l-22.962 22.906c-1.668 1.668-2.984 3.595-3.966 5.689l-64.16 96.37c-5.782 8.691-8.136 18.607-7.283 28.206h-181.434c-11.046 0-19.997 8.951-19.997 19.997s8.951 19.997 19.997 19.997h225.245c8.655 0 17.384-2.891 24.518-7.728l97.519-66.272c1.149-0.76 2.261-1.649 3.244-2.613l45.238-45.126 49.353 49.241v256.898h-183.027c-11.046 0-19.997 8.951-19.997 19.997s8.951 19.997 19.997 19.997h203.024c11.046 0 19.997-8.951 19.997-19.997v-237.847c25.278 20.998 56.802 32.451 90.105 32.451h79.801c16.587 0 32.692 6.876 44.051 18.774l152.393 161.938c12.121 12.88 34.563 4.003 34.563-13.714v-265.109c0-5.041-1.927-9.915-5.356-13.603v0zM515.707 319.131c19.367-19.367 45.905-30.356 73.297-30.356h31.339l-124.613 124.316c-11.527 11.064-22.443 21.924-37.214 28.762-21.794 10.1-47.109 11.712-70.016 4.485l127.208-127.208zM788.432 177.561c10.434-10.045 27.094-9.952 37.214 0.278 4.855 4.911 7.543 11.434 7.543 18.366 0 7.024-2.743 13.621-7.802 18.625l-209.010 208.547-10.063-10.081c-9.433-9.433-21.331-16.364-34.193-19.923l216.312-215.811zM365.297 643.174c-1.705 1.167-3.299 1.038-4.8-0.445-2.205-2.187-1.093-3.873-0.482-4.781l52.262-78.504 30.875 30.82-77.855 52.91zM474.436 564.947l-37.102-37.102 38.103-38.029c3.595 13.029 10.731 24.908 20.256 34.452l9.767 9.73-31.024 30.949zM984.026 799.551l-117.923-125.317c-18.977-19.866-45.609-31.264-73.074-31.264h-79.801c-27.020 0-52.429-10.49-71.535-29.559l-117.775-117.515c-16.994-12.751-13.195-41.013 0-54.43 14.844-14.437 39.585-14.418 54.097 0.111l95.683 95.683c7.691 7.691 20.59 7.691 28.281 0 7.802-7.802 7.802-20.479 0-28.281l-57.321-57.321 107.749-107.508 231.601 248.614 0.018 206.787z"></path>
</svg>
