<?xml version="1.0" encoding="utf-8"?>
<!-- Generator: Adobe Illustrator 17.0.0, SVG Export Plug-In . SVG Version: 6.00 Build 0)  -->
<!DOCTYPE svg PUBLIC "-//W3C//DTD SVG 1.1//EN" "http://www.w3.org/Graphics/SVG/1.1/DTD/svg11.dtd">
<svg version="1.1" id="Capa_1" xmlns="http://www.w3.org/2000/svg" xmlns:xlink="http://www.w3.org/1999/xlink" x="0px" y="0px"
	 width="60px" height="60px" viewBox="0 0 60 60" enable-background="new 0 0 60 60" xml:space="preserve">
<g>
	<g>
		<path d="M9.82,24.334h8.363c0.596,0,1.079-0.483,1.079-1.079s-0.483-1.079-1.079-1.079H9.82c-0.596,0-1.079,0.483-1.079,1.079
			S9.224,24.334,9.82,24.334z"/>
		<path d="M9.82,31.807h8.363c0.596,0,1.079-0.483,1.079-1.079s-0.483-1.079-1.079-1.079H9.82c-0.596,0-1.079,0.483-1.079,1.079
			C8.741,31.324,9.224,31.807,9.82,31.807z"/>
		<path d="M20.179,49.896c-0.226-0.543-0.865-0.809-1.409-0.584c-0.543,0.225-0.808,0.867-0.583,1.409
			c0.226,0.543,0.865,0.808,1.408,0.584C20.139,51.082,20.406,50.439,20.179,49.896L20.179,49.896z"/>
		<path d="M57.338,33.197L44.501,19.418l3.93-3.921c0.683-0.675,1.059-1.576,1.059-2.536c0-0.947-0.367-1.838-1.032-2.51
			c-1.376-1.39-3.642-1.408-5.05-0.04c-0.003,0.003-0.007,0.007-0.01,0.01l-5.389,5.376h-2.013v-4.145
			c0-0.596-0.483-1.079-1.079-1.079h-5.715V9.691c0-0.596-0.483-1.079-1.079-1.079s-1.079,0.483-1.079,1.079v0.882h-3.942V9.691
			c0-0.596-0.483-1.079-1.079-1.079s-1.079,0.483-1.079,1.079v0.882H17V9.691c0-0.596-0.483-1.079-1.079-1.079
			s-1.079,0.483-1.079,1.079v0.882h-3.943V9.691c0-0.596-0.483-1.079-1.079-1.079S8.741,9.095,8.741,9.691v0.882H3.452
			c-0.596,0-1.079,0.483-1.079,1.079v38.657c0,0.596,0.483,1.079,1.079,1.079h11.016c0.596,0,1.079-0.483,1.079-1.079
			s-0.483-1.079-1.079-1.079H4.531V12.731h4.21v0.979c0,0.596,0.483,1.079,1.079,1.079s1.079-0.483,1.079-1.079v-0.979h3.943v0.979
			c0,0.596,0.483,1.079,1.079,1.079S17,14.306,17,13.71v-0.979h3.943v0.979c0,0.596,0.483,1.079,1.079,1.079
			s1.079-0.483,1.079-1.079v-0.979h3.942v0.979c0,0.596,0.483,1.079,1.079,1.079S29.2,14.306,29.2,13.71v-0.979h4.636v3.071
			c-1.938,0.079-3.79,0.897-5.164,2.264l-7.942,7.942c-0.48,0.48-0.391,1.302,0.177,1.669c0.894,0.578,1.897,0.952,2.944,1.103
			c0.349,0.05,0.703,0.076,1.06,0.076c0.002,0,0.003,0,0.005,0l-1.239,1.236c-0.09,0.09-0.161,0.194-0.214,0.307l-3.462,5.2
			c-0.312,0.469-0.439,1.004-0.393,1.522h-9.79c-0.596,0-1.079,0.483-1.079,1.079s0.483,1.079,1.079,1.079h12.154
			c0.467,0,0.938-0.156,1.323-0.417l5.262-3.576c0.062-0.041,0.122-0.089,0.175-0.141l2.441-2.435l2.663,2.657v13.862H23.96
			c-0.596,0-1.079,0.483-1.079,1.079s0.483,1.079,1.079,1.079h10.955c0.596,0,1.079-0.483,1.079-1.079V37.474
			c1.364,1.133,3.065,1.751,4.862,1.751h4.306c0.895,0,1.764,0.371,2.377,1.013l8.223,8.738c0.654,0.695,1.865,0.216,1.865-0.74
			V33.931C57.627,33.659,57.523,33.396,57.338,33.197L57.338,33.197z M30.2,19.593c1.045-1.045,2.477-1.638,3.955-1.638h1.691
			l-6.724,6.708c-0.622,0.597-1.211,1.183-2.008,1.552c-1.176,0.545-2.542,0.632-3.778,0.242L30.2,19.593z M44.916,11.954
			c0.563-0.542,1.462-0.537,2.008,0.015c0.262,0.265,0.407,0.617,0.407,0.991c0,0.379-0.148,0.735-0.421,1.005L35.632,25.218
			l-0.543-0.544c-0.509-0.509-1.151-0.883-1.845-1.075L44.916,11.954z M22.084,37.078c-0.092,0.063-0.178,0.056-0.259-0.024
			c-0.119-0.118-0.059-0.209-0.026-0.258l2.82-4.236l1.666,1.663L22.084,37.078z M27.973,32.857l-2.002-2.002l2.056-2.052
			c0.194,0.703,0.579,1.344,1.093,1.859l0.527,0.525L27.973,32.857z M55.47,45.516l-6.363-6.762
			c-1.024-1.072-2.461-1.687-3.943-1.687h-4.306c-1.458,0-2.829-0.566-3.86-1.595l-6.355-6.341c-0.917-0.688-0.712-2.213,0-2.937
			c0.801-0.779,2.136-0.778,2.919,0.006l5.163,5.163c0.415,0.415,1.111,0.415,1.526,0c0.421-0.421,0.421-1.105,0-1.526l-3.093-3.093
			l5.814-5.801l12.497,13.415L55.47,45.516L55.47,45.516z"/>
	</g>
</g>
</svg>
