<?xml version="1.0" encoding="utf-8"?>
<!-- Generator: Adobe Illustrator 17.0.0, SVG Export Plug-In . SVG Version: 6.00 Build 0)  -->
<!DOCTYPE svg PUBLIC "-//W3C//DTD SVG 1.1//EN" "http://www.w3.org/Graphics/SVG/1.1/DTD/svg11.dtd">
<svg version="1.1" id="Capa_1" xmlns="http://www.w3.org/2000/svg" xmlns:xlink="http://www.w3.org/1999/xlink" x="0px" y="0px"
	 width="60px" height="60px" viewBox="0 0 60 60" enable-background="new 0 0 60 60" xml:space="preserve">
<g>
	<g>
		<g>
			<path d="M53.911,49.851l-4.135-6.892c-1.91-3.181-2.919-6.825-2.919-10.534v-6.038c0-7.622-5.086-14.069-12.041-16.147V5.917
				c0-2.656-2.16-4.817-4.817-4.817c-2.656,0-4.817,2.16-4.817,4.817v4.323c-6.955,2.078-12.041,8.525-12.041,16.147v6.038
				c0,3.709-1.009,7.35-2.916,10.531L6.09,49.848c-0.224,0.373-0.229,0.836-0.014,1.214c0.214,0.378,0.612,0.612,1.045,0.612h45.757
				c0.434,0,0.833-0.234,1.048-0.609C54.14,50.689,54.133,50.222,53.911,49.851z"/>
		</g>
	</g>
	<g>
		<g>
			<path d="M22.416,54.083C23.774,56.92,26.65,58.9,30,58.9s6.225-1.98,7.584-4.817H22.416z"/>
		</g>
	</g>
</g>
</svg>
