<svg height="512pt" viewBox="0 -6 512.0029 512" width="512pt" xmlns="http://www.w3.org/2000/svg"><path d="m177.492188 168.953125c4.140624 0 7.5-3.359375 7.5-7.5v-14.210937c0-4.140626-3.359376-7.5-7.5-7.5-4.144532 0-7.5 3.359374-7.5 7.5v14.210937c0 4.140625 3.355468 7.5 7.5 7.5zm0 0"/><path d="m334.511719 168.953125c4.140625 0 7.5-3.359375 7.5-7.5v-14.210937c0-4.140626-3.359375-7.5-7.5-7.5-4.144531 0-7.5 3.359374-7.5 7.5v14.210937c0 4.140625 3.355469 7.5 7.5 7.5zm0 0"/><path d="m256 176.535156c9.714844 0 18.835938-4.058594 25.023438-11.136718 2.726562-3.117188 2.410156-7.855469-.710938-10.582032-3.117188-2.726562-7.855469-2.410156-10.582031.710938-3.335938 3.816406-8.34375 6.007812-13.730469 6.007812s-10.390625-2.1875-13.730469-6.007812c-2.726562-3.117188-7.464843-3.4375-10.582031-.710938-3.117188 2.726563-3.4375 7.464844-.710938 10.585938 6.1875 7.074218 15.308594 11.132812 25.023438 11.132812zm0 0"/><path d="m447.980469 88.730469c-16.519531-48.453125-46.03125-77.425781-87.722657-86.113281-13.597656-2.828126-28.5625-6.46875-37.332031 7.730468-9.597656 15.542969-30.820312 44.808594-66.925781 69.96875-36.105469-25.160156-57.328125-54.421875-66.921875-69.964844-8.765625-14.191406-23.773437-10.554687-37.335937-7.734374-41.691407 8.6875-71.203126 37.660156-87.722657 86.113281l-63.617187 186.558593c-.757813 2.214844-.433594 4.660157.875 6.605469.488281.726563 7.597656 11.199219 21.695312 27.257813v47.183594c0 4.144531 3.359375 7.5 7.5 7.5 4.144532 0 7.5-3.355469 7.5-7.5v-30.914063c7.335938 7.601563 15.789063 15.875 25.40625 24.582031 2.753906 2.496094 5.664063 5.070313 8.695313 7.695313v32.855469c0 4.140624 3.359375 7.5 7.5 7.5s7.5-3.359376 7.5-7.5v-20.324219c10.1875 8.207031 21.5625 16.773437 34.101562 25.410156v29.132813c0 4.140624 3.359375 7.5 7.5 7.5 4.144531 0 7.5-3.359376 7.5-7.5v-19.148438c10.644531 6.847656 22.003907 13.667969 34.101563 20.320312v33.042969c0 4.144531 3.359375 7.5 7.5 7.5 4.144531 0 7.5-3.355469 7.5-7.5v-25.078125c10.839844 5.546875 22.214844 10.921875 34.101562 16.050782v43.246093c0 4.140625 3.359375 7.5 7.5 7.5s7.5-3.359375 7.5-7.5v-37.035156c6.242188 2.480469 12.597656 4.894531 19.105469 7.210937 1.617187.578126 3.414063.578126 5.035156 0 6.507813-2.316406 12.863281-4.730468 19.101563-7.210937v37.035156c0 4.140625 3.359375 7.5 7.5 7.5 4.144531 0 7.5-3.359375 7.5-7.5v-43.246093c11.890625-5.125 23.265625-10.503907 34.101562-16.050782v25.078125c0 4.144531 3.359375 7.5 7.5 7.5 4.144532 0 7.5-3.355469 7.5-7.5v-33.042969c12.097656-6.652343 23.460938-13.472656 34.105469-20.320312v19.148438c0 4.140624 3.355469 7.5 7.5 7.5 4.140625 0 7.5-3.359376 7.5-7.5v-29.132813c12.535156-8.636719 23.914063-17.203125 34.097656-25.410156v20.324219c0 4.140624 3.359375 7.5 7.5 7.5 4.144531 0 7.5-3.359376 7.5-7.5v-32.855469c3.03125-2.625 5.941407-5.199219 8.699219-7.695313 9.617188-8.707031 18.066406-16.980468 25.40625-24.582031v30.914063c0 4.144531 3.355469 7.5 7.5 7.5 4.140625 0 7.5-3.355469 7.5-7.5v-47.183594c14.097656-16.058594 21.207031-26.53125 21.695312-27.257813 1.308594-1.945312 1.632813-4.386719.875-6.605469zm-369.761719 4.839843c14.894531-43.6875 39.945312-68.632812 76.578125-76.269531 6.261719-1.300781 17.066406-6.273437 21.515625.929688 10.605469 17.167969 34.515625 50.058593 75.527344 77.402343 2.519531 1.679688 5.800781 1.679688 8.320312 0 41.011719-27.34375 64.925782-60.230468 75.53125-77.40625 4.265625-6.90625 15.296875-2.21875 21.511719-.925781 36.636719 7.632813 61.6875 32.582031 76.582031 76.269531l13.242188 38.824219c-.117188.125-.226563.246094-.339844.371094-46.1875 50.402344-102.566406 91.519531-165.066406 119.316406-4.386719 1.953125-23.652344 11.285157-25.621094 10.539063-72.636719-27.535156-138.34375-72.558594-190.710938-129.882813-.105468-.117187-.207031-.230469-.3125-.34375zm360.335938 245.316407c-36.554688 33.09375-97.773438 78.789062-182.554688 109.464843-84.550781-30.59375-145.660156-76.132812-182.15625-109.105468-32.644531-29.492188-51.914062-54.421875-58.003906-62.753906l7.765625-22.777344c.089843.109375.1875.222656.277343.332031 22.8125 27.769531 48.785157 52.9375 76.835938 75.378906 39.515625 31.609375 83.488281 57.695313 130.339844 76.847657 7.40625 3.027343 14.886718 5.894531 22.425781 8.574218 1.632813.582032 3.402344.582032 5.035156 0 61.613281-21.949218 118.371094-55.152344 168.695313-98.683594 3.132812-2.710937 3.476562-7.445312.769531-10.578124-2.644531-3.058594-7.476563-3.453126-10.582031-.765626-30.140625 26.070313-62.652344 48.328126-97.171875 66.5625-20.710938 10.941407-42.148438 20.433594-64.230469 28.429688-2.585938-.9375-5.144531-2.019531-7.753906-2.890625-35.246094-13.441406-68.914063-30.894531-100.355469-51.722656-44.535156-29.503907-85.519531-66.03125-118.460937-108.1875-.03125-.035157-.058594-.074219-.089844-.113281l16.078125-47.148438c.535156.527344 1.078125 1.046875 1.617187 1.574219 20 19.546875 41.675782 37.769531 64.460938 54.164062 4.414062 3.175781 10.667968 7.597657 15.007812 1.433594 2.339844-3.320313 1.492188-8.125-1.8125-10.453125-14.652344-10.320312-29.691406-21.117188-42.765625-33.425781-10.75-9.292969-21.125-19.015625-31.113281-29.125l8.660156-25.386719c19.652344 20.886719 41.097656 40.042969 63.890625 57.4375 39.480469 30.125 83.496094 54.332031 130.019531 71.691406 1.6875.628906 3.546876.628906 5.234376 0 26.246093-9.765625 51.699218-21.765625 75.957031-35.757812 42.425781-24.460938 81.261719-54.980469 115.105469-90.375.949218-.996094 1.902343-1.992188 2.847656-2.996094l8.65625 25.390625c-.390625.394531-.777344.792969-1.167969 1.1875-13.175781 13.257813-27 25.8125-41.472656 37.640625-47.878907 39.144531-101.21875 69.351562-158.539063 89.769531-2.597656.921875-5.421875.917969-8 .003907-35.933594-12.800782-70.636718-29.617188-103.144531-49.984376-3.507813-2.199218-8.136719-1.132812-10.335937 2.375-2.199219 3.511719-1.136719 8.136719 2.375 10.335938 33.429687 20.945312 69.117187 38.238281 106.082031 51.40625 5.816406 2.074219 12.234375 2.058594 18.050781-.003906 59.140625-20.976563 114.453125-52.589844 163.007812-92.289063 13.289063-10.867187 26.257813-22.5 38.542969-34.613281l16.078125 47.148438c-.238281.304687-.480468.609374-.726562.917968-13.308594 16.832032-28.605469 31.328125-42.902344 47.214844-2.945312 2.84375-3.019531 7.667969-.175781 10.605469 2.769531 2.859375 7.632812 3.050781 10.605469.171875 13.738281-13.296875 26.785156-27.332032 38.929687-42.101563l7.769531 22.789063c-6.046875 8.289062-25.113281 32.976562-57.605468 62.390625zm0 0"/></svg>