<!-- Generated by IcoMoon.io -->
<svg version="1.1" xmlns="http://www.w3.org/2000/svg" width="1024" height="1024" viewBox="0 0 1024 1024">
<title></title>
<g id="icomoon-ignore">
</g>
<path fill="#000" d="M354.98 349.2c8.281 0 15-6.719 15-15v-28.422c0-8.281-6.719-15-15-15-8.289 0-15 6.719-15 15v28.422c0 8.281 6.711 15 15 15z"></path>
<path fill="#000" d="M669.016 349.2c8.281 0 15-6.719 15-15v-28.422c0-8.281-6.719-15-15-15-8.289 0-15 6.719-15 15v28.422c0 8.281 6.711 15 15 15z"></path>
<path fill="#000" d="M511.994 364.364c19.43 0 37.672-8.117 50.047-22.273 5.453-6.234 4.82-15.711-1.422-21.164-6.234-5.453-15.711-4.82-21.164 1.422-6.672 7.633-16.687 12.016-27.461 12.016s-20.781-4.375-27.461-12.016c-5.453-6.234-14.93-6.875-21.164-1.422s-6.875 14.93-1.422 21.172c12.375 14.148 30.617 22.265 50.047 22.265z"></path>
<path fill="#000" d="M895.951 188.757c-33.039-96.906-92.062-154.85-175.443-172.225-27.195-5.656-57.125-12.937-74.664 15.461-19.195 31.086-61.64 89.617-133.85 139.936-72.211-50.32-114.655-108.842-133.842-139.928-17.531-28.383-47.547-21.109-74.671-15.469-83.382 17.375-142.404 75.32-175.443 172.225l-127.233 373.113c-1.516 4.43-0.867 9.32 1.75 13.211 0.977 1.453 15.195 22.398 43.39 54.515v94.367c0 8.289 6.719 15 15 15 8.289 0 15-6.711 15-15v-61.828c14.672 15.203 31.578 31.75 50.812 49.164 5.508 4.992 11.328 10.141 17.391 15.391v65.711c0 8.281 6.719 15 15 15s15-6.719 15-15v-40.648c20.375 16.414 43.125 33.547 68.203 50.82v58.265c0 8.281 6.719 15 15 15 8.289 0 15-6.719 15-15v-38.297c21.289 13.695 44.008 27.336 68.203 40.64v66.086c0 8.289 6.719 15 15 15 8.289 0 15-6.711 15-15v-50.156c21.68 11.094 44.429 21.844 68.203 32.101v86.492c0 8.281 6.719 15 15 15s15-6.719 15-15v-74.070c12.484 4.961 25.195 9.789 38.211 14.422 3.234 1.156 6.828 1.156 10.070 0 13.016-4.633 25.726-9.461 38.203-14.422v74.070c0 8.281 6.719 15 15 15 8.289 0 15-6.719 15-15v-86.492c23.781-10.25 46.531-21.008 68.203-32.101v50.156c0 8.289 6.719 15 15 15 8.289 0 15-6.711 15-15v-66.086c24.195-13.305 46.922-26.945 68.211-40.64v38.297c0 8.281 6.711 15 15 15 8.281 0 15-6.719 15-15v-58.265c25.070-17.273 47.828-34.406 68.195-50.82v40.648c0 8.281 6.719 15 15 15 8.289 0 15-6.719 15-15v-65.711c6.062-5.25 11.883-10.398 17.398-15.391 19.234-17.414 36.133-33.961 50.812-49.164v61.828c0 8.289 6.711 15 15 15 8.281 0 15-6.711 15-15v-94.367c28.195-32.117 42.414-53.062 43.39-54.515 2.617-3.891 3.266-8.773 1.75-13.211zM156.436 198.435c29.789-87.375 79.89-137.264 153.154-152.537 12.523-2.602 34.133-12.547 43.031 1.859 21.211 34.336 69.031 100.117 151.053 154.803 5.039 3.359 11.601 3.359 16.641 0 82.023-54.687 129.85-120.459 151.061-154.811 8.531-13.812 30.594-4.437 43.023-1.852 73.273 15.266 123.373 65.164 153.162 152.537l26.484 77.648c-0.234 0.25-0.453 0.492-0.68 0.742-92.374 100.804-205.131 183.037-330.129 238.63-8.773 3.906-47.304 22.57-51.242 21.078-145.272-55.070-276.685-145.115-381.418-259.763-0.211-0.234-0.414-0.461-0.625-0.687zM877.099 689.063c-73.109 66.187-195.545 157.576-365.105 218.927-169.1-61.187-291.318-152.264-364.308-218.209-65.289-58.984-103.828-108.842-116.006-125.506l15.531-45.554c0.18 0.219 0.375 0.445 0.555 0.664 45.625 55.539 97.57 105.874 153.67 150.756 79.031 63.218 166.975 115.389 260.677 153.693 14.812 6.055 29.773 11.789 44.851 17.148 3.266 1.164 6.805 1.164 10.070 0 123.225-43.898 236.74-110.303 337.387-197.365 6.266-5.422 6.953-14.891 1.539-21.156-5.289-6.117-14.953-6.906-21.164-1.531-60.281 52.14-125.303 96.656-194.342 133.123-41.422 21.883-84.296 40.867-128.459 56.859-5.172-1.875-10.289-4.039-15.508-5.781-70.492-26.883-137.826-61.789-200.709-103.445-89.070-59.007-171.037-132.061-236.92-216.373-0.062-0.070-0.117-0.148-0.18-0.227l32.156-94.296c1.070 1.055 2.156 2.094 3.234 3.148 40 39.094 83.351 75.539 128.92 108.327 8.828 6.352 21.336 15.195 30.015 2.867 4.68-6.641 2.984-16.25-3.625-20.906-29.305-20.641-59.382-42.234-85.531-66.851-21.5-18.586-42.25-38.031-62.226-58.25l17.32-50.773c39.304 41.773 82.195 80.085 127.78 114.873 78.96 60.25 166.99 108.662 260.037 143.381 3.375 1.258 7.094 1.258 10.469 0 52.492-19.531 103.398-43.531 151.912-71.515 84.851-48.922 162.522-109.959 230.209-180.748 1.898-1.992 3.805-3.984 5.695-5.992l17.312 50.781c-0.781 0.789-1.555 1.586-2.336 2.375-26.351 26.515-54 51.625-82.945 75.281-95.757 78.289-202.435 138.701-317.075 179.537-5.195 1.844-10.844 1.836-16 0.008-71.867-25.601-141.272-59.234-206.287-99.968-7.016-4.398-16.273-2.266-20.672 4.75-4.398 7.023-2.273 16.273 4.75 20.672 66.859 41.89 138.233 76.476 212.162 102.812 11.633 4.148 24.469 4.117 36.101-0.008 118.28-41.953 228.904-105.179 326.012-184.576 26.578-21.734 52.515-45 77.086-69.226l32.156 94.296c-0.477 0.609-0.961 1.219-1.453 1.836-26.617 33.664-57.211 62.656-85.804 94.429-5.891 5.687-6.039 15.336-0.352 21.211 5.539 5.719 15.266 6.102 21.211 0.344 27.476-26.594 53.57-54.664 77.859-84.203l15.539 45.578c-12.094 16.578-50.226 65.953-115.209 124.78z"></path>
</svg>
