<?xml version="1.0" encoding="utf-8"?>
<!-- Generator: Adobe Illustrator 17.0.0, SVG Export Plug-In . SVG Version: 6.00 Build 0)  -->
<!DOCTYPE svg PUBLIC "-//W3C//DTD SVG 1.1//EN" "http://www.w3.org/Graphics/SVG/1.1/DTD/svg11.dtd">
<svg version="1.1" id="Capa_1" xmlns="http://www.w3.org/2000/svg" xmlns:xlink="http://www.w3.org/1999/xlink" x="0px" y="0px"
	 width="60px" height="60px" viewBox="0 0 60 60" enable-background="new 0 0 60 60" xml:space="preserve">
<g>
	<g>
		<path d="M55.923,52.792L40.81,37.679c2.927-3.616,4.69-8.211,4.69-13.215c0-11.599-9.437-21.036-21.036-21.036
			S3.428,12.865,3.428,24.464S12.865,45.5,24.464,45.5c5.004,0,9.599-1.763,13.215-4.69l15.113,15.113
			c0.432,0.432,0.999,0.649,1.566,0.649c0.567,0,1.134-0.217,1.566-0.649C56.789,55.057,56.789,53.658,55.923,52.792z
			 M24.464,41.072c-9.158,0-16.607-7.449-16.607-16.607S15.306,7.858,24.464,7.858s16.607,7.449,16.607,16.607
			C41.071,33.623,33.622,41.072,24.464,41.072z"/>
	</g>
</g>
</svg>
