<?xml version="1.0" encoding="utf-8"?>
<!-- Generator: Adobe Illustrator 17.0.0, SVG Export Plug-In . SVG Version: 6.00 Build 0)  -->
<!DOCTYPE svg PUBLIC "-//W3C//DTD SVG 1.1//EN" "http://www.w3.org/Graphics/SVG/1.1/DTD/svg11.dtd">
<svg version="1.1" id="Layer_1" xmlns="http://www.w3.org/2000/svg" xmlns:xlink="http://www.w3.org/1999/xlink" x="0px" y="0px"
	 width="60px" height="60px" viewBox="0 0 60 60" enable-background="new 0 0 60 60" xml:space="preserve">
<g>
	<path d="M53.73,11.478c0,4.156-3.368,7.524-7.524,7.524s-7.524-3.369-7.524-7.524s3.368-7.524,7.524-7.524
		S53.73,7.323,53.73,11.478z"/>
	<path d="M46.206,20.739c-5.107,0-9.26-4.154-9.26-9.261s4.153-9.26,9.26-9.26s9.26,4.154,9.26,9.26
		C55.466,16.585,51.313,20.739,46.206,20.739z M46.206,5.69c-3.193,0-5.788,2.598-5.788,5.788c0,3.19,2.595,5.788,5.788,5.788
		s5.788-2.598,5.788-5.788S49.399,5.69,46.206,5.69z"/>
	<path d="M53.73,48.52c0,4.155-3.368,7.524-7.524,7.524s-7.524-3.369-7.524-7.524c0-4.156,3.368-7.525,7.524-7.525
		S53.73,44.365,53.73,48.52z"/>
	<path d="M46.206,57.782c-5.107,0-9.26-4.154-9.26-9.26c0-5.107,4.153-9.261,9.26-9.261s9.26,4.154,9.26,9.261
		C55.466,53.627,51.313,57.782,46.206,57.782z M46.206,42.732c-3.193,0-5.788,2.598-5.788,5.788s2.595,5.788,5.788,5.788
		s5.788-2.598,5.788-5.788S49.399,42.732,46.206,42.732z"/>
	<path d="M21.318,29.999c0,4.156-3.369,7.524-7.524,7.524S6.27,34.155,6.27,29.999s3.369-7.524,7.524-7.524
		C17.95,22.475,21.318,25.843,21.318,29.999z"/>
	<path d="M13.794,39.259c-5.107,0-9.26-4.153-9.26-9.26s4.154-9.26,9.26-9.26c5.107,0,9.261,4.153,9.261,9.26
		S18.901,39.259,13.794,39.259z M13.794,24.211c-3.193,0-5.788,2.597-5.788,5.788c0,3.19,2.595,5.788,5.788,5.788
		s5.788-2.597,5.788-5.788C19.582,26.809,16.987,24.211,13.794,24.211z"/>
	<path d="M19.26,28.888c-0.806,0-1.588-0.419-2.014-1.169c-0.632-1.109-0.243-2.524,0.866-3.158l21.482-12.247
		c1.109-0.637,2.524-0.248,3.158,0.866c0.632,1.109,0.243,2.524-0.866,3.158L20.404,28.585C20.042,28.79,19.649,28.888,19.26,28.888
		z"/>
	<path d="M40.74,47.989c-0.389,0-0.783-0.098-1.144-0.304L18.114,35.438c-1.109-0.632-1.498-2.047-0.866-3.158
		c0.63-1.111,2.046-1.502,3.158-0.866l21.482,12.247c1.109,0.632,1.498,2.047,0.866,3.158C42.326,47.569,41.543,47.989,40.74,47.989
		z"/>
</g>
</svg>
