<!-- Generated by IcoMoon.io -->
<svg version="1.1" xmlns="http://www.w3.org/2000/svg" width="1024" height="1024" viewBox="0 0 1024 1024">
<title></title>
<g id="icomoon-ignore">
</g>
<path fill="#000" d="M891.96 836.988c8.232 0 14.902-6.672 14.902-14.902v-590.153c0-31.434-22.472-58.186-53.434-63.61l-100.388-17.588c-10.486-40.702-33.2-74.886-67.218-100.506-43.626-32.86-103.458-50.228-173.024-50.228s-129.4 17.368-173.026 50.228c-33.966 25.582-56.662 59.702-67.168 100.324l-101.99 17.792c-30.988 5.406-53.478 32.16-53.478 63.616v747.331c0 24.652 20.056 44.708 44.708 44.708h700.315c24.652 0 44.708-20.056 44.708-44.708v-86.048c0-8.23-6.672-14.902-14.902-14.902s-14.902 6.672-14.902 14.902v86.048c0 8.218-6.684 14.902-14.902 14.902h-265.683v-513.057l41.482 38.872c8.882 8.358 21.334 11.356 32.9 8.182 11.732-3.19 20.788-12.056 24.228-23.716l54.916-186.18c11.346-34.084 9.886-77.162 9.714-112.826 0-8.012-0.39-15.85-1.158-23.506l89.726 15.72c16.67 2.92 28.772 17.324 28.772 34.25v590.151c0 8.232 6.67 14.904 14.902 14.904zM512.797 29.806c104.184 0 215.436 45.482 217.076 172.818l-1.646 4.012c-35.672-70.816-113.72-112.128-215.43-112.128-80.532 0-147.91 26.232-189.722 73.864-5.43 6.186-4.816 15.602 1.37 21.030 6.186 5.432 15.602 4.818 21.030-1.368 36.070-41.092 95.492-63.722 167.322-63.722 98.824 0 171.846 42.88 197.008 115.122-10.508 13.732-23.66 25.418-38.708 34.12l-158.3 91.528-158.3-91.528c-25.088-14.506-44.964-37.262-55.96-64.072l-2.814-6.86c1.64-127.334 112.89-172.816 217.074-172.816zM367.255 498.261c-1.76 1.65-3.696 1.44-4.7 1.168-1-0.272-2.776-1.074-3.46-3.386 0 0 0 0 0-0.002l-54.916-186.18c-4.558-15.454-7.3-31.354-8.182-47.412 12.186 14.718 26.95 27.292 43.582 36.908l148.38 85.792c0 0.002-117.030 109.67-120.704 113.112zM146.936 979.294v-80.402h179.952c39.822 0 72.22-32.398 72.22-72.22v-205.592c0-19.174-15.6-34.772-34.772-34.772h-130.416c-8.232 0-14.902 6.672-14.902 14.902s6.672 14.902 14.902 14.902h130.416c2.74 0 4.968 2.228 4.968 4.968v205.59c0 23.388-19.026 42.416-42.414 42.416h-179.954v-252.972h15.45c8.232 0 14.902-6.672 14.902-14.902s-6.672-14.902-14.902-14.902h-15.45v-354.347c0-16.938 12.11-31.344 28.796-34.254l91.32-15.932c-0.78 7.714-1.176 15.614-1.176 23.692-0.166 35.764-1.64 78.648 9.714 112.826l54.916 186.178c3.438 11.662 12.494 20.528 24.226 23.718 11.566 3.174 24.018 0.178 32.9-8.182l39.882-37.374v511.561h-265.675c-8.218 0-14.904-6.684-14.904-14.902zM566.671 994.196h-109.348v-539.491l55.474-51.984 53.874 50.486zM721.417 309.863l-54.916 186.18c-0.684 2.314-2.462 3.116-3.462 3.388s-2.94 0.482-4.702-1.17l-120.702-113.11 148.38-85.792c16.636-9.618 31.398-22.192 43.584-36.91-0.882 16.056-3.624 31.958-8.182 47.414z"></path>
<path fill="#000" d="M533.537 503.261c0 11.896-9.644 21.54-21.54 21.54s-21.54-9.644-21.54-21.54c0-11.896 9.644-21.54 21.54-21.54s21.54 9.644 21.54 21.54z"></path>
<path fill="#000" d="M533.537 680.463c0 11.896-9.644 21.54-21.54 21.54s-21.54-9.644-21.54-21.54c0-11.896 9.644-21.54 21.54-21.54s21.54 9.644 21.54 21.54z"></path>
<path fill="#000" d="M533.537 857.666c0 11.896-9.644 21.54-21.54 21.54s-21.54-9.644-21.54-21.54c0-11.896 9.644-21.54 21.54-21.54s21.54 9.644 21.54 21.54z"></path>
</svg>
