<!-- Generated by IcoMoon.io -->
<svg version="1.1" xmlns="http://www.w3.org/2000/svg" width="1024" height="1024" viewBox="0 0 1024 1024">
<title></title>
<g id="icomoon-ignore">
</g>
<path fill="#000" d="M961.146 348.085l-7.202-14.421c-4.218-8.429-14.47-11.844-22.899-7.627-1.252 0.627-2.423 1.406-3.486 2.319-61.903 52.772-153.282 51.671-213.897-2.577l-53.709-48.35c-5.681-5.075-14.037-5.773-20.48-1.707l-57.003 35.994-19.371-30.72-28.911 18.227 19.388 30.72-28.86 18.21-19.371-30.72-28.86 18.244 19.371 30.72-28.843 18.227-19.371-30.72-28.877 18.227 19.371 30.72-28.877 18.176-19.371-30.72-28.843 18.33 18.893 29.901-17.886 11.571c-1.877 1.212-3.413 2.731-5.239 4.079l-39.151 24.73-250.88 55.74c-39.121 8.529-66.959 43.245-66.782 83.287v115.9c0 9.425 7.642 17.067 17.067 17.067h443.733c1.146 0.002 2.289-0.113 3.413-0.341l235.52-47.123v30.396c0 9.425 7.642 17.067 17.067 17.067h290.133c9.425 0 17.067-7.642 17.067-17.067v-119.467c-0.109-92.425-21.623-183.571-62.857-266.291zM964.133 446.818c15.253 48.766 23.819 99.375 25.461 150.443h-244.666c23.313-38.007 84.924-113.154 219.204-150.443zM34.136 617.946c-0.113-24.038 16.602-44.879 40.090-49.988l249.634-55.467c-1.589 13.856 0.262 27.889 5.393 40.858l13.295 33.229c3.051 7.753 11.285 12.139 19.422 10.342l118.596-25.412c53.579-11.539 109.37 4.629 148.48 43.025l-169.95 33.98h-424.96v-30.566zM699.736 668.649l-240.64 48.128h-424.96v-34.133h426.667c1.146 0.002 2.289-0.113 3.413-0.341l235.52-47.121v33.468zM704.856 599.375l-36.403 7.27c-46.81-57.862-122.255-84.371-194.97-68.506l-104.585 22.394-7.953-19.866c-8.068-20.367-2.285-43.612 14.387-57.822l23.313-14.729 17.067 27.051 28.877-18.261-17.067-27.051 28.843-18.176 17.067 27.051 28.86-18.244-17.067-27.051 28.86-18.227 17.067 27.051 28.843-18.244-17.067-27.017 28.809-18.229 17.067 27.034 29.013-18.227-17.067-27.051 46.080-29.013 44.1 39.697c67.315 60.275 167.021 66.98 241.801 16.265 7.526 15.36 14.199 31.181 20.292 47.206-170.906 48.028-233.165 153.173-248.166 184.695zM989.87 716.779h-256v-85.333h256v85.333z"></path>
</svg>
