<!-- Generated by IcoMoon.io -->
<svg version="1.1" xmlns="http://www.w3.org/2000/svg" width="1024" height="1024" viewBox="0 0 1024 1024">
<title></title>
<g id="icomoon-ignore">
</g>
<path fill="#000" d="M978 270.024h-159.36l-17.304-84.696c-15.423-72.508-78.82-126.149-154.784-126.368h-269.080c-75.997 0.223-139.398 53.878-154.623 125.362l-0.185 1.038-17.304 84.664h-159.36c-25.384 0.032-45.955 20.594-46 45.972v603.044c0.027 25.394 20.606 45.973 45.997 46h932.003c25.394-0.027 45.973-20.606 46-45.997v-603.043c-0.045-25.382-20.616-45.944-45.997-45.976h-0.003zM250.104 190.936c12.677-59.669 64.84-103.817 127.348-104h269.076c62.528 0.183 114.691 44.331 127.216 103.146l0.152 0.854 16.168 79.096h-36.744l-14.688-71.888c-9.168-43.147-46.889-75.069-92.090-75.2h-269.070c-45.215 0.131-82.936 32.053-91.994 74.582l-0.11 0.618-14.688 71.888h-36.744zM724.736 270.024h-425.472l13.536-66.28c6.435-30.294 32.919-52.708 64.654-52.8h269.074c31.745 0.092 58.229 22.505 64.587 52.366l0.077 0.434zM28 316c0.014-9.936 8.064-17.986 17.999-18h932.001c9.936 0.014 17.986 8.064 18 17.999v154.401c-0.086 71.762-58.238 129.914-129.992 130h-708.008c-71.762-0.086-129.914-58.238-130-129.992v-0.008zM710.496 628.4h74v81.6c-0.005 5.521-4.479 9.995-10 10h-54c-5.519-0.009-9.991-4.481-10-9.999v-0.001zM239.496 628.4h74v81.6c-0.005 5.521-4.479 9.995-10 10h-54c-5.519-0.009-9.991-4.481-10-9.999v-0.001zM996 919.040c-0.014 9.936-8.064 17.986-17.999 18h-932.001c-9.936-0.014-17.986-8.064-18-17.999v-359.041c28.841 41.524 76.282 68.374 129.996 68.4h53.5v81.6c0.027 20.976 17.024 37.973 37.997 38h54.003c20.978-0.023 37.977-17.022 38-37.998v-81.602h341v81.6c0.027 20.976 17.024 37.973 37.997 38h54.003c20.978-0.023 37.977-17.022 38-37.998v-81.602h53.504c53.718-0.026 101.159-26.876 129.659-67.881l0.341-0.519z"></path>
</svg>
