<!-- Generated by IcoMoon.io -->
<svg version="1.1" xmlns="http://www.w3.org/2000/svg" width="1024" height="1024" viewBox="0 0 1024 1024">
<title></title>
<g id="icomoon-ignore">
</g>
<path fill="#000" d="M681.742 0.927c-0.007 0-0.017-0.007-0.027-0.007-0.041-0.014-0.079-0.027-0.12-0.041-0.195-0.062-0.387-0.099-0.582-0.154-0.014 0-0.027-0.007-0.041-0.007-0.267-0.075-0.535-0.161-0.809-0.223-0.099-0.027-0.202-0.048-0.302-0.072-0.247-0.055-0.497-0.086-0.744-0.127-0.267-0.048-0.528-0.099-0.788-0.134-0.093-0.014-0.188-0.021-0.281-0.034-0.274-0.034-0.548-0.048-0.815-0.065-0.247-0.014-0.49-0.041-0.73-0.048-0.093-0.007-0.195-0.007-0.288-0.007-0.295 0-0.579 0.007-0.867 0.021-0.216 0.007-0.439 0-0.658 0.014-0.106 0.007-0.216 0.021-0.322 0.027-0.295 0.027-0.582 0.069-0.87 0.106-0.202 0.027-0.411 0.041-0.617 0.075-0.113 0.021-0.226 0.041-0.343 0.065-0.288 0.048-0.562 0.12-0.843 0.182-0.206 0.048-0.408 0.086-0.61 0.14-0.113 0.034-0.226 0.058-0.343 0.093-0.267 0.079-0.528 0.175-0.795 0.26-0.209 0.075-0.428 0.134-0.637 0.216-0.106 0.041-0.206 0.075-0.315 0.12-0.243 0.093-0.483 0.209-0.723 0.315-0.233 0.106-0.469 0.209-0.696 0.322-0.072 0.034-0.154 0.062-0.226 0.099-0.021 0.007-0.034 0.021-0.048 0.027-0.216 0.113-0.421 0.24-0.634 0.363-0.236 0.134-0.48 0.267-0.713 0.415-0.041 0.021-0.086 0.048-0.127 0.072-0.055 0.034-0.106 0.062-0.161 0.093-0.182 0.113-0.343 0.247-0.517 0.367-0.23 0.161-0.466 0.322-0.685 0.497-0.099 0.072-0.202 0.14-0.295 0.216-0.168 0.127-0.315 0.274-0.473 0.408-0.209 0.182-0.425 0.36-0.627 0.555-0.093 0.079-0.195 0.161-0.288 0.254-0.147 0.14-0.281 0.302-0.428 0.449-0.188 0.202-0.38 0.394-0.562 0.603-0.086 0.099-0.182 0.195-0.267 0.295-0.134 0.154-0.247 0.322-0.373 0.483-0.171 0.216-0.343 0.435-0.504 0.661-0.079 0.106-0.164 0.216-0.243 0.329-0.113 0.161-0.209 0.343-0.322 0.507-0.151 0.233-0.302 0.476-0.449 0.723-0.069 0.113-0.14 0.223-0.202 0.336-0.106 0.188-0.188 0.38-0.284 0.576-0.13 0.247-0.257 0.5-0.377 0.764-0.048 0.099-0.099 0.195-0.144 0.295-0.058 0.14-0.103 0.281-0.158 0.421-0.038 0.086-0.069 0.182-0.099 0.267-0.072 0.182-0.154 0.349-0.219 0.528l-73.458 207.662-15.532-107.307c3.512-1.024 6.702-3.032 9.118-5.883 3.584-4.221 5.122-9.803 4.218-15.264l-12.568-75.997c-1.501-9.1-9.368-15.772-18.588-15.772h-78.673c-9.22 0-17.091 6.671-18.598 15.772l-12.568 75.997c-0.905 5.462 0.644 11.043 4.221 15.264 2.416 2.851 5.609 4.859 9.121 5.883l-15.84 109.575-71.289-209.711c-0.072-0.202-0.161-0.38-0.233-0.576-0.024-0.075-0.048-0.14-0.072-0.206-0.086-0.209-0.151-0.421-0.24-0.63-0.027-0.069-0.069-0.134-0.096-0.209-0.116-0.26-0.25-0.507-0.377-0.764-0.007-0.014-0.014-0.034-0.021-0.048-0.144-0.288-0.281-0.569-0.442-0.843-0.14-0.254-0.298-0.49-0.452-0.737-0.007-0.007-0.014-0.021-0.021-0.027-0.123-0.195-0.23-0.401-0.36-0.589-0.051-0.072-0.11-0.14-0.164-0.216-0.168-0.24-0.356-0.469-0.535-0.702-0.14-0.182-0.274-0.373-0.425-0.555-0.058-0.062-0.116-0.12-0.171-0.188-0.195-0.216-0.394-0.421-0.596-0.637-0.219-0.226-0.435-0.463-0.668-0.682-0.216-0.202-0.442-0.394-0.661-0.589-0.24-0.209-0.483-0.415-0.733-0.61-0.247-0.195-0.504-0.367-0.761-0.548-0.003 0-0.007 0-0.007 0-0.175-0.12-0.336-0.254-0.514-0.373-0.072-0.048-0.147-0.086-0.219-0.134-0.26-0.161-0.524-0.308-0.788-0.456-0.209-0.12-0.404-0.24-0.617-0.356-0.034-0.014-0.069-0.034-0.099-0.055-0.041-0.021-0.079-0.034-0.116-0.055-0.25-0.127-0.511-0.233-0.774-0.349-0.233-0.106-0.463-0.223-0.702-0.315-0.082-0.034-0.161-0.065-0.247-0.099-0.233-0.093-0.483-0.161-0.723-0.24-0.257-0.086-0.507-0.182-0.771-0.254-0.093-0.027-0.182-0.062-0.274-0.086-0.209-0.055-0.415-0.086-0.624-0.14-0.027 0-0.051-0.007-0.072-0.014-0.274-0.069-0.548-0.134-0.822-0.188-0.329-0.062-0.648-0.099-0.97-0.14-0.288-0.041-0.576-0.079-0.863-0.106-0.027 0-0.048-0.007-0.072-0.007-0.288-0.021-0.576-0.027-0.863-0.034-0.007 0-0.014-0.007-0.021-0.007-0.295-0.007-0.589-0.021-0.884-0.021-0.007 0-0.010 0-0.014 0-0.308 0.007-0.61 0.027-0.911 0.048-0.021 0.007-0.038 0.007-0.055 0.007-0.295 0.021-0.582 0.034-0.877 0.065-0.069 0.007-0.134 0.007-0.202 0.014-0.26 0.034-0.528 0.093-0.788 0.134-0.274 0.048-0.555 0.086-0.829 0.147-0.072 0.014-0.14 0.027-0.216 0.041-0.254 0.055-0.5 0.14-0.75 0.206-0.041 0.007-0.072 0.021-0.106 0.027-0.216 0.062-0.421 0.093-0.637 0.161-0.062 0.021-0.127 0.041-0.188 0.062-0.007 0.007-0.007 0.007-0.014 0.007-81.328 25.424-150.798 68.459-200.898 124.459-52.17 58.317-79.745 126.875-79.745 198.273v519.664c0 10.413 8.436 18.845 18.845 18.845h114.68l-14.747 141.022c-0.555 5.314 1.168 10.608 4.742 14.576s8.658 6.229 14 6.229h244.016c0.038 0 0.072 0.007 0.106 0.007 0.596 0 1.186-0.041 1.775-0.093 0.14-0.014 0.274-0.034 0.415-0.048 0.435-0.055 0.863-0.12 1.285-0.202 0.171-0.027 0.343-0.062 0.507-0.093 0.514-0.113 1.024-0.24 1.518-0.387 0.188-0.062 0.367-0.127 0.552-0.195 0.339-0.113 0.672-0.233 1.007-0.367 0.219-0.086 0.442-0.188 0.661-0.288 0.295-0.127 0.582-0.267 0.87-0.415 0.195-0.099 0.394-0.202 0.582-0.308 0.463-0.254 0.918-0.528 1.357-0.822 0.027-0.021 0.055-0.041 0.086-0.058 0.435-0.302 0.85-0.617 1.257-0.942 0.099-0.082 0.202-0.168 0.302-0.254 0.343-0.295 0.675-0.596 0.997-0.911 0.086-0.079 0.175-0.168 0.254-0.247 0.373-0.373 0.73-0.771 1.066-1.172 0.021-0.027 0.048-0.048 0.069-0.075 0.367-0.449 0.709-0.911 1.035-1.384 0.062-0.086 0.113-0.182 0.171-0.274 0.24-0.36 0.463-0.73 0.675-1.103 0.106-0.195 0.209-0.387 0.308-0.582 0.147-0.288 0.288-0.576 0.421-0.87 0.099-0.233 0.209-0.469 0.308-0.709 0.027-0.072 0.062-0.14 0.089-0.216l50.306-129.297 50.416 129.311c0.027 0.069 0.062 0.134 0.089 0.202 0.096 0.24 0.206 0.476 0.312 0.716 0.134 0.288 0.267 0.582 0.415 0.87 0.099 0.195 0.206 0.387 0.308 0.576 0.216 0.38 0.442 0.75 0.675 1.11 0.062 0.086 0.113 0.182 0.171 0.267 0.326 0.483 0.672 0.942 1.042 1.391 0.014 0.014 0.021 0.027 0.034 0.041 0.349 0.415 0.716 0.815 1.096 1.206 0.075 0.079 0.154 0.154 0.233 0.233 0.329 0.322 0.675 0.63 1.024 0.932 0.093 0.079 0.188 0.161 0.281 0.233 0.415 0.343 0.846 0.661 1.292 0.97 0.021 0.014 0.041 0.027 0.062 0.041 0.442 0.295 0.901 0.569 1.364 0.829 0.188 0.099 0.37 0.195 0.555 0.288 0.302 0.154 0.6 0.302 0.905 0.435 0.216 0.099 0.428 0.195 0.644 0.281 0.339 0.134 0.682 0.26 1.028 0.373 0.175 0.058 0.343 0.127 0.514 0.182 0.5 0.154 1.018 0.281 1.538 0.394 0.168 0.034 0.336 0.069 0.5 0.093 0.428 0.079 0.86 0.147 1.299 0.202 0.134 0.014 0.267 0.034 0.408 0.048 0.586 0.055 1.179 0.093 1.775 0.093 0.034 0 0.069-0.007 0.106-0.007h245.654c5.342 0 10.43-2.261 14.004-6.229s5.297-9.261 4.742-14.576l-14.744-141.022h111.069c10.406 0 18.845-8.432 18.845-18.845v-519.654c0-71.183-27.356-139.631-79.115-197.934-49.795-56.086-118.85-99.234-199.726-124.802zM653.639 182.788c-0.185 0.182-0.339 0.38-0.511 0.569-0.26 0.281-0.535 0.562-0.785 0.863-0.069 0.079-0.12 0.175-0.188 0.254-5.040 6.397-5.359 15.306-0.929 22.011 0.134 0.209 0.295 0.394 0.442 0.596 0.219 0.315 0.435 0.63 0.678 0.929 0.192 0.226 0.404 0.449 0.613 0.675 0.223 0.247 0.439 0.507 0.682 0.75l54.757 54.76-195.495 286.174-3.306-4.838 85.049-240.443c0.017-0.041 0.031-0.079 0.048-0.12l84.367-238.5 30.704 60.174-56.127 56.144zM372.167 209.442c0 0 0 0 0.007 0 1.096-1.096 2.015-2.303 2.786-3.574 1.487-2.457 2.374-5.167 2.642-7.929 0-0.007 0.003-0.014 0.007-0.021 0.062-0.675 0.089-1.353 0.082-2.028-0.055-4.752-1.895-9.477-5.513-13.102l-56.144-56.148 30.354-59.492 143.325 421.591-6.452 18.235-165.863-242.78 54.77-54.753zM488.649 37.695h46.708l6.335 38.307h-59.375l6.332-38.307zM492.819 113.692h38.372l26.482 182.937-47.661 134.725-44.286-130.264 27.092-187.398zM236.595 845.281c0-0.014 0-0.034 0-0.048l20.767-198.554c0.14-1.384 0.134-2.779-0.027-4.156l-37.69-321.055c-1.213-10.341-10.587-17.735-20.915-16.522-10.337 1.216-17.735 10.581-16.522 20.915l37.45 318.982-18.787 179.644h-99.776v-500.822c0-113.533 81.085-216.163 210.194-270.656l-35.055 68.705c-0.048 0.099-0.082 0.202-0.134 0.295-0.219 0.456-0.428 0.911-0.61 1.371-0.079 0.209-0.147 0.415-0.219 0.63-0.127 0.363-0.257 0.723-0.36 1.090-0.086 0.302-0.154 0.61-0.226 0.911-0.062 0.281-0.134 0.562-0.188 0.843-0.065 0.356-0.106 0.716-0.154 1.076-0.027 0.233-0.069 0.476-0.086 0.709-0.034 0.367-0.041 0.744-0.055 1.117-0.007 0.233-0.017 0.469-0.014 0.702 0 0.356 0.027 0.702 0.048 1.052 0.021 0.26 0.034 0.528 0.062 0.788 0.034 0.308 0.086 0.617 0.134 0.918 0.048 0.308 0.093 0.61 0.154 0.911 0.055 0.26 0.127 0.521 0.192 0.778 0.082 0.343 0.171 0.675 0.274 1.011 0.072 0.226 0.158 0.449 0.236 0.668 0.12 0.356 0.247 0.702 0.391 1.045 0.089 0.219 0.199 0.435 0.305 0.648 0.154 0.329 0.305 0.654 0.476 0.977 0.14 0.254 0.288 0.497 0.439 0.737 0.164 0.274 0.319 0.541 0.497 0.802 0.209 0.315 0.445 0.617 0.672 0.915 0.14 0.182 0.267 0.37 0.415 0.541 0.308 0.38 0.644 0.744 0.99 1.096 0.079 0.086 0.147 0.175 0.226 0.254l52.499 52.506-52.502 52.495c-0.027 0.027-0.051 0.062-0.075 0.086-0.319 0.322-0.61 0.654-0.905 0.997-0.12 0.14-0.247 0.274-0.36 0.415-0.267 0.329-0.5 0.668-0.744 1.004-0.12 0.182-0.257 0.349-0.373 0.528-0.188 0.288-0.349 0.582-0.521 0.877-0.14 0.247-0.295 0.49-0.421 0.744-0.12 0.226-0.216 0.463-0.322 0.689-0.154 0.329-0.315 0.654-0.449 0.99-0.072 0.175-0.12 0.349-0.188 0.528-0.14 0.394-0.288 0.788-0.408 1.192-0.048 0.175-0.079 0.349-0.127 0.521-0.106 0.408-0.216 0.815-0.291 1.23-0.051 0.247-0.072 0.497-0.11 0.75-0.048 0.343-0.106 0.675-0.14 1.018-0.034 0.373-0.041 0.75-0.055 1.117-0.007 0.226-0.027 0.449-0.027 0.675 0 0.449 0.031 0.891 0.062 1.34 0.014 0.154 0.014 0.308 0.027 0.456 0.041 0.442 0.113 0.877 0.188 1.312 0.027 0.161 0.045 0.329 0.072 0.49 0.072 0.373 0.178 0.744 0.274 1.11 0.062 0.226 0.103 0.456 0.175 0.682 0.082 0.288 0.195 0.569 0.295 0.85 0.106 0.308 0.209 0.617 0.336 0.918 0.086 0.216 0.195 0.421 0.288 0.63 0.168 0.36 0.329 0.73 0.521 1.083 0.093 0.175 0.209 0.343 0.305 0.514 0.216 0.373 0.432 0.744 0.678 1.11 0.021 0.034 0.041 0.069 0.062 0.099l216.605 317.046v237.626l-61.894 159.086h-210.327l14.751-141.029zM922.894 824.483h-96.168l-18.783-179.644 37.443-318.982c1.213-10.334-6.185-19.695-16.519-20.915-10.33-1.213-19.698 6.185-20.915 16.522l-37.687 321.055c-0.161 1.377-0.175 2.772-0.027 4.156l20.76 198.541c0 0.027 0.007 0.048 0.007 0.072l14.747 141.015h-211.975l-62.024-159.093v-237.619l216.584-317.046c0.027-0.034 0.041-0.069 0.062-0.093 0.254-0.38 0.483-0.771 0.702-1.151 0.093-0.161 0.195-0.315 0.281-0.476 0.202-0.373 0.373-0.757 0.548-1.138 0.086-0.195 0.185-0.38 0.264-0.576 0.134-0.322 0.236-0.648 0.353-0.977 0.093-0.26 0.202-0.521 0.281-0.788 0.072-0.247 0.127-0.5 0.188-0.757 0.089-0.343 0.188-0.682 0.254-1.031 0.041-0.195 0.058-0.387 0.086-0.582 0.069-0.408 0.14-0.815 0.182-1.223 0.014-0.188 0.014-0.373 0.027-0.562 0.027-0.408 0.062-0.822 0.062-1.23 0-0.267-0.027-0.535-0.034-0.802-0.014-0.329-0.021-0.654-0.048-0.983-0.041-0.387-0.099-0.771-0.161-1.158-0.034-0.209-0.055-0.415-0.093-0.617-0.082-0.456-0.202-0.898-0.315-1.347-0.041-0.134-0.065-0.274-0.099-0.408-0.127-0.435-0.281-0.857-0.442-1.278-0.055-0.147-0.093-0.295-0.154-0.442-0.14-0.36-0.315-0.709-0.476-1.059-0.099-0.209-0.188-0.421-0.291-0.624-0.137-0.267-0.302-0.528-0.452-0.788-0.164-0.274-0.315-0.562-0.497-0.829-0.12-0.195-0.267-0.373-0.394-0.555-0.233-0.336-0.463-0.661-0.72-0.977-0.123-0.154-0.257-0.295-0.384-0.442-0.284-0.329-0.569-0.661-0.884-0.977-0.027-0.027-0.051-0.062-0.079-0.086l-52.485-52.485 52.495-52.499c0.086-0.086 0.161-0.182 0.24-0.274 0.343-0.349 0.668-0.702 0.977-1.079 0.147-0.175 0.278-0.367 0.415-0.548 0.233-0.302 0.463-0.596 0.668-0.911 0.178-0.26 0.336-0.535 0.5-0.809 0.147-0.24 0.295-0.483 0.428-0.73 0.175-0.322 0.329-0.648 0.483-0.977 0.099-0.216 0.209-0.435 0.302-0.648 0.147-0.343 0.271-0.696 0.394-1.045 0.079-0.219 0.168-0.449 0.233-0.668 0.106-0.336 0.188-0.675 0.274-1.011 0.069-0.26 0.134-0.514 0.192-0.778 0.065-0.302 0.106-0.603 0.158-0.905 0.048-0.308 0.099-0.617 0.134-0.925 0.027-0.26 0.041-0.521 0.055-0.785 0.027-0.356 0.048-0.702 0.055-1.059 0-0.233-0.014-0.469-0.021-0.702-0.007-0.373-0.021-0.75-0.055-1.117-0.021-0.24-0.055-0.476-0.079-0.709-0.048-0.36-0.093-0.723-0.161-1.083-0.051-0.274-0.12-0.555-0.188-0.829-0.065-0.308-0.134-0.617-0.219-0.925-0.106-0.36-0.233-0.723-0.36-1.083-0.072-0.206-0.14-0.421-0.219-0.634-0.182-0.456-0.387-0.905-0.61-1.353-0.051-0.106-0.086-0.209-0.14-0.308l-0.055-0.106-0.072-0.147-34.805-68.205c127.934 54.702 208.258 157.205 208.258 270.41v500.819z"></path>
</svg>
