<!-- Generated by IcoMoon.io -->
<svg version="1.1" xmlns="http://www.w3.org/2000/svg" width="1024" height="1024" viewBox="0 0 1024 1024">
<title></title>
<g id="icomoon-ignore">
</g>
<path fill="#000" d="M424.112 255.188c0-8.284-6.714-15-15-15s-15 6.716-15 15v40.749c0 8.284 6.714 15 15 15s15-6.716 15-15z"></path>
<path fill="#000" d="M614.888 240.188c-8.286 0-15 6.716-15 15v40.749c0 8.284 6.714 15 15 15s15-6.716 15-15v-40.749c0-8.284-6.714-15-15-15z"></path>
<path fill="#000" d="M570.333 325.695c-19.626-9.244-97.042-9.244-116.667 0-15.138 7.132-25.305 20.44-28.625 37.475-2.696 13.828-0.792 29.247 5.36 43.413 8.524 19.63 23.983 34.667 44.707 43.487 7.048 2.998 14.408 5.078 21.891 6.274v21.671c0 8.284 6.714 15 15 15s15-6.716 15-15v-21.671c7.482-1.196 14.844-3.276 21.891-6.274 20.722-8.818 36.183-23.857 44.707-43.485 6.15-14.166 8.054-29.585 5.36-43.413-3.32-17.034-13.486-30.345-28.625-37.477zM566.077 394.634c-5.482 12.628-15.216 21.993-28.933 27.829-15.976 6.8-34.305 6.802-50.291 0-13.714-5.836-23.451-15.2-28.933-27.831-5.474-12.608-7.72-34.143 8.52-41.793 5.96-2.696 25.761-4.044 45.557-4.044 19.792 0 39.585 1.348 45.551 4.042 16.248 7.656 14.002 29.189 8.528 41.797z"></path>
<path fill="#000" d="M880.288 176.378c11.92-36.157 5.442-76.364-17.774-110.317-26.161-38.259-69.912-63.477-114.179-65.816-66.756-3.512-101.65 31.251-128.379 69.912-33.763-10.38-70.102-16.052-107.955-16.052-37.895 0-74.272 5.684-108.067 16.086-14.54-20.91-29.959-38.821-49.861-51.441-6.994-4.438-16.262-2.364-20.702 4.632-4.436 6.996-2.362 16.264 4.634 20.702 13.744 8.718 25.415 21.443 36.549 36.595-71.512 29.195-128.623 80.42-159.422 143.441-18.998-14.038-34.647-32.029-42.925-57.135-9.102-27.605-4.114-57.431 14.044-83.988 20.998-30.709 55.865-50.935 90.968-52.789l1.28-0.062c8.278-0.372 14.684-7.382 14.312-15.658s-7.388-14.672-15.656-14.312l-1.492 0.072c-44.263 2.336-88.014 27.555-114.175 65.814-23.215 33.953-29.695 74.16-17.774 110.315 8.248 25.015 22.369 45.833 43.169 63.641 5.078 4.348 10.548 8.48 16.466 12.508-8.608 24.971-13.252 51.393-13.252 78.738 0 62.337 24.045 119.917 64.546 166.264-37.197 26.971-61.291 61.807-68.478 99.562-7.346 38.597 5.326 75.814 35.725 105.57-2.844 14.66-5.234 32.239-6.184 52.461-0.936 19.9-0.328 39.403 1.466 58.373-28.089 21.793-46.045 54.859-46.045 91.826 0 64.464 54.599 117.055 122.341 118.653 0.37 0.028 436.569 0.032 436.875 0.014 28.899-0.648 56.741-10.692 78.698-28.503 6.434-5.22 7.418-14.666 2.2-21.1-5.218-6.432-14.66-7.418-21.098-2.2-17.38 14.098-39.673 21.865-62.769 21.865-52.661 0-95.504-39.803-95.504-88.728 0-7.064 0.9-13.934 2.588-20.524 13.814-10.974 26.263-21.094 35.529-29.047 13.522-11.604 25.689-23.967 36.461-37.003 6.736-1.408 13.738-2.154 20.924-2.154 52.661 0 95.504 39.803 95.504 88.728 0 5.598-0.562 11.192-1.672 16.628-1.656 8.118 3.582 16.040 11.698 17.696 8.126 1.648 16.042-3.582 17.698-11.698 1.512-7.406 2.278-15.018 2.278-22.627 0-36.997-17.986-70.086-46.113-91.876 2.084-21.991 2.322-41.597 1.534-58.321-0.938-19.968-3.28-37.359-6.078-51.909 30.223-29.599 42.873-66.634 35.679-105.094-7.126-38.093-31.315-73.134-68.818-100.27 40.671-46.401 64.826-104.104 64.826-166.584 0-27.359-4.65-53.797-13.268-78.78 25.683-17.542 48.139-41.203 59.649-76.108zM215.636 602.703c7.622-40.049 37.711-67.782 60.165-83.386 10.434 9.706 21.667 18.768 33.593 27.119-2.402 2.024-4.764 4.1-7.030 6.282-5.458 5.256-13.98 12.13-15.506 20.138-1.158 5.428 0.736 11.288 5.398 14.942 2.99 2.344 6.59 3.358 10.106 3.156 17.714 2.606 35.805 7.292 53.825 13.998 28.377 10.558 67.102 28.331 75.78 60.627 6.126 22.795-8.872 50.093-31.463 57.273-45.801 14.554-113.037-1.86-153.066-37.369-18.564-16.464-39.149-44.191-31.803-82.782zM294.709 786.642c-17.304 0.248-33.765 3.82-48.707 10.080-0.852-14.152-0.89-27.047-0.406-38.477 0.532-12.57 1.68-24.025 3.152-34.287 7.132 4.61 14.64 8.802 22.423 12.542 3.932 11.264 8.362 21.529 12.752 30.467 3.282 6.686 6.89 13.242 10.786 19.674zM296.629 994.053c-52.661 0-95.504-39.803-95.504-88.728s42.843-88.728 95.504-88.728c7.2 0 14.206 0.77 20.952 2.186 10.764 13.024 22.923 25.375 36.435 36.969 9.268 7.954 21.717 18.074 35.533 29.049 1.69 6.588 2.586 13.458 2.586 20.522-0.002 48.927-42.843 88.73-95.506 88.73zM644.101 994.053h-264.203c24.673-20.744 40.659-50.521 42.103-83.802 28.193 21.875 56.507 43.355 72.674 55.559 5.1 3.85 11.21 5.774 17.324 5.774 6.112 0 12.224-1.924 17.326-5.774 16.164-12.204 44.477-33.683 72.672-55.559 1.444 33.281 17.43 63.057 42.103 83.802zM713.153 753.742c-14.326 29.169-35.425 55.831-62.709 79.246-33.701 28.923-113.509 89.48-138.445 108.313-24.943-18.836-104.746-79.392-138.445-108.313-27.285-23.415-48.381-50.075-62.709-79.246-0.48-0.978-0.96-2.018-1.442-3.030 17.962 4.842 36.355 7.406 54.057 7.406 16.246 0 31.919-2.154 46.127-6.668 37.553-11.934 61.547-55.695 51.351-93.65-12.276-45.685-59.693-68.086-94.292-80.96-11.374-4.232-22.797-7.726-34.177-10.512 20.21-15.634 45.511-24.433 71.142-24.433h0.276c36.747 0.090 70.5 16.954 92.606 46.269 3.654 4.842 9.45 7.734 15.504 7.734s11.85-2.892 15.506-7.738c22.105-29.313 55.857-46.177 92.604-46.267h0.276c25.885 0 51.445 8.962 71.754 24.891-11.54 2.766-23.125 6.258-34.665 10.51-24.897 9.174-56.429 23.249-76.81 47.389-7.974 9.446-14.242 20.434-17.734 33.273-10.316 37.923 13.542 81.76 51.055 93.81 14.368 4.616 30.227 6.816 46.687 6.816 17.572 0 35.819-2.524 53.649-7.284-0.386 0.82-0.776 1.652-1.166 2.444zM777.961 796.707c-14.932-6.248-31.379-9.816-48.669-10.064 3.896-6.432 7.506-12.988 10.788-19.674 4.302-8.76 8.652-18.784 12.526-29.783 7.868-3.76 15.464-7.978 22.669-12.624 2.77 19.792 4.32 44.053 2.686 72.146zM808.408 603.637c7.222 38.615-13.45 66.278-32.061 82.682-40.145 35.383-107.427 51.583-153.186 36.885-22.569-7.25-37.479-34.595-31.283-57.373 8.78-32.269 47.561-49.917 75.968-60.385 18.99-6.998 38.055-11.788 56.665-14.238 4.482-0.59 8.526-3.234 10.87-7.098 3.352-5.524 2.884-12.302-1.096-17.374-3.892-4.964-8.15-9.678-12.652-14.014-2.266-2.182-4.626-4.256-7.026-6.28 11.802-8.264 22.921-17.226 33.263-26.821 23.021 15.956 53.019 43.827 60.537 84.018zM687.75 528.463c-20.706-10.736-43.931-16.57-67.366-16.57-0.116 0-0.232 0-0.348 0-41.761 0.102-80.45 17.43-108.037 47.973-27.587-30.543-66.278-47.871-108.037-47.973-0.118 0-0.23 0-0.348 0-23.431 0-46.651 5.832-67.356 16.564-70.506-45.161-116.163-116.739-116.163-197.193 0-136.285 130.947-247.161 291.904-247.161s291.904 110.875 291.904 247.161c0 80.454-45.649 152.038-116.153 197.199zM808.802 223.975c-30.813-62.955-87.892-114.123-159.346-143.295 24.881-33.887 50.375-52.949 97.298-50.475 35.129 1.854 69.996 22.083 90.994 52.791 18.158 26.557 23.147 56.383 14.044 83.988-5.976 18.128-15.952 37.249-42.991 56.991z"></path>
</svg>
