<?xml version="1.0" encoding="iso-8859-1"?>
<!-- Generator: Adobe Illustrator 19.0.0, SVG Export Plug-In . SVG Version: 6.00 Build 0)  -->
<svg version="1.1" id="Capa_1" xmlns="http://www.w3.org/2000/svg" xmlns:xlink="http://www.w3.org/1999/xlink" x="0px" y="0px"
	 viewBox="0 0 480.004 480.004" style="enable-background:new 0 0 480.004 480.004;" xml:space="preserve">
<g>
	<g>
		<path d="M430.233,43l-32-40c-0.639-0.759-1.415-1.391-2.288-1.864c-0.245-0.131-0.499-0.243-0.76-0.336
			c-0.74-0.327-1.524-0.54-2.328-0.632c-0.16,0-0.296-0.112-0.448-0.128c-0.152-0.016-0.12,0-0.176,0
			c-0.056,0-0.152-0.04-0.248-0.04h-304c-0.096,0-0.176,0-0.264,0c-0.088,0-0.12,0-0.184,0c-0.064,0-0.288,0.104-0.448,0.128
			c-0.797,0.107-1.574,0.333-2.304,0.672c-0.239,0.096-0.472,0.208-0.696,0.336C83.217,1.609,82.44,2.241,81.801,3h-0.04l-32,40
			c-2.217,2.782-2.331,6.694-0.28,9.6l122.712,173.28c1.362,1.926,3.505,3.153,5.856,3.352c0.224,0,0.456,0,0.68,0
			c2.122,0,4.156-0.844,5.656-2.344l10.344-10.344l16.656,16.616l-27.32,197.744c-0.38,2.733,0.675,5.47,2.792,7.24l48,40
			c2.969,2.48,7.287,2.48,10.256,0l48-40c2.117-1.77,3.172-4.507,2.792-7.24l-27.296-197.696l16.656-16.616l10.344,10.344
			c1.5,1.5,3.534,2.344,5.656,2.344c0.224,0,0.456,0,0.68,0c2.351-0.199,4.494-1.426,5.856-3.352L430.513,52.624
			C432.577,49.713,432.463,45.786,430.233,43z M372.673,16L239.985,148.688L107.297,16H372.673z M179.753,208.92L65.993,48.296
			L88.649,20l140.024,140L179.753,208.92z M279.457,428.696L239.985,461.6l-39.472-32.888l25.072-181.336l8.8,8.8
			c3.124,3.123,8.188,3.123,11.312,0l8.8-8.8L279.457,428.696z M239.985,239.2l-33.96-33.896l33.96-33.992l33.96,33.96
			L239.985,239.2z M300.217,208.952L251.297,160l140-140l22.656,28.32L300.217,208.952z"/>
	</g>
</g>
<g>
</g>
<g>
</g>
<g>
</g>
<g>
</g>
<g>
</g>
<g>
</g>
<g>
</g>
<g>
</g>
<g>
</g>
<g>
</g>
<g>
</g>
<g>
</g>
<g>
</g>
<g>
</g>
<g>
</g>
</svg>
