<!-- Generated by IcoMoon.io -->
<svg version="1.1" xmlns="http://www.w3.org/2000/svg" width="1024" height="1024" viewBox="0 0 1024 1024">
<title></title>
<g id="icomoon-ignore">
</g>
<path fill="#000" d="M917.822 91.733l-68.266-85.333c-1.363-1.619-3.019-2.967-4.881-3.977-0.523-0.279-1.065-0.518-1.621-0.717-1.579-0.698-3.251-1.152-4.966-1.348-0.341 0-0.631-0.239-0.956-0.273s-0.256 0-0.375 0c-0.119 0-0.324-0.085-0.529-0.085h-648.527c-0.205 0-0.375 0-0.563 0s-0.256 0-0.393 0c-0.137 0-0.614 0.222-0.956 0.273-1.7 0.228-3.358 0.71-4.915 1.434-0.51 0.205-1.007 0.444-1.485 0.717-1.86 1.009-3.518 2.357-4.881 3.977h-0.085l-68.266 85.333c-4.73 5.935-4.973 14.28-0.597 20.48l261.782 369.66c2.906 4.109 7.477 6.726 12.493 7.151 0.478 0 0.973 0 1.451 0 4.527 0 8.866-1.801 12.066-5l22.067-22.067 35.533 35.447-58.282 421.849c-0.811 5.83 1.44 11.669 5.956 15.445l102.399 85.333c6.334 5.291 15.545 5.291 21.879 0l102.399-85.333c4.516-3.776 6.767-9.615 5.956-15.445l-58.231-421.747 35.533-35.447 22.067 22.067c3.2 3.2 7.539 5 12.066 5 0.478 0 0.973 0 1.451 0 5.015-0.425 9.587-3.042 12.493-7.151l261.782-369.711c4.403-6.21 4.16-14.588-0.597-20.531zM795.028 34.133l-283.064 283.064-283.064-283.064h566.13zM383.47 445.691l-242.685-342.661 48.332-60.364 298.714 298.663-104.362 104.362zM596.17 914.542l-84.206 70.195-84.206-70.16 53.486-386.846 18.773 18.773c6.664 6.662 17.468 6.662 24.132 0l18.773-18.773 53.248 386.812zM511.964 510.288l-72.447-72.311 72.447-72.516 72.447 72.447-72.447 72.379zM640.458 445.76l-104.362-104.43 298.663-298.663 48.332 60.415-242.634 342.678z"></path>
</svg>
