<!-- Generated by IcoMoon.io -->
<svg version="1.1" xmlns="http://www.w3.org/2000/svg" width="1024" height="1024" viewBox="0 0 1024 1024">
<title></title>
<g id="icomoon-ignore">
</g>
<path fill="#000" d="M1018.474 296.428c-0.236-0.249-0.48-0.492-0.728-0.728l-211.381-187.871c-1.929-1.758-4.179-3.122-6.631-4.019l-152.909-54.654c-10.431-3.788-21.957 1.6-25.744 12.031-0.683 1.881-1.080 3.853-1.18 5.852 0 4.421-6.631 106.293-108.503 107.901-102.475-1.607-108.905-103.48-109.106-107.901-0.593-11.081-10.057-19.583-21.138-18.991-1.904 0.103-3.785 0.475-5.586 1.108l-152.708 55.256c-2.451 0.897-4.702 2.26-6.631 4.019l-209.974 187.269c-8.045 7.643-8.371 20.362-0.728 28.407 0.236 0.249 0.48 0.492 0.728 0.728l167.175 168.984v462.145c0 11.096 8.997 20.093 20.093 20.093h636.956c11.096 0 20.093-8.997 20.093-20.093v-462.145l167.175-168.984c8.045-7.643 8.371-20.359 0.728-28.407zM849.968 436.553v-93.232c0-11.096-8.997-20.093-20.093-20.093s-20.093 8.997-20.093 20.093v591.545h-596.97v-591.545c0-11.096-8.997-20.093-20.093-20.093s-20.093 8.997-20.093 20.093v93.433l-123.573-125.181 191.287-171.194 125.783-45.411c15.582 80.287 93.3 132.743 173.588 117.161 59.293-11.508 105.653-57.868 117.161-117.161l125.783 45.411 190.685 171.194-123.372 124.98z"></path>
</svg>
