<!-- Generated by IcoMoon.io -->
<svg version="1.1" xmlns="http://www.w3.org/2000/svg" width="1024" height="1024" viewBox="0 0 1024 1024">
<title></title>
<g id="icomoon-ignore">
</g>
<path fill="#000" d="M1006.824 171.13c-10.958-2.416-22.75 5.124-25.084 16.728l-29.333 146.653c-12.422-6.382-22.244-16.588-33.499-28.869-20.25-22.102-45.457-49.601-93.956-49.601s-73.665 27.498-93.914 49.601c-18.25 19.958-32.707 35.727-62.375 35.727-29.707 0-44.125-15.77-62.415-35.727-20.25-22.102-45.457-49.601-93.956-49.601-48.457 0-73.665 27.498-93.874 49.579-18.334 19.978-32.791 35.747-62.499 35.747-29.749 0-44.249-15.77-62.583-35.747-20.25-22.082-45.499-49.579-94.040-49.579s-73.749 27.478-93.998 49.579c-11.316 12.318-21.184 22.564-33.697 28.945l-29.341-146.707c-2.334-11.604-14.126-19.166-25.084-16.728-11.584 2.312-19.084 13.54-16.75 25.102l117.706 588.496c7.958 39.747 43.165 68.599 83.665 68.599h620.405c40.499 0 75.707-28.851 83.665-68.599l117.706-588.496c2.338-11.56-5.162-22.79-16.746-25.102zM864.035 776.355c-4 19.874-21.584 34.309-41.833 34.309h-620.405c-20.25 0-37.833-14.436-41.833-34.309l-79.829-399.127c25.172-9.294 41.835-26.704 56.579-42.777 18.334-19.978 32.833-35.747 62.583-35.747 29.791 0 44.291 15.79 62.625 35.767 20.25 22.082 45.499 49.559 93.998 49.559s73.707-27.498 93.956-49.601c18.292-19.958 32.707-35.727 62.415-35.727s44.165 15.77 62.499 35.747c20.208 22.082 45.415 49.579 93.874 49.579 48.457 0 73.625-27.498 93.874-49.579 18.292-19.978 32.707-35.747 62.415-35.747s44.165 15.77 62.499 35.747c14.698 16.074 31.327 33.471 56.415 42.765l-79.833 399.141z"></path>
</svg>
